<?xml version="1.0" encoding="UTF-8" standalone="no"?>
<svg
   xmlns:dc="http://purl.org/dc/elements/1.1/"
   xmlns:cc="http://creativecommons.org/ns#"
   xmlns:rdf="http://www.w3.org/1999/02/22-rdf-syntax-ns#"
   xmlns:svg="http://www.w3.org/2000/svg"
   xmlns="http://www.w3.org/2000/svg"
   xmlns:sodipodi="http://sodipodi.sourceforge.net/DTD/sodipodi-0.dtd"
   xmlns:inkscape="http://www.inkscape.org/namespaces/inkscape"
   version="1.1"
   width="150mm"
   height="54mm"
   viewBox="0 0 566.9291 204.09449"
   id="svg5458"
   sodipodi:docname="36c3_sticker.svg"
   inkscape:version="0.92.4 5da689c313, 2019-01-14">
  <metadata
     id="metadata5464">
    <rdf:RDF>
      <cc:Work
         rdf:about="">
        <dc:format>image/svg+xml</dc:format>
        <dc:type
           rdf:resource="http://purl.org/dc/dcmitype/StillImage" />
        <dc:title />
      </cc:Work>
    </rdf:RDF>
  </metadata>
  <defs
     id="defs5462" />
  <sodipodi:namedview
     pagecolor="#000000"
     bordercolor="#666666"
     borderopacity="1"
     objecttolerance="10"
     gridtolerance="10"
     guidetolerance="10"
     inkscape:pageopacity="0"
     inkscape:pageshadow="2"
     inkscape:window-width="1920"
     inkscape:window-height="1176"
     id="namedview5460"
     showgrid="false"
     inkscape:zoom="1.1534232"
     inkscape:cx="330.11247"
     inkscape:cy="37.668977"
     inkscape:window-x="0"
     inkscape:window-y="0"
     inkscape:window-maximized="1"
     inkscape:current-layer="g5456"
     units="mm" />
  <g
     stroke-width="none"
     stroke-linecap="none"
     stroke-miterlimit="none"
     font-weight="none"
     font-size="none"
     text-anchor="none"
     style="font-family:none;display:inline;mix-blend-mode:normal;fill:none;fill-rule:nonzero;stroke:none;stroke-linejoin:miter;stroke-dasharray:none;stroke-dashoffset:0"
     id="g5456"
     transform="translate(0,-1432.7722)">
    <rect
       style="fill:#000000;fill-opacity:1;stroke:#ffffff;stroke-width:0.3872458;stroke-linecap:round;stroke-linejoin:round;stroke-miterlimit:9.86666679;stroke-dasharray:none;stroke-opacity:1;paint-order:normal"
       id="rect865"
       width="566.54193"
       height="203.70724"
       x="0.19360135"
       y="1432.9658"
       inkscape:label="black_background"
       sodipodi:insensitive="true" />
    <g
       id="g7019"
       inkscape:label="inductor"
       transform="matrix(0.35627447,0,0,0.35627447,0.21619452,1297.4267)"
       style="fill:#d0d0ce;fill-opacity:1;stroke:none">
      <path
         style="fill:#d0d0ce;fill-opacity:1;stroke:none;stroke-width:3.77952766;stroke-linecap:butt;stroke-miterlimit:9.86666679;stroke-dasharray:none;stroke-opacity:1"
         inkscape:connector-curvature="0"
         id="path5423"
         stroke-miterlimit="10"
         d="m 641.31007,883.68837 2.30589,7.19187" />
      <path
         style="fill:#d0d0ce;fill-opacity:1;stroke:none;stroke-width:3.77952766;stroke-linecap:butt;stroke-miterlimit:9.86666679;stroke-dasharray:none;stroke-opacity:1"
         inkscape:connector-curvature="0"
         id="path5427"
         stroke-miterlimit="10"
         d="m 641.30761,882.74598 2.62358,8.13093" />
      <path
         style="fill:#d0d0ce;fill-opacity:1;stroke:none;stroke-width:3.77952766;stroke-linecap:butt;stroke-miterlimit:9.86666679;stroke-dasharray:none;stroke-opacity:1"
         inkscape:connector-curvature="0"
         id="path5435"
         stroke-miterlimit="10"
         d="m 711.94896,888.59456 c -6.63513,-1.91748 -14.718,-11.43688 -18.10774,-21.37253 -8.95031,-25.97511 -5.96377,-71.74407 6.5533,-100.49667 2.15262,-4.9506 3.92012,-10.04451 3.91569,-11.30642 -0.007,-3.41186 -12.19462,-11.53661 -20.89423,-13.94125 -4.5947,-1.26689 -12.76522,-1.78362 -20.59954,-1.28444 -30.08849,1.90006 -40.37865,16.47784 -38.23445,54.17388 0.81871,14.3997 3.63336,29.48981 8.51815,45.54019 l -0.83915,2.05873 -8.48426,6.57077 -5.55828,7.77021 -5.58087,13.70846 6.83519,-9.91021 6.18544,-5.87109 9.11142,-4.67165 0.95411,-1.52429 c 3.23967,9.51115 7.18158,19.36132 11.84026,29.60335 l 5.13743,11.28431 -74.45265,0.24865 -74.45174,0.24818 -0.0383,-12.56334 -0.0377,-12.56255 55.37641,-0.18465 c 51.97426,-0.1735 55.3193,-0.38515 54.44537,-3.11429 -5.93221,-18.64605 -9.80163,-33.23396 -12.02006,-46.0675 l 9.65417,-10.52387 -10.21933,7.0606 c -1.63516,-10.66698 -2.10156,-20.21509 -1.65308,-30.06462 1.51094,-33.17627 13.91677,-52.3848 40.41764,-62.57955 5.66336,-2.17784 10.95164,-2.9916 22.05459,-3.16011 l 1.45006,7.47386 1.45894,-7.503 c 0.85369,-0.005 1.73881,-0.006 2.65751,-0.005 21.84658,0.0276 32.43693,3.05515 45.60428,13.04161 l 7.38885,5.60258 7.42618,-5.68874 c 5.21927,-3.99551 11.0223,-7.05417 17.14022,-9.17613 l 6.85988,11.66932 -3.00791,-12.55727 -0.16253,-0.26808 c 19.187,-5.38418 40.85099,-1.8916 57.14831,10.47328 l 7.63055,5.79219 5.29633,-4.06429 c 11.83062,-9.07906 23.14051,-13.48435 36.83951,-14.35119 18.07099,-1.14312 29.13361,1.62717 42.35301,10.61432 l 10.91683,7.42141 9.89289,-6.65451 c 2.45951,-1.65426 4.77421,-3.10663 7.00531,-4.37438 l 2.14015,3.40708 6.71618,14.90689 7.68946,1.28515 c -4.26737,1.59111 -8.37553,3.94293 -12.523,7.1286 l -5.69588,4.37064 5.76159,12.37192 c 8.85856,19.00583 13.07058,38.42818 13.24734,61.08196 0.28127,36.13057 -11.3429,56.93025 -34.24209,61.26234 -11.8452,2.24025 -26.58779,-6.22275 -33.18698,-19.05428 -11.76123,-22.86448 -7.55452,-66.1209 9.91119,-101.90828 7.69391,-15.76596 7.69219,-15.77618 -5.52572,-22.91479 -12.09979,-6.53111 -26.13441,-6.48591 -38.18929,0.12712 -12.98161,7.12244 -13.1199,7.52675 -7.03642,20.61118 9.51992,20.46256 12.59383,35.15747 12.85291,61.35601 0.18234,18.4723 -0.40143,25.34769 -2.75903,32.41901 -6.57338,19.72305 -17.20237,29.5238 -31.98862,29.49599 -10.64151,-0.0127 -18.00951,-3.83932 -24.46124,-12.68653 -7.94713,-10.91393 -10.79048,-22.69786 -10.76389,-44.80844 0.0277,-23.2865 4.21308,-42.5485 13.67403,-62.91381 l 6.45665,-13.89852 -4.4212,-4.24312 c -13.83408,-13.16915 -42.49193,-12.75742 -54.6604,0.77917 -2.7738,3.09257 -2.78417,3.5957 -0.0663,9.2552 9.73891,20.34957 13.59831,41.74012 12.44606,68.99956 -1.79656,42.52308 -16.92663,65.39424 -39.03398,59.00675 z M 818.72003,857.8305 c 6.66264,-13.15203 5.95228,-45.99727 -1.48407,-68.6567 -1.43253,-4.37338 -3.19227,-7.94667 -3.91175,-7.94396 -2.22415,0.007 -8.3865,22.26967 -10.36693,37.45617 -2.93827,22.53397 2.05132,46.30509 9.71498,46.27938 1.33958,-7.6e-4 4.06573,-3.21749 6.05006,-7.13686 z m 90.19534,5.16143 c 11.81877,-6.37631 12.2333,-58.36733 0.64037,-80.31475 l -2.18671,-4.18831 -2.65128,6.40702 c -12.13654,29.32239 -14.5111,67.52873 -4.79619,77.17954 3.04024,2.99861 4.7841,3.18126 9.01743,0.8993 z M 723.76908,849.42187 c 4.1721,-16.24811 2.43879,-58.24574 -2.61825,-63.45722 -2.74603,-2.79168 -7.27225,24.48514 -7.21724,43.32709 0.0542,18.36192 3.00695,34.41961 5.80924,31.59333 0.79921,-0.8061 2.61517,-5.96837 4.02632,-11.46311 z" />
      <path
         style="fill:#d0d0ce;fill-opacity:1;stroke:none;stroke-width:3.77952766;stroke-linecap:square;stroke-miterlimit:9.86666679;stroke-dasharray:none;stroke-opacity:1"
         inkscape:connector-curvature="0"
         stroke-miterlimit="4"
         id="path5264 1 1"
         d="m 951.47378,854.90927 c 4.27632,-7.32655 8.44574,-12.6727 13.46424,-16.76921 l 5.2029,3.73629 10.4218,8.91922 -6.9233,-10.85828 -4.7335,-4.66587 c 4.8592,-3.10037 10.567,-5.371 17.7802,-7.31398 9.1669,-2.46737 18.23098,-3.41141 28.04398,-2.73073 l 0.1106,3.05514 -4.3795,8.65748 -5.2573,12.91938 -0.1908,0.24473 c -3.9846,0.14903 -7.7057,0.65501 -11.07588,1.54206 -11.6385,3.10091 -16.9987,7.1877 -22.1891,17.07136 -2.5085,4.78925 -4.0567,9.5506 -4.6814,14.57186 l -4.6949,6.22391 -16.32314,-0.93739 -4.01056,0.32231 c -0.45884,-12.72022 2.15863,-21.51655 9.43567,-33.9883 z" />
      <path
         style="fill:#d0d0ce;fill-opacity:1;stroke:none;stroke-width:3.77952766;stroke-linecap:butt;stroke-miterlimit:9.86666679;stroke-dasharray:none;stroke-opacity:1"
         inkscape:connector-curvature="0"
         id="path5450"
         stroke-miterlimit="10"
         d="m 1042.6599,803.24857 c 1.4818,15.84861 0.6138,30.76116 -3.0763,51.57115 l -2.2465,0.0171 1.478,4.1863 c -0.032,0.17238 -0.065,0.34516 -0.098,0.51835 l -1.0404,5.50673 3.599,-0.0275 13.8848,9.31897 -10.0104,-9.34853 42.1437,-0.32152 49.6179,-0.37931 -0.2005,12.55396 -0.201,12.55316 -64.8078,0.13732 c -62.0864,0.13145 -64.986,-5.7e-4 -69.0383,-3.11939 -7.73866,-5.94939 -6.38826,-16.95531 2.5758,-21.03219 6.8691,-3.1208 8.6898,-7.39257 11.6786,-27.34094 1.9508,-13.03348 2.0285,-26.5968 0.5091,-39.27245 l 2.0633,-3.66279 4.1816,-15.12552 -4.9352,11.19714 -1.9642,2.81405 c -1.9431,-12.57684 -5.4859,-24.06045 -10.3423,-32.98169 l 0.3041,0.0621 13.9092,-1.04045 9.702,0.0699 2.6869,-1.45837 c 4.9111,11.8844 7.9054,26.15072 9.6266,44.60435 z" />
    </g>
    <g
       id="g7012"
       inkscape:label="mosfet"
       transform="matrix(0.35627447,0,0,0.35627447,-11.431767,1297.4267)"
       style="fill:#d0d0ce;fill-opacity:1;stroke:none">
      <path
         style="font-family:none;mix-blend-mode:normal;fill:#d0d0ce;fill-opacity:1;fill-rule:nonzero;stroke:none;stroke-width:3.77952766;stroke-linecap:butt;stroke-linejoin:miter;stroke-miterlimit:9.86666679;stroke-dasharray:none;stroke-dashoffset:0;stroke-opacity:1"
         inkscape:connector-curvature="0"
         id="path6255"
         d="m 473.22474,724.14644 -3.64101,3.41284 -0.24957,-7.21575 0.14193,-0.223 z" />
      <path
         style="font-family:none;mix-blend-mode:normal;fill:#d0d0ce;fill-opacity:1;fill-rule:nonzero;stroke:none;stroke-width:3.77952766;stroke-linecap:butt;stroke-linejoin:miter;stroke-miterlimit:9.86666679;stroke-dasharray:none;stroke-dashoffset:0;stroke-opacity:1"
         inkscape:connector-curvature="0"
         id="path6257"
         d="m 305.28885,606.88525 -3.56646,21.40111 -25.29224,-4.21491 14.59006,-87.55002 25.29224,4.21491 -6.97081,41.8295 83.37176,13.89376 -1.64143,14.42456 -1.37108,10.06822 z" />
      <path
         style="font-family:none;mix-blend-mode:normal;fill:#d0d0ce;fill-opacity:1;fill-rule:nonzero;stroke:none;stroke-width:3.77952766;stroke-linecap:butt;stroke-linejoin:miter;stroke-miterlimit:9.86666679;stroke-dasharray:none;stroke-dashoffset:0;stroke-opacity:1"
         inkscape:connector-curvature="0"
         id="path6259"
         d="m 102.1806,609.14823 0.37167,-1.34335" />
      <path
         style="font-family:none;mix-blend-mode:normal;fill:#d0d0ce;fill-opacity:1;fill-rule:nonzero;stroke:none;stroke-width:3.77952766;stroke-linecap:butt;stroke-linejoin:miter;stroke-miterlimit:9.86666679;stroke-dasharray:none;stroke-dashoffset:0;stroke-opacity:1"
         inkscape:connector-curvature="0"
         id="path6263"
         d="m 120.08588,654.46384 -0.23744,4.04005" />
      <path
         style="font-family:none;mix-blend-mode:normal;fill:#d0d0ce;fill-opacity:1;fill-rule:nonzero;stroke:none;stroke-width:3.77952766;stroke-linecap:butt;stroke-linejoin:miter;stroke-miterlimit:9.86666679;stroke-dasharray:none;stroke-dashoffset:0;stroke-opacity:1"
         inkscape:connector-curvature="0"
         id="path6267"
         d="m 111.38774,752.9949 -1.28214,-3.19595" />
      <path
         style="font-family:none;mix-blend-mode:normal;fill:#d0d0ce;fill-opacity:1;fill-rule:nonzero;stroke:none;stroke-width:3.77952766;stroke-linecap:butt;stroke-linejoin:miter;stroke-miterlimit:9.86666679;stroke-dasharray:none;stroke-dashoffset:0;stroke-opacity:1"
         inkscape:connector-curvature="0"
         id="path6271"
         d="m 149.88311,772.20491 0.18709,0.29522" />
      <path
         style="font-family:none;mix-blend-mode:normal;fill:#d0d0ce;fill-opacity:1;fill-rule:nonzero;stroke:none;stroke-width:3.77952766;stroke-linecap:butt;stroke-linejoin:miter;stroke-miterlimit:9.86666679;stroke-dasharray:none;stroke-dashoffset:0;stroke-opacity:1"
         inkscape:connector-curvature="0"
         id="path6275"
         d="m 243.33646,849.71127 0.92827,0.3618" />
      <path
         style="font-family:none;mix-blend-mode:normal;fill:#d0d0ce;fill-opacity:1;fill-rule:nonzero;stroke:none;stroke-width:3.77952766;stroke-linecap:butt;stroke-linejoin:miter;stroke-miterlimit:9.86666679;stroke-dasharray:none;stroke-dashoffset:0;stroke-opacity:1"
         inkscape:connector-curvature="0"
         id="path6281"
         d="m 329.28613,888.41151 -5.97929,0.3427" />
      <path
         style="font-family:none;mix-blend-mode:normal;fill:#d0d0ce;fill-opacity:1;fill-rule:nonzero;stroke:none;stroke-width:3.77952766;stroke-linecap:butt;stroke-linejoin:miter;stroke-miterlimit:9.86666679;stroke-dasharray:none;stroke-dashoffset:0;stroke-opacity:1"
         inkscape:connector-curvature="0"
         id="path6285"
         d="m 408.29824,745.99431 -4.00758,0.87431" />
      <path
         style="font-family:none;mix-blend-mode:normal;fill:#d0d0ce;fill-opacity:1;fill-rule:nonzero;stroke:none;stroke-width:3.77952766;stroke-linecap:butt;stroke-linejoin:miter;stroke-miterlimit:9.86666679;stroke-dasharray:none;stroke-dashoffset:0;stroke-opacity:1"
         inkscape:connector-curvature="0"
         id="path6289"
         d="m 385.60339,724.70143 4.75406,-1.03717" />
      <path
         style="font-family:none;mix-blend-mode:normal;fill:#d0d0ce;fill-opacity:1;fill-rule:nonzero;stroke:none;stroke-width:3.77952766;stroke-linecap:butt;stroke-linejoin:miter;stroke-miterlimit:9.86666679;stroke-dasharray:none;stroke-dashoffset:0;stroke-opacity:1"
         inkscape:connector-curvature="0"
         id="path6293"
         d="m 307.72094,691.76084 -2.02571,-9.28522" />
      <path
         style="font-family:none;mix-blend-mode:normal;fill:#d0d0ce;fill-opacity:1;fill-rule:nonzero;stroke:none;stroke-width:3.77952766;stroke-linecap:butt;stroke-linejoin:miter;stroke-miterlimit:9.86666679;stroke-dasharray:none;stroke-dashoffset:0;stroke-opacity:1"
         inkscape:connector-curvature="0"
         id="path6297"
         d="m 308.12011,693.59048 -0.87258,-3.99964" />
      <path
         style="font-family:none;mix-blend-mode:normal;fill:#d0d0ce;fill-opacity:1;fill-rule:nonzero;stroke:none;stroke-width:3.77952766;stroke-linecap:butt;stroke-linejoin:miter;stroke-miterlimit:9.86666679;stroke-dasharray:none;stroke-dashoffset:0;stroke-opacity:1"
         inkscape:connector-curvature="0"
         id="path6301"
         d="m 361.82547,638.34501 6.7297,-4.2757" />
      <path
         style="font-family:none;mix-blend-mode:normal;fill:#d0d0ce;fill-opacity:1;fill-rule:nonzero;stroke:none;stroke-width:3.77952766;stroke-linecap:butt;stroke-linejoin:miter;stroke-miterlimit:9.86666679;stroke-dasharray:none;stroke-dashoffset:0;stroke-opacity:1"
         inkscape:connector-curvature="0"
         id="path6305"
         d="m 268.98316,588.22881 0.0949,0.4352" />
      <path
         style="font-family:none;mix-blend-mode:normal;fill:#d0d0ce;fill-opacity:1;fill-rule:nonzero;stroke:none;stroke-width:3.77952766;stroke-linecap:butt;stroke-linejoin:miter;stroke-miterlimit:9.86666679;stroke-dasharray:none;stroke-dashoffset:0;stroke-opacity:1"
         inkscape:connector-curvature="0"
         id="path6309"
         d="m 261.14009,672.57366 -0.91817,-4.2086" />
      <path
         style="font-family:none;mix-blend-mode:normal;fill:#d0d0ce;fill-opacity:1;fill-rule:nonzero;stroke:none;stroke-width:3.77952766;stroke-linecap:butt;stroke-linejoin:miter;stroke-miterlimit:9.86666679;stroke-dasharray:none;stroke-dashoffset:0;stroke-opacity:1"
         inkscape:connector-curvature="0"
         id="path6313"
         d="m 249.41864,796.80654 6.26802,-1.36746" />
      <path
         style="font-family:none;mix-blend-mode:normal;fill:#d0d0ce;fill-opacity:1;fill-rule:nonzero;stroke:none;stroke-width:3.77952766;stroke-linecap:butt;stroke-linejoin:miter;stroke-miterlimit:9.86666679;stroke-dasharray:none;stroke-dashoffset:0;stroke-opacity:1"
         inkscape:connector-curvature="0"
         id="path6317"
         d="m 491.78545,827.56544 0.86442,3.96223" />
      <path
         style="font-family:none;mix-blend-mode:normal;fill:#d0d0ce;fill-opacity:1;fill-rule:nonzero;stroke:none;stroke-width:3.77952766;stroke-linecap:butt;stroke-linejoin:miter;stroke-miterlimit:9.86666679;stroke-dasharray:none;stroke-dashoffset:0;stroke-opacity:1"
         inkscape:connector-curvature="0"
         id="path6321"
         d="m 522.60568,745.55562 -1.20121,3.08499" />
      <path
         style="font-family:none;mix-blend-mode:normal;fill:#d0d0ce;fill-opacity:1;fill-rule:nonzero;stroke:none;stroke-width:3.77952766;stroke-linecap:butt;stroke-linejoin:miter;stroke-miterlimit:9.86666679;stroke-dasharray:none;stroke-dashoffset:0;stroke-opacity:1"
         inkscape:connector-curvature="0"
         id="path6327"
         d="m 430.46751,560.46939 1.3132,-5.00221" />
      <path
         style="font-family:none;mix-blend-mode:normal;fill:#d0d0ce;fill-opacity:1;fill-rule:nonzero;stroke:none;stroke-width:3.77952766;stroke-linecap:butt;stroke-linejoin:miter;stroke-miterlimit:9.86666679;stroke-dasharray:none;stroke-dashoffset:0;stroke-opacity:1"
         inkscape:connector-curvature="0"
         id="path6331"
         d="m 432.39657,493.89437 12.66143,10.99941 14.90734,-56.78471 24.80066,6.51076 -19.44954,74.08678 6.87796,10.2488 c 29.13849,43.41888 41.65986,97.0847 35.08115,150.35552 -1.39662,11.30904 -6.33802,30.91059 -11.31324,46.20684 l -5.8368,2.2335 -13.43009,-0.68528 -6.68945,-3.98712 c 13.85366,-35.04532 17.59561,-74.05667 9.44157,-112.63907 -0.70291,-3.32593 -1.5536,-6.78878 -2.52094,-10.30499 l 4.12205,-6.44965 6.17245,-12.94703 -7.49383,9.17158 -4.2516,5.19787 c -4.34646,-14.3996 -10.37163,-29.02581 -15.99582,-38.29331 l -2.90954,-4.79433 -17.12979,65.25041 -38.3702,-10.07309 2.28629,-9.90059 2.95399,-14.21394 14.5896,3.83012 9.56728,-36.44347 7.70329,-1.53313 13.40274,-3.58413 -12.38706,-0.28477 -7.40577,0.39982 5.61651,-21.3943 -7.38786,-7.78406 c -7.76332,-8.17964 -15.97305,-15.51561 -24.67683,-22.03584 l -0.49561,-1.51617 4.42978,-14.67566 4.42512,-8.8855 c 6.30726,4.43355 12.43231,9.26967 18.70475,14.71872 z" />
      <path
         style="font-family:none;mix-blend-mode:normal;fill:#d0d0ce;fill-opacity:1;fill-rule:nonzero;stroke:none;stroke-width:3.77952766;stroke-linecap:butt;stroke-linejoin:miter;stroke-miterlimit:9.86666679;stroke-dasharray:none;stroke-dashoffset:0;stroke-opacity:1"
         inkscape:connector-curvature="0"
         id="path6333"
         d="m 476.92662,610.13481 -1.45092,-5.02722" />
      <path
         style="font-family:none;mix-blend-mode:normal;fill:#d0d0ce;fill-opacity:1;fill-rule:nonzero;stroke:none;stroke-width:3.77952766;stroke-linecap:butt;stroke-linejoin:miter;stroke-miterlimit:9.86666679;stroke-dasharray:none;stroke-dashoffset:0;stroke-opacity:1"
         inkscape:connector-curvature="0"
         id="path6337"
         d="m 278.18167,449.94241 3.46549,-0.65705" />
      <path
         style="font-family:none;mix-blend-mode:normal;fill:#d0d0ce;fill-opacity:1;fill-rule:nonzero;stroke:none;stroke-width:3.77952766;stroke-linecap:butt;stroke-linejoin:miter;stroke-miterlimit:9.86666679;stroke-dasharray:none;stroke-dashoffset:0;stroke-opacity:1"
         inkscape:connector-curvature="0"
         id="path6341"
         d="m 472.43927,859.1841 c -3.46843,-15.89819 -6.44762,-28.87503 -6.62082,-28.83725 -0.1732,0.0378 -3.45916,2.76738 -7.30239,6.06579 -27.60812,23.6944 -58.85521,39.06089 -95.83331,47.12822 -11.29017,2.46312 -22.40524,4.08862 -33.39662,4.87065 l -0.39688,-0.35683 -5.79161,-6.44229 -2.54096,-11.08526 -1.45568,11.24907 3.79329,6.52419 0.41256,0.45382 c -34.90614,1.5155 -68.65004,-5.55398 -102.89869,-21.39808 -10.59607,-4.90197 -31.45085,-17.61257 -39.10432,-23.83341 l -5.44321,-4.42431 -67.94943,14.82418 -5.46541,-25.05173 25.13208,-5.48294 c 13.8226,-3.01561 24.91195,-5.77577 24.64307,-6.1333 -0.26913,-0.35788 -3.95872,-4.88988 -8.19956,-10.07151 -13.92669,-17.01623 -24.6617,-34.78263 -32.63363,-54.18822 l 2.55338,-9.67694 -3.83553,6.48099 c -4.26328,-10.88563 -7.6804,-22.29254 -10.324944,-34.37332 -2.0326,-9.29087 -4.06934,-20.89896 -4.52325,-25.79642 -2.55822,-27.59549 -0.0976,-54.79106 6.923194,-80.48097 l 2.99888,-0.81456 -2.62722,-0.5288 c 12.08427,-43.1493 37.06409,-81.97875 72.75334,-111.2163 18.49053,-15.14798 37.08727,-26.11932 60.36438,-35.61263 8.19973,-3.34416 26.46776,-7.91583 42.51169,-11.03354 l 9.73009,7.95887 -6.2646,-8.61592 c 4.2807,-0.79072 8.32815,-1.45811 11.89104,-1.94737 l 6.38689,4.46466 6.55132,9.23312 -2.56412,-9.55275 -5.38998,-4.74187 c 1.33875,-0.13154 2.55665,-0.2224 3.63162,-0.26775 15.71275,-0.66301 29.2757,-0.1335 42.90413,1.80316 l 0.094,9.92598 2.72004,15.08639 1.13025,1.12558 c -24.45692,-4.23374 -49.27635,-3.51292 -75.11383,2.12391 -31.31919,6.83275 -55.45904,18.1706 -80.11276,37.62682 -17.00875,13.42298 -28.43779,25.8442 -40.68476,44.21662 -13.98217,20.97544 -22.41831,40.1608 -28.06827,63.83248 -2.55247,10.69406 -4.19205,21.47696 -4.93685,32.24949 l -0.0526,0.0479 -10.32167,2.9057 10.13687,1.08647 c -1.93146,39.89477 8.38727,79.47687 30.03467,113.70103 l -0.67876,1.12035 0.86586,-0.82514 c 1.08112,1.70256 2.19032,3.3918 3.32748,5.0671 7.41089,10.91786 16.44144,21.81825 24.12528,29.12041 l 4.96707,4.72038 66.92861,-14.60147 1.28635,2.63043 14.32105,3.77893 5.40716,9.82435 -1.49908,-10.67696 -12.36702,-4.20523 -0.88045,-2.71898 30.79275,-6.7179 -25.33932,-116.14752 1.249,-1.94076 8.38183,-8.61864 -9.23443,4.71056 -1.31457,1.64024 -27.13546,-124.38047 25.05179,-5.46542 10.8449,49.70964 -0.87204,1.34125 0.96698,-0.90606 47.91851,219.64349 -108.37828,23.73478 7.5295,4.439 c 8.70362,5.13122 17.80631,9.54555 27.18864,13.22999 l -0.80032,4.09827 1.72859,-3.73647 c 42.0222,16.25496 89.55352,17.9166 131.92542,3.82397 l 0.001,0.004 c 13.56011,-4.51003 27.17527,-10.65911 39.24485,-17.72435 11.74487,-6.87518 30.01605,-20.98119 38.44281,-29.67931 l 5.35515,-5.52752 -13.25485,-63.19679 -37.68132,8.22074 -0.34876,-0.65409 -5.67134,-8.01062 1.76327,8.86322 0.24926,0.6758 -55.65391,12.14173 8.82875,40.46825 -25.05179,5.46542 -18.70854,-85.75411 25.05179,-5.46542 4.41438,20.23412 42.43205,-9.25719 5.03954,4.47505 16.11871,3.74048 -12.21063,-4.59308 -4.19356,-4.65961 50.13037,-10.93669 -12.4023,-56.84828 -26.14513,5.70395 1.06365,2.0391 c 0.58496,1.12149 3.54402,5.09058 6.57554,8.82019 3.03157,3.7296 5.22614,7.2264 4.87688,7.77057 -0.3493,0.54424 -19.57998,-1.63489 -42.73482,-4.84247 l -42.09976,-5.83202 7.20053,35.52338 -25.00927,5.45615 -3.69302,-16.92767 0.38582,-0.37923 3.74048,-16.11871 -4.59308,12.21063 -0.4058,0.28767 -13.0919,-60.00919 25.05179,-5.46542 3.88887,17.82535 c 2.2876,10.48565 4.2617,17.74395 4.7948,17.62765 0.47954,-0.10462 15.54845,-9.53179 33.93439,-21.22421 l 13.78995,7.2247 11.27126,-0.01 10.98243,8.60383 -7.60556,-10.74784 -9.58282,-1.06218 -12.12555,-8.28438 c 19.58861,-12.40235 31.03839,-19.18048 31.70263,-18.75416 0.71454,0.4586 0.47044,2.83778 -0.67214,6.54355 -0.98718,3.20264 -2.04254,7.80358 -2.34521,10.22442 l -0.5503,4.40144 45.59518,-9.94727 0.11949,0.23579 6.3349,3.46388 31.8905,143.88552 6.02787,-10.90428 c 19.77684,-35.77564 27.59592,-75.61541 23.9043,-114.32646 l 7.77061,0.51334 12.27581,-5.49011 4.18528,-4.64114 c 1.06345,6.715 1.77213,12.74752 1.93012,17.12969 1.14473,31.755 -3.51538,61.294 -14.11854,89.1521 l -10.60475,6.46289 9.40353,-3.3779 c -4.73388,11.88903 -10.5608,23.47282 -17.49166,34.79351 -4.21428,6.88345 -9.67805,14.99427 -12.14175,18.02404 l -4.47948,5.50877 4.49387,20.59851 -0.28965,0.16067 -12.4033,10.28478 13.25591,-6.3767 0.30146,-0.10652 11.14756,51.09692 -25.05179,5.46542 z" />
      <path
         style="font-family:none;mix-blend-mode:normal;fill:#d0d0ce;fill-opacity:1;fill-rule:nonzero;stroke:none;stroke-width:3.77952766;stroke-linecap:butt;stroke-linejoin:miter;stroke-miterlimit:9.86666679;stroke-dasharray:none;stroke-dashoffset:0;stroke-opacity:1"
         inkscape:connector-curvature="0"
         id="path6343"
         d="m 293.5382,447.33799 4.98412,-0.59683" />
    </g>
    <g
       id="g2160"
       inkscape:label="led"
       style="fill:#d0d0ce;fill-opacity:1">
      <path
         d="m 376.3906,1555.695 c -0.50451,-0.8315 -0.85974,-1.8631 -0.78891,-2.2932 0.0476,-0.289 4.4257,-4.7188 10.85427,-11.0239 l 0.67835,1.9917 2.41953,0.992 -0.22516,2.0608 -0.078,2.0349 -1.99985,1.9241 4.24159,0.5893 0.53661,0.4441 -0.58139,2.7529 1.31082,2.1155 0.41513,2.268 c -15.35505,-2.2761 -15.9354,-2.4599 -16.78302,-3.8562 z"
         id="path9766 1 1 1"
         stroke-miterlimit="4"
         inkscape:connector-curvature="0"
         style="font-family:none;mix-blend-mode:normal;fill:#d0d0ce;fill-opacity:1;fill-rule:nonzero;stroke:none;stroke-width:0.0462983;stroke-linecap:round;stroke-linejoin:round;stroke-miterlimit:4;stroke-dasharray:none;stroke-dashoffset:0" />
      <path
         d="m 486.37302,1570.953 c -0.58311,1.5109 -1.25467,2.6292 -1.49227,2.4852 -2.40671,-1.4592 -4.96383,-3.0033 -7.52444,-4.5446 l 0.19786,-0.4163 -0.17984,-2.9525 -0.60265,2.4822 -0.25212,0.383 c -2.64803,-1.5929 -5.28269,-3.1728 -7.74129,-4.6426 l 0.87047,-0.5061 1.93523,-3.8071 3.36069,0.1664 c 4.87762,2.9672 9.01224,5.5825 11.02919,6.9645 l 0.0906,0.5144 1.14782,0.4025 c 0.0482,0.046 0.0751,0.08 0.0797,0.1002 0.0803,0.3429 -0.33602,1.8601 -0.91912,3.3711 z"
         id="path9770 1 1 1"
         stroke-miterlimit="4"
         inkscape:connector-curvature="0"
         style="font-family:none;mix-blend-mode:normal;fill:#d0d0ce;fill-opacity:1;fill-rule:nonzero;stroke:none;stroke-width:0.0462983;stroke-linecap:round;stroke-linejoin:round;stroke-miterlimit:4;stroke-dasharray:none;stroke-dashoffset:0" />
      <path
         d="m 389.24251,1584.8237 3.01515,-17.8681 -60.56636,-8.6509 1.18536,-7.0247 5.70425,0.7825 -0.87446,1.9071 1.56887,-1.8119 23.74986,3.2579 11.05207,1.5161 -0.0666,0.4712 1.92034,1.4965 1.44192,3.3369 -0.52718,-3.2114 -1.46298,-1.4338 0.13705,-0.4615 17.65382,2.4216 0.4598,-2.5838 2.95059,-2.3459 -2.7956,1.4749 2.56888,-14.4359 c 0.14353,-0.8065 0.28069,-1.5767 0.41193,-2.3124 l 2.32617,-0.4429 2.19164,-1.3179 2.79778,0.5254 0.46627,-0.5328 -9.68959,57.4214 2.38116,-1.2655 c 1.09386,-0.5817 8.64661,-4.5714 17.86879,-9.4401 l 0.25792,0.1878 3.50735,1.0844 1.10016,2.0838 -0.27802,-2.5178 -3.09627,-1.3014 -0.21543,-0.2103 c 1.41882,-0.7489 2.87092,-1.5155 4.33965,-2.2907 l 21.10299,-11.1389 -34.65848,-34.8488 2.07631,0.044 2.09934,0.1875 1.07061,-2.3859 2.05022,-0.6963 c 1.88708,1.8599 3.94233,3.8981 6.10466,6.0551 l -0.0306,2.205 -0.49822,2.2134 1.14009,-1.5718 0.23122,-2.0056 c 1.08835,1.0873 2.20121,2.202 3.33107,3.3369 l 20.48344,20.5749 2.88099,-16.091 c 2.77508,-15.499 2.9386,-16.125 4.44565,-17.0141 2.02994,-1.1977 3.1246,-1.0011 4.4606,0.8008 0.89423,1.2062 0.94693,2.0591 -0.91287,13.277 l -0.85819,0.043 -2.46546,1.0275 -1.70069,1.4624 1.54996,-0.5645 2.39011,-0.5786 0.84163,0.068 c -0.23356,1.3983 -0.49325,2.9409 -0.7807,4.6445 l -3.02285,17.9137 8.66363,1.2375 0.52323,2.6098 0.32821,-2.4882 51.05129,7.2919 -1.18746,7.0375 -60.56636,-8.651 -2.94484,17.4515 c -0.12821,0.7597 -0.25153,1.4881 -0.37029,2.1863 l -0.32006,0.075 -2.01002,1.2822 1.85652,-0.3847 0.3136,-0.034 c -2.05975,12.0578 -2.68713,14.6047 -3.66839,15.6037 -1.52056,1.5489 -3.91761,1.3274 -5.1146,-0.4727 -0.76905,-1.1566 -0.54378,-3.3186 1.78311,-17.1079 1.46491,-8.6813 2.46855,-15.8119 2.22975,-15.846 -0.23879,-0.034 -12.07401,6.0886 -26.30159,13.6058 -14.22747,7.5173 -26.43532,13.5868 -27.1285,13.4878 -0.69289,-0.099 -1.6443,-0.6986 -2.11402,-1.3314 -0.73455,-0.9918 -0.43488,-3.631 2.16176,-19.0189 z"
         stroke-miterlimit="10"
         id="path12008"
         inkscape:connector-curvature="0"
         style="font-family:none;mix-blend-mode:normal;fill:#d0d0ce;fill-opacity:1;fill-rule:nonzero;stroke:none;stroke-width:0.22916543;stroke-linecap:butt;stroke-linejoin:miter;stroke-miterlimit:10;stroke-dasharray:none;stroke-dashoffset:0" />
      <g
         style="fill:#d0d0ce;fill-opacity:1;stroke:none"
         transform="matrix(-0.21465959,0.08929688,-0.08692789,-0.20849015,719.18229,1545.1414)"
         id="g12616">
        <path
           style="font-family:none;mix-blend-mode:normal;fill:#d0d0ce;fill-opacity:1;fill-rule:nonzero;stroke:none;stroke-width:0.20203;stroke-linecap:round;stroke-linejoin:round;stroke-miterlimit:4;stroke-dasharray:none;stroke-dashoffset:0"
           inkscape:connector-curvature="0"
           stroke-miterlimit="4"
           id="path9768 1 1 1"
           d="m 1154.9939,477.95792 c 3.8602,5.54991 7.1815,10.51757 7.3791,11.04187 0.1012,0.28245 -8.2708,4.61379 -21.6494,11.26705 l -0.035,-0.0467 -12.2014,-6.90895 8.6117,8.67357 0.032,0.0647 c -11.3918,5.64191 -25.8033,12.6778 -41.4524,20.21982 l -21.2077,10.22098 -2.4448,-2.17412 -0.5354,-12.65256 2.6655,-9.85104 9.2769,-5.90208 1.9094,-7.49805 c 1.1848,-0.57207 2.3746,-1.13871 3.5631,-1.70922 13.3279,-6.39352 25.7284,-12.19633 35.5913,-16.68411 l 2.1544,0.15309 14.6267,-7.35061 6.5846,-0.58963 c 1.5992,1.99351 4.3453,5.72398 7.1315,9.72518 z" />
        <path
           style="font-family:none;mix-blend-mode:normal;fill:#d0d0ce;fill-opacity:1;fill-rule:nonzero;stroke:none;stroke-width:1;stroke-linecap:butt;stroke-linejoin:miter;stroke-miterlimit:10;stroke-dasharray:none;stroke-dashoffset:0"
           inkscape:connector-curvature="0"
           id="path12014"
           stroke-miterlimit="10"
           d="m 1025.1349,550.69463 10.6435,9.86265 10.6438,9.8629 -55.01102,0.33731 c -30.25661,0.18547 -55.09069,-0.24092 -55.18766,-0.9474 -0.0968,-0.70528 14.58456,-16.5503 32.62212,-35.21086 2.30639,-2.38597 4.56496,-4.72382 6.75112,-6.98799 l 10.4085,1.98747 12.04735,-1.77142 11.99419,4.31111 10.1995,6.20006 -7.4227,-9.07921 -10.6058,-5.75069 -10.65899,0.33184 -9.13332,-3.30609 c 11.47236,-11.89745 19.68531,-20.45902 20.00121,-20.86347 0.4306,-0.55146 1.707,5.02711 2.836,12.39857 l 2.0533,13.40149 12.0962,-4.64884 c 6.3969,-2.45942 35.8182,-14.0881 66.441,-26.26076 l -2.4202,7.34916 -9.6605,5.25061 -3.3361,9.64467 -0.3353,12.65936 2.2896,2.33699 z" />
      </g>
      <path
         d="m 500.03975,1561.9345 c 0.15411,-0.042 -0.0954,-1.5082 -0.55366,-3.2597 l -0.83322,-3.1845 10.13559,7.5073 c 5.57454,4.129 10.06126,7.6314 9.97037,7.7829 -0.096,0.1602 -5.37938,1.0659 -10.61975,1.8859 l -0.4477,-0.7952 -1.88861,-2.5071 0.97053,2.6458 0.32965,0.8176 c -4.04846,0.6255 -7.86259,1.1661 -8.99097,1.2325 l -1.60905,0.094 1.23767,-2.1684 c 0.68092,-1.1927 1.16122,-2.4315 1.06784,-2.7532 -0.0922,-0.3216 -7.35954,-2.5634 -16.14718,-4.9816 -0.71998,-0.1982 -1.43017,-0.395 -2.12744,-0.5897 l 3.2993,-0.7318 0.82092,-4.1576 0.70275,-0.7153 c 8.13709,2.2053 14.5613,3.9103 14.68314,3.8775 z"
         stroke-miterlimit="10"
         id="path12020"
         inkscape:connector-curvature="0"
         style="font-family:none;mix-blend-mode:normal;fill:#d0d0ce;fill-opacity:1;fill-rule:nonzero;stroke:none;stroke-width:0.22916543;stroke-linecap:butt;stroke-linejoin:miter;stroke-miterlimit:10;stroke-dasharray:none;stroke-dashoffset:0" />
    </g>
    <path
       style="fill:#fe5000;fill-opacity:1;fill-rule:nonzero;stroke:none;stroke-width:4.63567352;stroke-linecap:round;stroke-linejoin:round;stroke-miterlimit:4;stroke-dasharray:none;stroke-opacity:1;paint-order:normal"
       d="m 158.21496,1498.2406 6.84501,37.1699 234.54439,-43.1924 -6.84501,-37.1699 z m 3.71394,4.3902 8.29797,-1.5281 0.0365,-0.01 c 1.17492,-0.2164 2.27806,-0.2043 3.30931,0.036 1.03124,0.2403 1.94847,0.6922 2.75361,1.3538 0.82509,0.6325 1.52289,1.4664 2.09289,2.5002 0.56549,1.0094 0.97261,2.1864 1.22053,3.5327 0.24341,1.3218 0.28008,2.5546 0.11126,3.6992 -0.16883,1.1446 -0.52384,2.1722 -1.06495,3.0817 -0.51666,0.905 -1.21052,1.666 -2.084,2.2824 -0.87799,0.5919 -1.90447,0.9961 -3.07938,1.2125 l -0.0365,0.01 -2.0207,0.3721 1.77148,9.6196 -6.27727,1.156 z m 18.24785,-3.3604 16.74192,-3.0831 1.13619,6.1697 -10.57414,1.9473 0.81109,4.4044 7.78319,-1.4333 1.13617,6.1697 -7.78318,1.4333 0.81109,4.4044 10.57415,-1.9472 1.13619,6.1697 -16.74192,3.0831 z m 19.166,-3.5295 8.29605,-1.5278 0.0384,-0.01 c 1.56655,-0.2885 2.90889,-0.2811 4.02709,0.019 1.13816,0.2713 2.088,0.7544 2.84867,1.4495 0.78066,0.666 1.40406,1.5115 1.87163,2.5389 0.46308,1.0029 0.80251,2.093 1.01888,3.268 0.22537,1.2238 0.21775,2.351 -0.0226,3.3822 -0.21583,1.0268 -0.54332,1.9231 -0.98459,2.6877 -0.42131,0.7355 -0.88372,1.3256 -1.38358,1.7721 -0.50439,0.4218 -0.91525,0.663 -1.23345,0.7216 l 7.55354,9.8833 -7.08593,1.3049 -5.30898,-8.2094 -0.073,0.013 1.63635,8.8858 -6.16776,1.1358 z m 19.2025,-3.5363 16.74192,-3.0831 1.13619,6.1698 -10.57414,1.9473 0.81109,4.4044 7.78319,-1.4333 1.13617,6.1697 -7.78318,1.4333 1.94728,10.5742 -6.16777,1.1358 z m 28.63759,-5.2737 0.0365,-0.01 c 1.44417,-0.266 2.85515,-0.234 4.23164,0.095 1.40098,0.3242 2.70073,0.9207 3.89814,1.7885 1.05246,0.7678 1.90651,1.6971 2.56345,2.7908 0.65697,1.0938 1.11252,2.264 1.36688,3.5078 l 1.17651,6.3886 c 0.24341,1.3218 0.28295,2.7052 0.11927,4.1526 -0.14371,1.4184 -0.60971,2.7313 -1.39947,3.9397 -0.80524,1.2618 -1.80498,2.2944 -2.99861,3.0962 -1.16913,0.7974 -2.47618,1.3299 -3.92034,1.5958 l -0.0365,0.01 c -1.41968,0.2615 -2.83066,0.2296 -4.23164,-0.095 -1.37648,-0.3285 -2.6759,-0.9233 -3.89777,-1.7865 -1.14393,-0.8522 -2.04263,-1.889 -2.69767,-3.1097 -0.63053,-1.2252 -1.09338,-2.5699 -1.38831,-4.034 l -1.1765,-6.3887 c -0.21637,-1.1749 -0.20275,-2.4045 0.0414,-3.6896 0.2397,-1.3095 0.7019,-2.508 1.38734,-3.5958 0.8342,-1.2419 1.83617,-2.2624 3.0053,-3.0598 1.16915,-0.7973 2.47619,-1.3299 3.92034,-1.5958 z m 12.11658,-2.2313 8.29797,-1.5281 0.0365,-0.01 c 1.56655,-0.2885 2.90888,-0.2811 4.02709,0.019 1.13817,0.2713 2.088,0.7544 2.84868,1.4495 0.78064,0.666 1.40404,1.5115 1.87163,2.5389 0.46307,1.0029 0.80249,2.093 1.01887,3.268 0.22537,1.2238 0.21774,2.351 -0.0226,3.3822 -0.21583,1.0268 -0.54333,1.9231 -0.9846,2.6877 -0.42131,0.7355 -0.88179,1.3253 -1.38166,1.7717 -0.50438,0.4218 -0.91524,0.663 -1.23345,0.7216 l 7.55162,9.8837 -7.08593,1.3049 -5.30897,-8.2094 -0.073,0.013 1.63636,8.8858 -6.16777,1.1358 z m 19.166,-3.5295 6.27726,-1.156 8.57601,14.8208 2.77031,-16.9103 6.16777,-1.1358 5.03075,27.318 -6.53465,1.2034 -1.75805,-9.5466 -1.58419,10.1621 -3.96459,0.7301 -5.22738,-9.2115 1.81216,9.8404 -6.53465,1.2034 z m 33.37435,-6.1461 8.22498,-1.5147 13.03483,25.8441 -7.01293,1.2915 -3.78602,-6.7443 -5.32453,0.9806 -1.09673,7.6434 -7.01293,1.2914 z m 17.80606,-3.2791 6.27919,-1.1563 9.77479,12.0561 -2.46798,-13.4017 6.53466,-1.2034 5.03075,27.3181 -6.24077,1.1492 -9.81801,-12.0858 2.47469,13.4381 -6.53657,1.2038 z m 32.31022,-5.95 0.0365,-0.01 c 1.49311,-0.2749 2.81643,-0.3034 3.97006,-0.086 1.15363,0.2178 2.17145,0.5871 3.05195,1.1082 0.90498,0.5166 1.66693,1.1482 2.28525,1.8948 0.6428,0.742 1.17448,1.505 1.59699,2.2877 l -4.77505,3.9535 c -0.228,-0.4135 -0.51945,-0.8275 -0.87434,-1.243 -0.33043,-0.42 -0.71331,-0.7799 -1.14809,-1.0795 -0.43478,-0.2995 -0.9049,-0.5151 -1.41054,-0.6498 -0.50564,-0.1346 -1.01211,-0.1427 -1.52163,-0.024 -1.23023,0.3283 -2.14288,1.0133 -2.73488,2.0587 -0.57205,1.0164 -0.73308,2.1986 -0.48516,3.5449 l 0.98019,5.3226 c 0.24792,1.3462 0.83597,2.4154 1.76606,3.2058 0.92558,0.766 2.02281,1.0833 3.28917,0.9513 1.06611,-0.1201 1.88498,-0.5505 2.45766,-1.2886 0.59714,-0.7428 1.00027,-1.5765 1.20967,-2.5008 l 5.87054,1.9952 c -0.13916,0.4812 -0.35383,1.1022 -0.64373,1.8642 -0.26542,0.7575 -0.70403,1.5336 -1.31663,2.3297 -0.61262,0.7961 -1.44918,1.5461 -2.50945,2.2475 -1.04031,0.6725 -2.39262,1.1616 -4.05707,1.4681 l -0.0365,0.01 c -1.86028,0.3426 -3.47971,0.3366 -4.86071,-0.016 -1.35652,-0.3576 -2.5294,-0.9508 -3.51746,-1.7811 -0.96808,-0.8593 -1.7564,-1.904 -2.36246,-3.1337 -0.61058,-1.2542 -1.08323,-2.5847 -1.41811,-3.9909 l -1.04138,-5.6549 c -0.22343,-1.3508 -0.24653,-2.7123 -0.0693,-4.0862 0.19718,-1.4029 0.61729,-2.6951 1.2602,-3.8763 0.66739,-1.1858 1.58109,-2.2025 2.7412,-3.0489 1.15562,-0.8708 2.57813,-1.4618 4.26707,-1.7728 z m 12.15307,-2.2381 16.74384,-3.0834 1.13619,6.1697 -10.57415,1.9473 0.8111,4.4044 7.78318,-1.4333 1.13618,6.1697 -7.78319,1.4333 0.8111,4.4044 10.57414,-1.9472 1.13619,6.1697 -16.74384,3.0835 z"
       id="rect1559"
       inkscape:connector-curvature="0"
       inkscape:label="performance" />
    <path
       style="fill:#fe5000;fill-opacity:1;fill-rule:nonzero;stroke:none;stroke-width:4.05643845;stroke-linecap:round;stroke-linejoin:round;stroke-miterlimit:4;stroke-dasharray:none;stroke-opacity:1;paint-order:normal"
       d="m 229.35521,1522.5849 6.24996,37.2746 228.49579,-38.3127 -6.24996,-37.2746 z m 5.49858,4.14 5.52251,-0.926 c 2.13552,-0.3581 4.07377,-0.3177 5.81317,0.1224 1.73529,0.4156 3.24469,1.1469 4.53052,2.1932 1.2817,1.0216 2.33521,2.3328 3.15922,3.936 0.81989,1.5786 1.39145,3.3379 1.71659,5.277 0.30869,1.841 0.39633,3.6319 0.25893,5.3711 -0.14154,1.7145 -0.5873,3.2771 -1.33468,4.6895 -0.74741,1.4124 -1.83326,2.6159 -3.2562,3.6116 -1.42293,0.9957 -3.24981,1.6817 -5.48351,2.0562 l -0.81095,0.136 -5.52251,0.926 z m 21.39277,-3.587 16.78906,-2.8151 1.03709,6.1851 -10.60393,1.778 0.74092,4.4188 7.80511,-1.3087 1.03708,6.1852 -7.8051,1.3087 0.7409,4.4187 10.60393,-1.778 1.03708,6.1852 -16.78905,2.8151 z m 29.52918,-4.9513 0.0366,-0.01 c 1.68155,-0.2059 3.07951,-0.1393 4.19686,0.2032 1.13781,0.314 2.06969,0.752 2.79447,1.3119 0.74933,0.5557 1.34006,1.1377 1.77029,1.7469 0.43022,0.6092 0.79778,1.078 1.10498,1.405 l -4.51976,4.2018 c -0.168,-0.2495 -0.36605,-0.532 -0.59548,-0.8468 -0.20492,-0.319 -0.47922,-0.6011 -0.82315,-0.8462 -0.31941,-0.2493 -0.70371,-0.4367 -1.15392,-0.5631 -0.45432,-0.1509 -1.00072,-0.1729 -1.63892,-0.066 -1.22731,0.2058 -2.13881,0.788 -2.73527,1.746 -0.57602,0.9293 -0.75219,2.0691 -0.52582,3.4191 l 0.89531,5.3396 c 0.11112,0.6627 0.3262,1.2685 0.64589,1.8205 0.31558,0.5276 0.69307,0.9699 1.13122,1.3254 0.45859,0.3269 0.96574,0.57 1.52237,0.729 0.55664,0.1591 1.14312,0.1866 1.75677,0.084 0.86325,-0.1194 1.52515,-0.3812 1.98712,-0.7867 0.48651,-0.4097 0.82395,-0.8831 1.01165,-1.4193 l -0.22834,-1.3618 -2.90862,0.4877 -0.88917,-5.303 8.83564,-1.4815 1.60522,9.5735 c -0.35526,0.7409 -0.81025,1.4858 -1.36598,2.2351 -0.53532,0.7207 -1.16935,1.3821 -1.90117,1.9843 -0.70729,0.598 -1.51446,1.1255 -2.42237,1.5806 -0.91205,0.4304 -1.89512,0.7336 -2.9506,0.9105 l -0.0366,0.01 c -1.64459,0.2757 -3.13915,0.2478 -4.48157,-0.082 -1.34239,-0.33 -2.52367,-0.9016 -3.54331,-1.7149 -0.9951,-0.8174 -1.83658,-1.8485 -2.52521,-3.0958 -0.68863,-1.2473 -1.18857,-2.6533 -1.50105,-4.216 l -0.95054,-5.6689 c -0.24694,-1.4728 -0.26105,-2.9108 -0.0415,-4.3103 0.21958,-1.3996 0.67672,-2.6609 1.37121,-3.7867 0.69037,-1.1505 1.62424,-2.1283 2.80185,-2.9315 1.17764,-0.8031 2.60173,-1.3432 4.27087,-1.6231 z m 12.95971,-2.173 8.32134,-1.3953 0.0366,-0.01 c 1.57096,-0.2634 2.91267,-0.2366 4.02593,0.082 1.13368,0.2894 2.07567,0.7877 2.82514,1.4948 0.76992,0.6785 1.37971,1.5337 1.83083,2.5686 0.44698,1.0102 0.76892,2.1055 0.96649,3.2838 0.20578,1.2272 0.18012,2.3542 -0.0766,3.3815 -0.23224,1.0231 -0.57401,1.9141 -1.02746,2.6715 -0.433,0.7287 -0.90286,1.311 -1.40979,1.7494 -0.51108,0.4137 -0.92574,0.6483 -1.24484,0.7018 l 7.39266,10.0031 -7.10587,1.1915 -5.17707,-8.2933 -0.0732,0.012 1.49411,8.9108 -6.18514,1.0371 z m 26.17754,-4.3893 8.24814,-1.383 12.6197,26.0472 -7.03268,1.1792 -3.67579,-6.8043 -5.33952,0.8953 -1.22071,7.6253 -7.03268,1.1792 z m 17.82152,-2.9882 5.52252,-0.926 c 2.13552,-0.358 4.07376,-0.3177 5.81316,0.1224 1.7353,0.4157 3.2447,1.1469 4.53053,2.1932 1.28169,1.0216 2.33521,2.3329 3.15922,3.9361 0.81989,1.5785 1.39143,3.3378 1.71657,5.277 0.30869,1.841 0.39442,3.6322 0.25702,5.3713 -0.14154,1.7145 -0.58537,3.2768 -1.33276,4.6893 -0.7474,1.4123 -1.83326,2.6158 -3.25619,3.6116 -1.42293,0.9957 -3.24981,1.6816 -5.48352,2.0561 l -0.81094,0.136 -5.52252,0.926 z m 26.14094,-4.3831 8.24814,-1.383 12.61971,26.0471 -7.03269,1.1792 -3.67771,-6.8039 -5.3376,0.895 -1.2207,7.6252 -7.03268,1.1792 z m 13.10803,-2.1979 18.63055,-3.1239 1.03709,6.1852 -6.22174,1.0432 3.556,21.2078 -6.18707,1.0375 -3.556,-21.2079 -6.22175,1.0432 z m 20.61842,-3.4572 6.18707,-1.0374 4.59308,27.393 -6.18707,1.0374 z m 19.03698,-3.192 0.0366,-0.01 c 1.44823,-0.2429 2.85627,-0.19 4.22733,0.1605 1.39562,0.3465 2.68569,0.9639 3.86905,1.8506 1.04007,0.7846 1.87948,1.7293 2.51885,2.8334 0.6394,1.1041 1.07778,2.2791 1.31222,3.5268 l 1.07423,6.4067 c 0.22225,1.3255 0.23968,2.7094 0.0529,4.154 -0.16637,1.4159 -0.65489,2.7234 -1.46389,3.919 -0.8253,1.2488 -1.84173,2.2633 -3.04802,3.046 -1.18174,0.7786 -2.49521,1.2897 -3.94343,1.5326 l -0.0366,0.01 c -1.42369,0.2387 -2.83397,0.1843 -4.22959,-0.1622 -1.37106,-0.3505 -2.66079,-0.9659 -3.86873,-1.8486 -1.13015,-0.8704 -2.01216,-1.9214 -2.64758,-3.1524 -0.61087,-1.2351 -1.05217,-2.587 -1.32367,-4.0557 l -1.07423,-6.4067 c -0.19755,-1.1782 -0.16428,-2.4075 0.10042,-3.6885 0.2606,-1.3055 0.74191,-2.4963 1.44463,-3.5732 0.85397,-1.2283 1.87211,-2.2327 3.05384,-3.0113 1.18175,-0.7786 2.49745,-1.2882 3.94568,-1.531 z m 12.18537,-2.0432 6.29686,-1.0558 9.5805,12.2088 -2.2531,-13.4374 6.55305,-1.0988 4.59308,27.393 -6.25833,1.0494 -9.62357,-12.2412 2.25957,13.4759 -6.55497,1.0991 z"
       id="rect1565"
       inkscape:connector-curvature="0"
       inkscape:label="degradation" />
  </g>
</svg>
