<?xml version="1.0" encoding="UTF-8" standalone="no"?>
<svg
   xmlns:dc="http://purl.org/dc/elements/1.1/"
   xmlns:cc="http://creativecommons.org/ns#"
   xmlns:rdf="http://www.w3.org/1999/02/22-rdf-syntax-ns#"
   xmlns:svg="http://www.w3.org/2000/svg"
   xmlns="http://www.w3.org/2000/svg"
   xmlns:sodipodi="http://sodipodi.sourceforge.net/DTD/sodipodi-0.dtd"
   xmlns:inkscape="http://www.inkscape.org/namespaces/inkscape"
   version="1.1"
   width="91.491287mm"
   height="53.860504mm"
   viewBox="0 0 345.79382 203.56727"
   id="svg5458"
   sodipodi:docname="36c3_shirt.svg"
   inkscape:version="0.92.4 5da689c313, 2019-01-14">
  <metadata
     id="metadata5464">
    <rdf:RDF>
      <cc:Work
         rdf:about="">
        <dc:format>image/svg+xml</dc:format>
        <dc:type
           rdf:resource="http://purl.org/dc/dcmitype/StillImage" />
        <dc:title></dc:title>
      </cc:Work>
    </rdf:RDF>
  </metadata>
  <defs
     id="defs5462" />
  <sodipodi:namedview
     pagecolor="#000000"
     bordercolor="#666666"
     borderopacity="1"
     objecttolerance="10"
     gridtolerance="10"
     guidetolerance="10"
     inkscape:pageopacity="0"
     inkscape:pageshadow="2"
     inkscape:window-width="1920"
     inkscape:window-height="1176"
     id="namedview5460"
     showgrid="false"
     inkscape:zoom="1.6311867"
     inkscape:cx="182.77063"
     inkscape:cy="224.1038"
     inkscape:window-x="0"
     inkscape:window-y="0"
     inkscape:window-maximized="1"
     inkscape:current-layer="g5456"
     units="mm"
     fit-margin-top="2"
     fit-margin-left="2"
     fit-margin-right="2"
     fit-margin-bottom="2" />
  <g
     stroke-width="none"
     stroke-linecap="none"
     stroke-miterlimit="none"
     font-weight="none"
     font-size="none"
     text-anchor="none"
     style="font-family:none;mix-blend-mode:normal;fill:none;fill-rule:nonzero;stroke:none;stroke-linejoin:miter;stroke-dasharray:none;stroke-dashoffset:0"
     id="g5456"
     transform="translate(-14.595774,-1448.8378)">
    <g
       id="g7012"
       inkscape:label="mosfet"
       transform="matrix(0.35627447,0,0,0.35627447,-11.431767,1297.4267)"
       style="fill:#d0d0ce;fill-opacity:1;stroke:none">
      <path
         style="font-family:none;mix-blend-mode:normal;fill:#d0d0ce;fill-opacity:1;fill-rule:nonzero;stroke:none;stroke-width:3.77952766;stroke-linecap:butt;stroke-linejoin:miter;stroke-miterlimit:9.86666679;stroke-dasharray:none;stroke-dashoffset:0;stroke-opacity:1"
         inkscape:connector-curvature="0"
         id="path6255"
         d="m 473.22474,724.14644 -3.64101,3.41284 -0.24957,-7.21575 0.14193,-0.223 z" />
      <path
         style="font-family:none;mix-blend-mode:normal;fill:#d0d0ce;fill-opacity:1;fill-rule:nonzero;stroke:none;stroke-width:3.77952766;stroke-linecap:butt;stroke-linejoin:miter;stroke-miterlimit:9.86666679;stroke-dasharray:none;stroke-dashoffset:0;stroke-opacity:1"
         inkscape:connector-curvature="0"
         id="path6257"
         d="m 305.28885,606.88525 -3.56646,21.40111 -25.29224,-4.21491 14.59006,-87.55002 25.29224,4.21491 -6.97081,41.8295 83.37176,13.89376 -1.64143,14.42456 -1.37108,10.06822 z" />
      <path
         style="font-family:none;mix-blend-mode:normal;fill:#d0d0ce;fill-opacity:1;fill-rule:nonzero;stroke:none;stroke-width:3.77952766;stroke-linecap:butt;stroke-linejoin:miter;stroke-miterlimit:9.86666679;stroke-dasharray:none;stroke-dashoffset:0;stroke-opacity:1"
         inkscape:connector-curvature="0"
         id="path6259"
         d="m 102.1806,609.14823 0.37167,-1.34335" />
      <path
         style="font-family:none;mix-blend-mode:normal;fill:#d0d0ce;fill-opacity:1;fill-rule:nonzero;stroke:none;stroke-width:3.77952766;stroke-linecap:butt;stroke-linejoin:miter;stroke-miterlimit:9.86666679;stroke-dasharray:none;stroke-dashoffset:0;stroke-opacity:1"
         inkscape:connector-curvature="0"
         id="path6263"
         d="m 120.08588,654.46384 -0.23744,4.04005" />
      <path
         style="font-family:none;mix-blend-mode:normal;fill:#d0d0ce;fill-opacity:1;fill-rule:nonzero;stroke:none;stroke-width:3.77952766;stroke-linecap:butt;stroke-linejoin:miter;stroke-miterlimit:9.86666679;stroke-dasharray:none;stroke-dashoffset:0;stroke-opacity:1"
         inkscape:connector-curvature="0"
         id="path6267"
         d="m 111.38774,752.9949 -1.28214,-3.19595" />
      <path
         style="font-family:none;mix-blend-mode:normal;fill:#d0d0ce;fill-opacity:1;fill-rule:nonzero;stroke:none;stroke-width:3.77952766;stroke-linecap:butt;stroke-linejoin:miter;stroke-miterlimit:9.86666679;stroke-dasharray:none;stroke-dashoffset:0;stroke-opacity:1"
         inkscape:connector-curvature="0"
         id="path6271"
         d="m 149.88311,772.20491 0.18709,0.29522" />
      <path
         style="font-family:none;mix-blend-mode:normal;fill:#d0d0ce;fill-opacity:1;fill-rule:nonzero;stroke:none;stroke-width:3.77952766;stroke-linecap:butt;stroke-linejoin:miter;stroke-miterlimit:9.86666679;stroke-dasharray:none;stroke-dashoffset:0;stroke-opacity:1"
         inkscape:connector-curvature="0"
         id="path6275"
         d="m 243.33646,849.71127 0.92827,0.3618" />
      <path
         style="font-family:none;mix-blend-mode:normal;fill:#d0d0ce;fill-opacity:1;fill-rule:nonzero;stroke:none;stroke-width:3.77952766;stroke-linecap:butt;stroke-linejoin:miter;stroke-miterlimit:9.86666679;stroke-dasharray:none;stroke-dashoffset:0;stroke-opacity:1"
         inkscape:connector-curvature="0"
         id="path6281"
         d="m 329.28613,888.41151 -5.97929,0.3427" />
      <path
         style="font-family:none;mix-blend-mode:normal;fill:#d0d0ce;fill-opacity:1;fill-rule:nonzero;stroke:none;stroke-width:3.77952766;stroke-linecap:butt;stroke-linejoin:miter;stroke-miterlimit:9.86666679;stroke-dasharray:none;stroke-dashoffset:0;stroke-opacity:1"
         inkscape:connector-curvature="0"
         id="path6285"
         d="m 408.29824,745.99431 -4.00758,0.87431" />
      <path
         style="font-family:none;mix-blend-mode:normal;fill:#d0d0ce;fill-opacity:1;fill-rule:nonzero;stroke:none;stroke-width:3.77952766;stroke-linecap:butt;stroke-linejoin:miter;stroke-miterlimit:9.86666679;stroke-dasharray:none;stroke-dashoffset:0;stroke-opacity:1"
         inkscape:connector-curvature="0"
         id="path6289"
         d="m 385.60339,724.70143 4.75406,-1.03717" />
      <path
         style="font-family:none;mix-blend-mode:normal;fill:#d0d0ce;fill-opacity:1;fill-rule:nonzero;stroke:none;stroke-width:3.77952766;stroke-linecap:butt;stroke-linejoin:miter;stroke-miterlimit:9.86666679;stroke-dasharray:none;stroke-dashoffset:0;stroke-opacity:1"
         inkscape:connector-curvature="0"
         id="path6293"
         d="m 307.72094,691.76084 -2.02571,-9.28522" />
      <path
         style="font-family:none;mix-blend-mode:normal;fill:#d0d0ce;fill-opacity:1;fill-rule:nonzero;stroke:none;stroke-width:3.77952766;stroke-linecap:butt;stroke-linejoin:miter;stroke-miterlimit:9.86666679;stroke-dasharray:none;stroke-dashoffset:0;stroke-opacity:1"
         inkscape:connector-curvature="0"
         id="path6297"
         d="m 308.12011,693.59048 -0.87258,-3.99964" />
      <path
         style="font-family:none;mix-blend-mode:normal;fill:#d0d0ce;fill-opacity:1;fill-rule:nonzero;stroke:none;stroke-width:3.77952766;stroke-linecap:butt;stroke-linejoin:miter;stroke-miterlimit:9.86666679;stroke-dasharray:none;stroke-dashoffset:0;stroke-opacity:1"
         inkscape:connector-curvature="0"
         id="path6301"
         d="m 361.82547,638.34501 6.7297,-4.2757" />
      <path
         style="font-family:none;mix-blend-mode:normal;fill:#d0d0ce;fill-opacity:1;fill-rule:nonzero;stroke:none;stroke-width:3.77952766;stroke-linecap:butt;stroke-linejoin:miter;stroke-miterlimit:9.86666679;stroke-dasharray:none;stroke-dashoffset:0;stroke-opacity:1"
         inkscape:connector-curvature="0"
         id="path6305"
         d="m 268.98316,588.22881 0.0949,0.4352" />
      <path
         style="font-family:none;mix-blend-mode:normal;fill:#d0d0ce;fill-opacity:1;fill-rule:nonzero;stroke:none;stroke-width:3.77952766;stroke-linecap:butt;stroke-linejoin:miter;stroke-miterlimit:9.86666679;stroke-dasharray:none;stroke-dashoffset:0;stroke-opacity:1"
         inkscape:connector-curvature="0"
         id="path6309"
         d="m 261.14009,672.57366 -0.91817,-4.2086" />
      <path
         style="font-family:none;mix-blend-mode:normal;fill:#d0d0ce;fill-opacity:1;fill-rule:nonzero;stroke:none;stroke-width:3.77952766;stroke-linecap:butt;stroke-linejoin:miter;stroke-miterlimit:9.86666679;stroke-dasharray:none;stroke-dashoffset:0;stroke-opacity:1"
         inkscape:connector-curvature="0"
         id="path6313"
         d="m 249.41864,796.80654 6.26802,-1.36746" />
      <path
         style="font-family:none;mix-blend-mode:normal;fill:#d0d0ce;fill-opacity:1;fill-rule:nonzero;stroke:none;stroke-width:3.77952766;stroke-linecap:butt;stroke-linejoin:miter;stroke-miterlimit:9.86666679;stroke-dasharray:none;stroke-dashoffset:0;stroke-opacity:1"
         inkscape:connector-curvature="0"
         id="path6317"
         d="m 491.78545,827.56544 0.86442,3.96223" />
      <path
         style="font-family:none;mix-blend-mode:normal;fill:#d0d0ce;fill-opacity:1;fill-rule:nonzero;stroke:none;stroke-width:3.77952766;stroke-linecap:butt;stroke-linejoin:miter;stroke-miterlimit:9.86666679;stroke-dasharray:none;stroke-dashoffset:0;stroke-opacity:1"
         inkscape:connector-curvature="0"
         id="path6321"
         d="m 522.60568,745.55562 -1.20121,3.08499" />
      <path
         style="font-family:none;mix-blend-mode:normal;fill:#d0d0ce;fill-opacity:1;fill-rule:nonzero;stroke:none;stroke-width:3.77952766;stroke-linecap:butt;stroke-linejoin:miter;stroke-miterlimit:9.86666679;stroke-dasharray:none;stroke-dashoffset:0;stroke-opacity:1"
         inkscape:connector-curvature="0"
         id="path6327"
         d="m 430.46751,560.46939 1.3132,-5.00221" />
      <path
         style="font-family:none;mix-blend-mode:normal;fill:#d0d0ce;fill-opacity:1;fill-rule:nonzero;stroke:none;stroke-width:3.77952766;stroke-linecap:butt;stroke-linejoin:miter;stroke-miterlimit:9.86666679;stroke-dasharray:none;stroke-dashoffset:0;stroke-opacity:1"
         inkscape:connector-curvature="0"
         id="path6331"
         d="m 432.39657,493.89437 12.66143,10.99941 14.90734,-56.78471 24.80066,6.51076 -19.44954,74.08678 6.87796,10.2488 c 29.13849,43.41888 41.65986,97.0847 35.08115,150.35552 -1.39662,11.30904 -6.33802,30.91059 -11.31324,46.20684 l -5.8368,2.2335 -13.43009,-0.68528 -6.68945,-3.98712 c 13.85366,-35.04532 17.59561,-74.05667 9.44157,-112.63907 -0.70291,-3.32593 -1.5536,-6.78878 -2.52094,-10.30499 l 4.12205,-6.44965 6.17245,-12.94703 -7.49383,9.17158 -4.2516,5.19787 c -4.34646,-14.3996 -10.37163,-29.02581 -15.99582,-38.29331 l -2.90954,-4.79433 -17.12979,65.25041 -38.3702,-10.07309 2.28629,-9.90059 2.95399,-14.21394 14.5896,3.83012 9.56728,-36.44347 7.70329,-1.53313 13.40274,-3.58413 -12.38706,-0.28477 -7.40577,0.39982 5.61651,-21.3943 -7.38786,-7.78406 c -7.76332,-8.17964 -15.97305,-15.51561 -24.67683,-22.03584 l -0.49561,-1.51617 4.42978,-14.67566 4.42512,-8.8855 c 6.30726,4.43355 12.43231,9.26967 18.70475,14.71872 z" />
      <path
         style="font-family:none;mix-blend-mode:normal;fill:#d0d0ce;fill-opacity:1;fill-rule:nonzero;stroke:none;stroke-width:3.77952766;stroke-linecap:butt;stroke-linejoin:miter;stroke-miterlimit:9.86666679;stroke-dasharray:none;stroke-dashoffset:0;stroke-opacity:1"
         inkscape:connector-curvature="0"
         id="path6333"
         d="m 476.92662,610.13481 -1.45092,-5.02722" />
      <path
         style="font-family:none;mix-blend-mode:normal;fill:#d0d0ce;fill-opacity:1;fill-rule:nonzero;stroke:none;stroke-width:3.77952766;stroke-linecap:butt;stroke-linejoin:miter;stroke-miterlimit:9.86666679;stroke-dasharray:none;stroke-dashoffset:0;stroke-opacity:1"
         inkscape:connector-curvature="0"
         id="path6337"
         d="m 278.18167,449.94241 3.46549,-0.65705" />
      <path
         style="font-family:none;mix-blend-mode:normal;fill:#d0d0ce;fill-opacity:1;fill-rule:nonzero;stroke:none;stroke-width:3.77952766;stroke-linecap:butt;stroke-linejoin:miter;stroke-miterlimit:9.86666679;stroke-dasharray:none;stroke-dashoffset:0;stroke-opacity:1"
         inkscape:connector-curvature="0"
         id="path6341"
         d="m 472.43927,859.1841 c -3.46843,-15.89819 -6.44762,-28.87503 -6.62082,-28.83725 -0.1732,0.0378 -3.45916,2.76738 -7.30239,6.06579 -27.60812,23.6944 -58.85521,39.06089 -95.83331,47.12822 -11.29017,2.46312 -22.40524,4.08862 -33.39662,4.87065 l -0.39688,-0.35683 -5.79161,-6.44229 -2.54096,-11.08526 -1.45568,11.24907 3.79329,6.52419 0.41256,0.45382 c -34.90614,1.5155 -68.65004,-5.55398 -102.89869,-21.39808 -10.59607,-4.90197 -31.45085,-17.61257 -39.10432,-23.83341 l -5.44321,-4.42431 -67.94943,14.82418 -5.46541,-25.05173 25.13208,-5.48294 c 13.8226,-3.01561 24.91195,-5.77577 24.64307,-6.1333 -0.26913,-0.35788 -3.95872,-4.88988 -8.19956,-10.07151 -13.92669,-17.01623 -24.6617,-34.78263 -32.63363,-54.18822 l 2.55338,-9.67694 -3.83553,6.48099 c -4.26328,-10.88563 -7.6804,-22.29254 -10.324944,-34.37332 -2.0326,-9.29087 -4.06934,-20.89896 -4.52325,-25.79642 -2.55822,-27.59549 -0.0976,-54.79106 6.923194,-80.48097 l 2.99888,-0.81456 -2.62722,-0.5288 c 12.08427,-43.1493 37.06409,-81.97875 72.75334,-111.2163 18.49053,-15.14798 37.08727,-26.11932 60.36438,-35.61263 8.19973,-3.34416 26.46776,-7.91583 42.51169,-11.03354 l 9.73009,7.95887 -6.2646,-8.61592 c 4.2807,-0.79072 8.32815,-1.45811 11.89104,-1.94737 l 6.38689,4.46466 6.55132,9.23312 -2.56412,-9.55275 -5.38998,-4.74187 c 1.33875,-0.13154 2.55665,-0.2224 3.63162,-0.26775 15.71275,-0.66301 29.2757,-0.1335 42.90413,1.80316 l 0.094,9.92598 2.72004,15.08639 1.13025,1.12558 c -24.45692,-4.23374 -49.27635,-3.51292 -75.11383,2.12391 -31.31919,6.83275 -55.45904,18.1706 -80.11276,37.62682 -17.00875,13.42298 -28.43779,25.8442 -40.68476,44.21662 -13.98217,20.97544 -22.41831,40.1608 -28.06827,63.83248 -2.55247,10.69406 -4.19205,21.47696 -4.93685,32.24949 l -0.0526,0.0479 -10.32167,2.9057 10.13687,1.08647 c -1.93146,39.89477 8.38727,79.47687 30.03467,113.70103 l -0.67876,1.12035 0.86586,-0.82514 c 1.08112,1.70256 2.19032,3.3918 3.32748,5.0671 7.41089,10.91786 16.44144,21.81825 24.12528,29.12041 l 4.96707,4.72038 66.92861,-14.60147 1.28635,2.63043 14.32105,3.77893 5.40716,9.82435 -1.49908,-10.67696 -12.36702,-4.20523 -0.88045,-2.71898 30.79275,-6.7179 -25.33932,-116.14752 1.249,-1.94076 8.38183,-8.61864 -9.23443,4.71056 -1.31457,1.64024 -27.13546,-124.38047 25.05179,-5.46542 10.8449,49.70964 -0.87204,1.34125 0.96698,-0.90606 47.91851,219.64349 -108.37828,23.73478 7.5295,4.439 c 8.70362,5.13122 17.80631,9.54555 27.18864,13.22999 l -0.80032,4.09827 1.72859,-3.73647 c 42.0222,16.25496 89.55352,17.9166 131.92542,3.82397 l 0.001,0.004 c 13.56011,-4.51003 27.17527,-10.65911 39.24485,-17.72435 11.74487,-6.87518 30.01605,-20.98119 38.44281,-29.67931 l 5.35515,-5.52752 -13.25485,-63.19679 -37.68132,8.22074 -0.34876,-0.65409 -5.67134,-8.01062 1.76327,8.86322 0.24926,0.6758 -55.65391,12.14173 8.82875,40.46825 -25.05179,5.46542 -18.70854,-85.75411 25.05179,-5.46542 4.41438,20.23412 42.43205,-9.25719 5.03954,4.47505 16.11871,3.74048 -12.21063,-4.59308 -4.19356,-4.65961 50.13037,-10.93669 -12.4023,-56.84828 -26.14513,5.70395 1.06365,2.0391 c 0.58496,1.12149 3.54402,5.09058 6.57554,8.82019 3.03157,3.7296 5.22614,7.2264 4.87688,7.77057 -0.3493,0.54424 -19.57998,-1.63489 -42.73482,-4.84247 l -42.09976,-5.83202 7.20053,35.52338 -25.00927,5.45615 -3.69302,-16.92767 0.38582,-0.37923 3.74048,-16.11871 -4.59308,12.21063 -0.4058,0.28767 -13.0919,-60.00919 25.05179,-5.46542 3.88887,17.82535 c 2.2876,10.48565 4.2617,17.74395 4.7948,17.62765 0.47954,-0.10462 15.54845,-9.53179 33.93439,-21.22421 l 13.78995,7.2247 11.27126,-0.01 10.98243,8.60383 -7.60556,-10.74784 -9.58282,-1.06218 -12.12555,-8.28438 c 19.58861,-12.40235 31.03839,-19.18048 31.70263,-18.75416 0.71454,0.4586 0.47044,2.83778 -0.67214,6.54355 -0.98718,3.20264 -2.04254,7.80358 -2.34521,10.22442 l -0.5503,4.40144 45.59518,-9.94727 0.11949,0.23579 6.3349,3.46388 31.8905,143.88552 6.02787,-10.90428 c 19.77684,-35.77564 27.59592,-75.61541 23.9043,-114.32646 l 7.77061,0.51334 12.27581,-5.49011 4.18528,-4.64114 c 1.06345,6.715 1.77213,12.74752 1.93012,17.12969 1.14473,31.755 -3.51538,61.294 -14.11854,89.1521 l -10.60475,6.46289 9.40353,-3.3779 c -4.73388,11.88903 -10.5608,23.47282 -17.49166,34.79351 -4.21428,6.88345 -9.67805,14.99427 -12.14175,18.02404 l -4.47948,5.50877 4.49387,20.59851 -0.28965,0.16067 -12.4033,10.28478 13.25591,-6.3767 0.30146,-0.10652 11.14756,51.09692 -25.05179,5.46542 z" />
      <path
         style="font-family:none;mix-blend-mode:normal;fill:#d0d0ce;fill-opacity:1;fill-rule:nonzero;stroke:none;stroke-width:3.77952766;stroke-linecap:butt;stroke-linejoin:miter;stroke-miterlimit:9.86666679;stroke-dasharray:none;stroke-dashoffset:0;stroke-opacity:1"
         inkscape:connector-curvature="0"
         id="path6343"
         d="m 293.5382,447.33799 4.98412,-0.59683" />
    </g>
    <g
       id="g102"
       transform="translate(10.97426,-0.0447)"
       style="fill:#d0d0ce;fill-opacity:1">
      <path
         d="m 251.16372,1545.9573 c -0.0121,-0.9725 0.20608,-2.0415 0.48561,-2.3759 0.18783,-0.2248 6.2094,-1.8159 14.94986,-3.9804 l -0.42765,2.0602 1.57998,2.0837 -1.24097,1.6606 -1.10105,1.713 -2.70008,0.6412 3.35394,2.6626 0.23656,0.6552 -1.89943,2.0757 0.0542,2.4881 -0.79474,2.1644 c -12.06913,-9.7619 -12.47561,-10.2151 -12.49626,-11.8484 z"
         id="path9766 1 1 1"
         stroke-miterlimit="4"
         inkscape:connector-curvature="0"
         style="font-family:none;mix-blend-mode:normal;fill:#d0d0ce;fill-opacity:1;fill-rule:nonzero;stroke:none;stroke-width:0.0462983;stroke-linecap:round;stroke-linejoin:round;stroke-miterlimit:4;stroke-dasharray:none;stroke-dashoffset:0" />
      <path
         d="m 251.47018,1611.1831 c -1.26989,1.0051 -2.41649,1.6271 -2.54797,1.3823 -1.33156,-2.4796 -2.74954,-5.1087 -4.17195,-7.7373 l 0.38193,-0.258 1.34518,-2.6344 -1.7802,1.8318 -0.41175,0.2018 c -1.47149,-2.7174 -2.93806,-5.4168 -4.30893,-7.9319 l 1.00688,0.01 3.60112,-2.2958 2.81007,1.8507 c 2.69363,5.0339 4.92609,9.3872 5.96117,11.6023 l -0.18332,0.4891 0.78414,0.9298 c 0.0181,0.064 0.024,0.1071 0.0177,0.1268 -0.10506,0.3362 -1.23448,1.4314 -2.50441,2.4366 z"
         id="path9770 1 1 1"
         stroke-miterlimit="4"
         inkscape:connector-curvature="0"
         style="font-family:none;mix-blend-mode:normal;fill:#d0d0ce;fill-opacity:1;fill-rule:nonzero;stroke:none;stroke-width:0.0462983;stroke-linecap:round;stroke-linejoin:round;stroke-miterlimit:4;stroke-dasharray:none;stroke-dashoffset:0" />
      <g
         id="g92"
         style="fill:#d0d0ce;fill-opacity:1">
        <path
           style="font-family:none;mix-blend-mode:normal;fill:#d0d0ce;fill-opacity:1;fill-rule:nonzero;stroke:none;stroke-width:0.22916543;stroke-linecap:butt;stroke-linejoin:miter;stroke-miterlimit:10;stroke-dasharray:none;stroke-dashoffset:0"
           inkscape:connector-curvature="0"
           id="path12008"
           stroke-miterlimit="10"
           d="m 196.52494,1556.9592 11.67524,-13.8581 -47.77151,-38.2231 4.59001,-5.4483 4.5156,3.5722 -1.72213,1.1983 2.27187,-0.7635 18.80089,14.8726 8.74904,6.9211 -0.29677,0.372 0.89369,2.2646 -0.45343,3.6068 1.17755,-3.0339 -0.53162,-1.9783 0.35252,-0.3278 13.97518,11.0551 1.70878,-1.9919 3.73327,-0.5214 -3.15725,-0.15 9.54707,-11.1287 c 0.53338,-0.6217 1.04283,-1.2154 1.52966,-1.7824 l 2.22859,0.8003 2.55728,-0.022 2.14283,1.874 0.67231,-0.222 -37.51988,44.535 2.69389,0.1198 c 1.23771,0.055 9.77006,0.4557 20.1869,0.9477 l 0.12674,0.2928 2.46999,2.716 -0.11114,2.3537 1.03976,-2.3098 -2.00566,-2.6941 -0.0787,-0.2906 c 1.60254,0.076 3.24275,0.1533 4.90164,0.2319 l 23.83568,1.1276 -12.14627,-47.6247 1.766,1.0928 1.71293,1.2281 2.13434,-1.5111 2.11966,0.442 c 0.68041,2.5607 1.41508,5.3604 2.18162,8.3169 l -1.14665,1.8837 -1.55368,1.6533 1.78056,-0.7746 1.21814,-1.61 c 0.38499,1.4895 0.77716,3.015 1.17372,4.5666 l 7.18923,28.1285 10.65679,-12.3957 c 10.2648,-11.9396 10.72369,-12.3957 12.47346,-12.3958 2.35694,-3e-4 3.1999,0.7252 3.43513,2.956 0.15738,1.4932 -0.23057,2.2546 -7.53192,10.9719 l -0.76102,-0.399 -2.64558,-0.3676 -2.20783,0.3955 1.62181,0.3013 2.35261,0.716 0.69036,0.4861 c -0.9116,1.0857 -1.91903,2.2825 -3.03216,3.6038 l -11.70504,13.8935 6.83339,5.4676 -0.8753,2.5137 1.54687,-1.9764 40.2665,32.2183 -4.59832,5.4582 -47.77146,-38.2232 -11.40302,13.5351 c -0.49641,0.5892 -0.9727,1.1539 -1.42973,1.6949 l -0.31377,-0.098 -2.38271,0.083 1.7945,0.6119 0.28738,0.13 c -7.9003,9.3391 -9.73467,11.214 -11.08741,11.5759 -2.09663,0.5616 -4.04871,-0.8471 -4.16512,-3.0057 -0.0748,-1.3869 1.21772,-3.1346 10.22783,-13.8294 5.67246,-6.733 10.15975,-12.3648 9.97139,-12.5155 -0.1884,-0.1506 -13.49297,-0.8902 -29.56667,-1.6442 -16.07366,-0.7537 -29.6722,-1.7284 -30.21895,-2.1659 -0.5465,-0.4373 -1.06133,-1.4371 -1.1444,-2.2208 -0.12877,-1.2275 1.47023,-3.3484 11.52489,-15.283 z" />
      </g>
      <g
         style="fill:#d0d0ce;fill-opacity:1;stroke:none"
         transform="matrix(-0.23025877,-0.03214923,0.03105518,-0.22374132,448.54027,1667.7995)"
         id="g12616">
        <path
           style="font-family:none;mix-blend-mode:normal;fill:#d0d0ce;fill-opacity:1;fill-rule:nonzero;stroke:none;stroke-width:0.20203;stroke-linecap:round;stroke-linejoin:round;stroke-miterlimit:4;stroke-dasharray:none;stroke-dashoffset:0"
           inkscape:connector-curvature="0"
           stroke-miterlimit="4"
           id="path9768 1 1 1"
           d="m 1154.9939,477.95792 c 3.8602,5.54991 7.1815,10.51757 7.3791,11.04187 0.1012,0.28245 -8.2708,4.61379 -21.6494,11.26705 l -0.035,-0.0467 -12.2014,-6.90895 8.6117,8.67357 0.032,0.0647 c -11.3918,5.64191 -25.8033,12.6778 -41.4524,20.21982 l -21.2077,10.22098 -2.4448,-2.17412 -0.5354,-12.65256 2.6655,-9.85104 9.2769,-5.90208 1.9094,-7.49805 c 1.1848,-0.57207 2.3746,-1.13871 3.5631,-1.70922 13.3279,-6.39352 25.7284,-12.19633 35.5913,-16.68411 l 2.1544,0.15309 14.6267,-7.35061 6.5846,-0.58963 c 1.5992,1.99351 4.3453,5.72398 7.1315,9.72518 z" />
        <path
           style="font-family:none;mix-blend-mode:normal;fill:#d0d0ce;fill-opacity:1;fill-rule:nonzero;stroke:none;stroke-width:1;stroke-linecap:butt;stroke-linejoin:miter;stroke-miterlimit:10;stroke-dasharray:none;stroke-dashoffset:0"
           inkscape:connector-curvature="0"
           id="path12014"
           stroke-miterlimit="10"
           d="m 1025.1349,550.69463 10.6435,9.86265 10.6438,9.8629 -55.01102,0.33731 c -30.25661,0.18547 -55.09069,-0.24092 -55.18766,-0.9474 -0.0968,-0.70528 14.58456,-16.5503 32.62212,-35.21086 2.30639,-2.38597 4.56496,-4.72382 6.75112,-6.98799 l 10.4085,1.98747 12.04735,-1.77142 11.99419,4.31111 10.1995,6.20006 -7.4227,-9.07921 -10.6058,-5.75069 -10.65899,0.33184 -9.13332,-3.30609 c 11.47236,-11.89745 19.68531,-20.45902 20.00121,-20.86347 0.4306,-0.55146 1.707,5.02711 2.836,12.39857 l 2.0533,13.40149 12.0962,-4.64884 c 6.3969,-2.45942 35.8182,-14.0881 66.441,-26.26076 l -2.4202,7.34916 -9.6605,5.25061 -3.3361,9.64467 -0.3353,12.65936 2.2896,2.33699 z" />
      </g>
      <path
         inkscape:transform-center-y="-13.915179"
         inkscape:transform-center-x="-10.932254"
         d="m 221.23503,1602.5087 c -0.0739,0.1415 1.17179,0.9544 2.76855,1.8076 l 2.90327,1.5513 -12.39411,2.3404 c -6.81659,1.2874 -12.43451,2.2018 -12.48399,2.0322 -0.0521,-0.1793 2.87117,-4.6723 5.8284,-9.0756 l 0.88779,0.2116 3.12277,0.3165 -2.60102,-1.0846 -0.82402,-0.3134 c 2.29046,-3.3963 4.48412,-6.5629 5.20176,-7.4362 l 1.02384,-1.2449 0.75091,2.3811 c 0.41307,1.3099 0.99607,2.5038 1.29562,2.6537 0.29862,0.1508 6.87982,-3.6607 14.62323,-8.468 0.63443,-0.3939 1.26136,-0.7812 1.8776,-1.1612 l -1.70373,2.9185 2.49412,3.4264 0.0477,1.0016 c -7.14518,4.4746 -12.75978,8.0319 -12.8184,8.1436 z"
         stroke-miterlimit="10"
         id="path12020"
         inkscape:connector-curvature="0"
         style="font-family:none;mix-blend-mode:normal;fill:#d0d0ce;fill-opacity:1;fill-rule:nonzero;stroke:none;stroke-width:0.22916543;stroke-linecap:butt;stroke-linejoin:miter;stroke-miterlimit:10;stroke-dasharray:none;stroke-dashoffset:0" />
    </g>
    <path
       style="fill:#fe5000;fill-opacity:1;stroke:#000000;stroke-width:0;stroke-linecap:round;stroke-linejoin:round;stroke-miterlimit:6.96000004;stroke-dasharray:none;stroke-opacity:1;paint-order:normal"
       d="m 129.88688,1598.8486 3.06656,45.9974 219.87713,-14.6588 -3.06656,-45.9974 z m 103.61595,1.2587 6.90461,-0.4604 1.15747,17.3619 c 0.0479,0.7184 0.15896,1.3936 0.33453,2.0233 0.20223,0.6279 0.47939,1.1704 0.83085,1.628 0.35122,0.4577 0.77531,0.8171 1.27376,1.0777 0.49665,0.2342 1.07828,0.3271 1.74337,0.2832 0.66519,-0.044 1.22921,-0.2141 1.69039,-0.512 0.45941,-0.3247 0.81771,-0.7362 1.07846,-1.2347 0.28739,-0.5001 0.47793,-1.0738 0.56842,-1.7213 0.11704,-0.6492 0.14994,-1.3339 0.10193,-2.0523 l -1.15746,-17.3619 6.90653,-0.4604 1.19205,17.8802 c 0.11704,1.7561 -0.0158,3.3817 -0.39718,4.8771 -0.35473,1.4935 -0.94996,2.8035 -1.78366,3.928 -0.80888,1.0964 -1.85738,1.9808 -3.14873,2.655 -1.29312,0.6474 -2.81919,1.017 -4.57709,1.1076 l -0.041,-4e-4 c -1.94055,0.1564 -3.60963,-0.04 -5.0092,-0.5882 -1.39954,-0.5481 -2.56168,-1.3386 -3.48587,-2.373 -0.92597,-1.0606 -1.6372,-2.2959 -2.13214,-3.7061 -0.46827,-1.4119 -0.75346,-2.9044 -0.85811,-4.4743 z m -94.98756,6.3737 18.19982,-1.2134 0.44693,6.7037 -11.494,0.7664 0.31934,4.7901 8.46168,-0.5641 0.44708,6.7059 -8.46171,0.5642 0.31922,4.7882 11.49401,-0.7663 0.44709,6.7058 -18.19985,1.2133 z m 20.9145,-1.3944 7.50287,-0.5002 4.35283,7.567 3.30988,-8.0778 7.50479,-0.5004 -6.9925,15.3781 8.97212,14.3159 -7.50482,0.5002 -4.35286,-7.5671 -3.30982,8.078 -7.50286,0.5002 6.99239,-15.3802 z m 24.50617,-1.6337 6.70385,-0.4471 0.76627,11.4941 7.94329,-0.5296 -0.76627,-11.4939 6.7039,-0.4469 1.9796,29.6938 -6.7039,0.4469 -0.76624,-11.4941 -7.94333,0.5296 0.7663,11.4941 -6.70387,0.4469 z m 32.048,-2.1366 8.94108,-0.5962 10.67907,29.1141 -7.62178,0.508 -3.19721,-7.6441 -5.78598,0.3858 -2.11326,7.9981 -7.62372,0.5083 z m 51.48531,-3.4324 c 1.4634,-0.097 2.75454,0.029 3.87382,0.3819 1.14412,0.3247 2.11081,0.7818 2.89838,1.3706 0.81418,0.5873 1.46054,1.2803 1.94126,2.0767 0.47896,0.7699 0.8132,1.5478 0.99949,2.337 l -5.71351,2.7065 c -0.0993,-0.2873 -0.23967,-0.5977 -0.42237,-0.9328 -0.18447,-0.3619 -0.43252,-0.6795 -0.7447,-0.9526 -0.28736,-0.3016 -0.63776,-0.5463 -1.05108,-0.7326 -0.38664,-0.1882 -0.83326,-0.265 -1.33868,-0.2317 -0.53218,0.036 -1.01335,0.2407 -1.44274,0.6167 -0.4044,0.3476 -0.58501,0.8546 -0.54068,1.5197 0.0337,0.5055 0.26311,0.946 0.68886,1.3185 0.45051,0.3441 1.13699,0.8057 2.05765,1.3857 1.27007,0.6102 2.48647,1.224 3.65012,1.8414 1.1902,0.6154 2.25463,1.3323 3.19118,2.1518 0.93663,0.8195 1.70738,1.7705 2.31401,2.8524 0.60487,1.0555 0.95863,2.3414 1.05977,3.858 l 0.0373,0.5592 c 0.0107,0.9615 -0.20832,1.8836 -0.65714,2.7686 -0.42393,0.8568 -1.0546,1.6351 -1.89006,2.3321 -0.81068,0.6687 -1.81465,1.2306 -3.01379,1.6847 -1.20069,0.4279 -2.57313,0.6922 -4.11635,0.7951 -1.19735,0.08 -2.33927,0 -3.42481,-0.2535 -1.05886,-0.2507 -2.03351,-0.639 -2.924,-1.1676 -0.89046,-0.5285 -1.66844,-1.1859 -2.33543,-1.9702 -0.64212,-0.8123 -1.13287,-1.7406 -1.46992,-2.7872 l 6.20797,-3.0995 c -0.051,0.031 0.0142,0.2116 0.19697,0.5466 0.2093,0.3337 0.48676,0.6903 0.83266,1.0681 0.34414,0.3514 0.75309,0.6705 1.2267,0.9598 0.49845,0.2607 1.01052,0.3342 1.53747,0.2184 0.44878,-0.083 0.87466,-0.3122 1.27753,-0.6861 0.42922,-0.3761 0.60633,-0.9364 0.53004,-1.6796 -0.0568,-0.4506 -0.27105,-0.8507 -0.64181,-1.2001 -0.34591,-0.3779 -0.83941,-0.7595 -1.47977,-1.1444 -1.41731,-0.8142 -2.7323,-1.5142 -3.94735,-2.1016 -1.19027,-0.6154 -2.25028,-1.2665 -3.17798,-1.9529 -0.90111,-0.6883 -1.63454,-1.4808 -2.20214,-2.3783 -0.54104,-0.8994 -0.85923,-2.0536 -0.95324,-3.4638 -0.0869,-1.3038 0.10354,-2.4672 0.5701,-3.4872 0.46649,-1.0199 1.11587,-1.8902 1.94956,-2.6138 0.83371,-0.7239 1.81005,-1.2981 2.93111,-1.7204 1.12118,-0.4219 2.29333,-0.686 3.51552,-0.7943 z m 11.57391,-0.7715 20.19542,-1.3465 0.44692,6.7039 -6.74482,0.4496 1.5327,22.99 -6.70388,0.447 -1.53267,-22.9901 -6.74675,0.4498 z m 22.35075,-1.4902 18.19987,-1.2133 0.44691,6.7038 -11.494,0.7662 0.31934,4.7903 8.46169,-0.5641 0.44704,6.7057 -8.46163,0.5642 0.31918,4.7881 11.49403,-0.7662 0.44702,6.7059 -18.19979,1.2133 z m 20.83462,-1.389 5.98671,-0.3991 c 2.31489,-0.1544 4.37522,0.096 6.18277,0.7505 1.80577,0.628 3.3387,1.5672 4.59814,2.8196 1.25764,1.2257 2.24102,2.7376 2.94879,4.5345 0.70607,1.7703 1.12789,3.7054 1.26801,5.8075 0.13305,1.9955 0.0341,3.9137 -0.2976,5.7532 -0.33347,1.8129 -0.97399,3.4331 -1.92125,4.8593 -0.94722,1.4261 -2.23255,2.5926 -3.85562,3.5025 -1.62305,0.91 -3.64542,1.4467 -6.0666,1.6083 l -0.87696,0.058 -5.98672,0.3991 z"
       id="rect108"
       inkscape:connector-curvature="0" />
  </g>
</svg>
