<?xml version="1.0" encoding="UTF-8" standalone="no"?>
<svg
   xmlns:dc="http://purl.org/dc/elements/1.1/"
   xmlns:cc="http://creativecommons.org/ns#"
   xmlns:rdf="http://www.w3.org/1999/02/22-rdf-syntax-ns#"
   xmlns:svg="http://www.w3.org/2000/svg"
   xmlns="http://www.w3.org/2000/svg"
   xmlns:xlink="http://www.w3.org/1999/xlink"
   xmlns:sodipodi="http://sodipodi.sourceforge.net/DTD/sodipodi-0.dtd"
   xmlns:inkscape="http://www.inkscape.org/namespaces/inkscape"
   version="1.1"
   width="150mm"
   height="54mm"
   viewBox="0 0 566.9291 204.09449"
   id="svg5458"
   sodipodi:docname="36c3_sticker_os.svg"
   inkscape:version="0.92.4 5da689c313, 2019-01-14">
  <metadata
     id="metadata5464">
    <rdf:RDF>
      <cc:Work
         rdf:about="">
        <dc:format>image/svg+xml</dc:format>
        <dc:type
           rdf:resource="http://purl.org/dc/dcmitype/StillImage" />
        <dc:title></dc:title>
      </cc:Work>
    </rdf:RDF>
  </metadata>
  <defs
     id="defs5462">
    <color-profile
       name="sRGB"
       xlink:href="/usr/share/color/icc/colord/sRGB.icc"
       id="color-profile854" />
    <inkscape:path-effect
       spray_tool_friendly="false"
       fixed_displacement="true"
       shift_nodes="true"
       handles="rand"
       global_randomize="2.6;305619238"
       displace_y="10;1"
       displace_x="30;539622735"
       segments="63"
       max_segment_size="10"
       method="segments"
       is_visible="true"
       id="path-effect5326"
       effect="roughen" />
    <inkscape:path-effect
       spray_tool_friendly="false"
       fixed_displacement="false"
       shift_nodes="true"
       handles="along"
       global_randomize="2;1"
       displace_y="10;1"
       displace_x="10;1"
       segments="2"
       max_segment_size="10"
       method="segments"
       is_visible="true"
       id="path-effect1516"
       effect="roughen" />
    <inkscape:path-effect
       only_selected="false"
       apply_with_weight="true"
       apply_no_weight="true"
       helper_size="0"
       steps="2"
       weight="33.333333"
       is_visible="true"
       id="path-effect1502"
       effect="bspline" />
    <inkscape:path-effect
       only_selected="false"
       apply_with_weight="true"
       apply_no_weight="true"
       helper_size="0"
       steps="2"
       weight="33.333333"
       is_visible="true"
       id="path-effect1498"
       effect="bspline" />
    <inkscape:path-effect
       only_selected="false"
       apply_with_weight="true"
       apply_no_weight="true"
       helper_size="0"
       steps="2"
       weight="33.333333"
       is_visible="true"
       id="path-effect7023"
       effect="bspline" />
    <inkscape:path-effect
       only_selected="false"
       apply_with_weight="true"
       apply_no_weight="true"
       helper_size="0"
       steps="2"
       weight="33.333333"
       is_visible="true"
       id="path-effect7004"
       effect="bspline" />
  </defs>
  <sodipodi:namedview
     pagecolor="#000000"
     bordercolor="#666666"
     borderopacity="1"
     objecttolerance="10"
     gridtolerance="10"
     guidetolerance="10"
     inkscape:pageopacity="0"
     inkscape:pageshadow="2"
     inkscape:window-width="1920"
     inkscape:window-height="1176"
     id="namedview5460"
     showgrid="false"
     inkscape:zoom="2.3068464"
     inkscape:cx="243.37653"
     inkscape:cy="94.604065"
     inkscape:window-x="0"
     inkscape:window-y="0"
     inkscape:window-maximized="1"
     inkscape:current-layer="g5456"
     units="mm"
     inkscape:snap-global="false" />
  <g
     stroke-width="none"
     stroke-linecap="none"
     stroke-miterlimit="none"
     font-weight="none"
     font-size="none"
     text-anchor="none"
     style="font-family:none;mix-blend-mode:normal;fill:none;fill-rule:nonzero;stroke:none;stroke-linejoin:miter;stroke-dasharray:none;stroke-dashoffset:0"
     id="g5456"
     transform="translate(0,-1432.7722)">
    <rect
       style="font-family:none;mix-blend-mode:normal;fill:#000000;fill-opacity:1;fill-rule:nonzero;stroke:none;stroke-width:0.38724583;stroke-linecap:round;stroke-linejoin:round;stroke-miterlimit:9.86666679;stroke-dasharray:none;stroke-dashoffset:0;stroke-opacity:1;paint-order:normal"
       id="rect865"
       width="566.54187"
       height="203.70724"
       x="0.19363187"
       y="1432.9658"
       inkscape:label="black_background" />
    <g
       id="g6229"
       transform="matrix(0.13559079,0,0,0.13559079,13.777746,1442.619)"
       style="fill:#d0d0ce;fill-opacity:1;fill-rule:nonzero"
       inkscape:label="mac">
      <path
         id="path5347"
         d="m 385.65234,381.91406 c -43.44995,0.16046 -85.08681,9.64696 -125,28.66797 -47.30448,22.54345 -86.46997,55.55795 -117.61718,99.09766 -39.51679,54.13789 -62.869566,120.91369 -70.09766,200.14648 -4.051762,44.41454 -2.943912,90.24699 3.285156,137.50781 C 99.390181,843.50007 130,838.19727 130,838.19727 h 31 l 28,-11 53,-8 17,-12 9,-21 13,-2 4,-29 v 31 l -13,4 -10,22 -15,13 -54,10 -27,14 -36,-1 -51.730469,13.52929 c 3.315064,21.69017 7.688738,43.67542 13.136719,65.96289 17.42089,70.46555 42.14701,133.13745 74.15625,188.15625 29.81301,51.5072 55.27018,88.2664 76.29492,110.2734 24.83414,27.708 50.62624,45.3415 77.38477,53.0352 l 0.21093,-1.1387 2.4375,-22.6816 2.01172,-11.7559 15.11328,-17.7988 9.83594,-11.8789 9.86914,-14.7422 8.89844,-10.0977 1.13672,-14.1972 3.41602,-11.3008 1.74218,-19.8906 12.42188,-12.7285 12.79687,-15.3204 1.02735,-12.3144 13.17382,-15.7012 1.17383,-13.6953 6.66797,-20.373 5.00781,-13.3633 1.04883,-11.6055 1.67188,-14.0742 11.67187,-12.002 14.42774,-16.97457 9.97656,-11.81445 2.40625,-9.71094 14.92969,-18.44726 4.45703,-7.64649 1.45312,-19.81641 1.88477,-17.96093 11.53515,-14.58008 9.70899,-11.64649 1.06445,-13.9082 2.68555,-18.97461 3.29101,-16.70312 8.17579,-8.35157 12.61523,-13.06836 1.65625,-13.03906 14.76367,-17.32226 9.36719,-14.76563 0.78906,-11.48047 11.88672,-17.96679 4.85547,-14.26758 0.91211,-11.97852 12.13086,-16.08984 7.51953,-8.17774 12.85742,-15.9707 8.91211,-10.23047 11.86914,-15.77539 7.66016,-9.78125 7.1914,-23.96289 -0.0781,-9.42578 9.4668,-18.10156 0.19921,-9.2793 0.01,-17.33398 10.83398,-12.45703 3.78711,-11.1836 14.07618,-22.26758 -0.61329,-11.17187 -0.0508,-17.66797 11.26758,-13.92774 -0.34375,-14.65624 5.05274,-9.88672 2.17773,-2.53516 c -56.93224,15.15318 -90.57133,22.36857 -100.24219,21.48633 -13.07043,-1.19236 -42.07493,-12.74931 -86.91406,-34.41211 -44.97579,-21.61641 -81.63791,-33.87209 -110.20898,-36.47852 -8.17116,-0.60859 -16.27989,-0.89885 -24.32618,-0.86914 z"
         inkscape:connector-curvature="0"
         style="fill:#d0d0ce;fill-opacity:1;fill-rule:nonzero" />
      <path
         id="path5330"
         d="m 829.5625,376.23633 c -33.24972,0.2825 -72.31066,8.4649 -117.29297,24.65234 -0.58248,0.21375 -0.99081,0.34901 -1.56836,0.56055 l -1.9375,2.72266 -4.13281,10.30468 1.67383,14.56446 -9.95703,14.89453 1.65625,17.58984 1.625,11.07031 -11.99414,23.45313 -2.75586,11.48242 -9.65625,13.38867 1.56445,17.26367 0.64453,9.25977 -7.7832,18.88672 0.93359,9.3789 -4.98437,24.51758 -6.74024,10.43555 -10.38672,16.78906 -7.94531,10.99805 -11.35351,17.07226 -6.7461,8.82813 -10.61914,17.125 0.18164,12.01172 -3.54101,14.65039 -10.20508,18.97266 0.25781,11.5039 -7.98633,15.55469 -13.1289,18.5918 -0.46485,13.13671 -11.37695,14.16016 -7.38281,9.06055 -1.75977,16.93164 -0.95117,19.14062 0.20312,13.94727 -8.60937,12.48047 -10.16406,15.56836 -0.24414,18.05664 0.35351,19.86719 -3.74414,8.01953 -13.19336,19.72851 -1.51367,9.88867 -8.86133,12.67188 -12.82617,18.21484 -10.5332,13.01369 -0.38672,14.168 0.01,11.6523 -3.77343,13.7617 -4.78907,20.8945 0.0762,13.7461 -11.69335,16.834 0.0957,12.3555 -11.35352,16.4199 -11.21289,13.8047 0.0723,19.9668 -2.375,11.5645 0.15625,14.2421 -7.94336,10.8633 -8.49024,15.5781 -8.71484,12.7227 -13.43359,19.0996 -0.93555,11.8887 -0.36719,22.8105 -0.10742,1.1524 c 8.71994,1.6679 17.44482,2.3662 26.17773,1.9941 23.75057,-0.8061 54.8142,-8.9399 93.375,-24.5488 38.50213,-15.5358 74.49759,-23.2305 108.06055,-23.2305 32.00207,0 67.00152,7.6947 105.08594,23.2305 37.95985,15.6089 70.57044,23.3027 97.61133,23.3027 37.66674,-0.8794 72.84174,-16.3412 105.67187,-46.5332 21.17839,-18.3937 48.65969,-51.5163 82.22269,-99.3691 24.6226,-35.1019 45.8742,-73.2824 63.8281,-114.7598 6.8187,-16.2027 13.261,-33.03688 19.3906,-50.541 l -41.5742,1.98047 -84,-4 -42.5,-13 -31,8.5 -51,29.5 -9.5,12.00003 7.5,-13.50003 51.5,-31 32.5,-9.5 44,12 83.5,4.5 41.4941,-2.25586 C 1073.344,952.20773 1046.2212,934.35306 1021.9202,911.28906 967.9115,861.2377 940.4311,798.20037 939.625,722.44922 938.74563,625.19725 982.93345,549.3875 1072.2637,495.26172 1022.3589,424.32516 947.3203,384.9516 847.4375,376.89062 c -5.75947,-0.48892 -11.71764,-0.70661 -17.875,-0.65429 z"
         inkscape:connector-curvature="0"
         style="fill:#d0d0ce;fill-opacity:1;fill-rule:nonzero" />
      <path
         id="path5352"
         d="m 630.64648,270.80664 c -2.92927,3.82067 -5.74107,7.69636 -8.45507,11.61328 l 18.30859,35.27735 9,1.5 9.5,8 -9.9375,-6.875 -8.6875,-1.125 -0.6875,-0.25 -18.61719,-34.91602 c -29.64486,43.39634 -45.98633,92.20045 -45.98633,138.39648 0,7.87776 0.50687,15.37507 1.37891,22.49805 68.43768,5.56206 131.54809,-29.68594 183.72461,-90.68555 7.87264,-9.34309 14.77953,-18.87084 21.22266,-28.48632 l -1.47266,-0.63086 -16.96875,-14.14258 -1.41602,-9.89844 -9.89843,-7.07226 -9.90039,12.72851 -38.1836,-22.62695 v -12.72852 l -19.79883,1.41407 -18.38476,7.07031 -7.07031,-8.48438 c 0,0 -8.83883,-0.35448 -18.38477,-0.53125 -3.20354,-0.0593 -6.22968,-0.0455 -9.28516,-0.0449 z"
         inkscape:connector-curvature="0"
         style="fill:#d0d0ce;fill-opacity:1;fill-rule:nonzero" />
      <path
         id="path4"
         d="m 777.03125,203.28125 c 0.80138,2.94852 1.60818,5.86558 2.39063,8.97266 2.3315,9.25853 4.30664,17.88086 4.30664,17.88086 l -6.33399,9.04687 11.64063,15.88867 6.55468,18.73633 -12.2832,3.33594 -11.82812,42.7793 14.8789,6.21874 -4.23047,11.40626 -9.18164,3.96093 -9.20117,20.08203 -0.22266,1.58594 c 49.26816,16.60922 97.41665,18.82827 144.28125,6.09961 7.59952,-2.06406 15.16446,-4.49666 22.59375,-7.42578 -8.44253,-25.73081 -23.19328,-51.34605 -44.06445,-76.83008 l -16.58203,20.42774 -22.75,5.75 23,-7.75 14.27734,-20.92383 c -1.72409,-2.06478 -3.4766,-4.12838 -5.28125,-6.19141 -25.05759,-28.35282 -52.65492,-49.84801 -82.79101,-64.45898 -6.33026,-3.12379 -12.73471,-5.95331 -19.17383,-8.5918 z"
         inkscape:connector-curvature="0"
         style="fill:#d0d0ce;fill-opacity:1;fill-rule:nonzero" />
    </g>
    <g
       id="g6328"
       transform="matrix(0.29832899,0,0,0.29832899,331.45806,1397.1596)"
       style="fill:#d0d0ce;fill-opacity:1;fill-rule:nonzero"
       inkscape:label="win">
      <path
         inkscape:connector-curvature="0"
         id="path2"
         d="m 433.71489,367.63031 -71.09874,5.4861 5.60132,13.5866 0.13047,4.84021 -2.41619,2.17649 1.96491,-2.35357 -0.38735,-4.31703 -7.35497,-13.7445 -13.48553,1.04149 -3.58486,52.71204 2.68391,0.14007 5.261,-2.25762 -4.43034,2.53193 -3.58625,0.64122 -2.19328,32.24789 0.43747,-0.27308 7.93112,-2.41008 12.51679,-5.05558 7.57605,-7.66301 6.78735,-6.56882 8.99164,-5.02935 10.9832,-6.19771 5.60788,-10.67965 9.88778,-6.38072 3.35585,-9.21093 7.95667,-4.72795 1.95096,-16.52812 8.72691,-8.80753 z"
         style="font-family:none;mix-blend-mode:normal;fill:#d0d0ce;fill-opacity:1;fill-rule:nonzero;stroke:none;stroke-width:1;stroke-linecap:butt;stroke-linejoin:miter;stroke-miterlimit:10;stroke-dasharray:none;stroke-dashoffset:0" />
      <path
         d="m 137.38842,389.08709 201.63927,-34.90927 3.48173,95.28369 -4.82963,3.48881 -11.55363,1.43996 -12.37356,7.75089 -14.18472,2.5945 -10.72819,-4.05371 -13.76657,2.80302 -12.26022,13.36875 -15.95696,-6.68997 -11.76683,2.35313 -8.8139,7.69828 -9.74629,-3.44892 -9.63163,10.5486 -9.05541,1.21984 -9.4106,-1.88529 -11.05758,1.16357 -12.3188,-1.9381 -10.04181,0.69555 -14.12212,-3.28742 z"
         id="path4-2"
         inkscape:connector-curvature="0"
         style="font-family:none;mix-blend-mode:normal;fill:#d0d0ce;fill-opacity:1;fill-rule:nonzero;stroke:none;stroke-width:1;stroke-linecap:butt;stroke-linejoin:miter;stroke-miterlimit:10;stroke-dasharray:none;stroke-dashoffset:0" />
      <path
         d="m 393.7447,541.58851 -201.70562,19.78605 -6.96581,-74.53892 14.28401,2.49163 9.98712,-1.25666 12.40798,1.24539 10.97511,-1.78082 9.50138,1.35548 8.97292,-1.72491 9.02594,-11.07129 9.92411,2.89785 8.36908,-8.17966 11.61663,-3.00821 16.30647,5.78611 11.49254,-14.03417 13.58804,-3.56936 10.93831,3.44673 14.01723,-3.38458 11.92021,-8.43147 11.45489,-2.08455 4.62673,-3.75372 z"
         id="path6"
         inkscape:connector-curvature="0"
         style="font-family:none;mix-blend-mode:normal;fill:#d0d0ce;fill-opacity:1;fill-rule:nonzero;stroke:none;stroke-width:1;stroke-linecap:butt;stroke-linejoin:miter;stroke-miterlimit:10;stroke-dasharray:none;stroke-dashoffset:0" />
      <path
         id="path8"
         d="m 422.92773,540.66602 -200.72656,26.95507 8.83789,62.68946 c 12.18144,-1.02137 51.88477,-1.91211 51.88477,-1.91211 l 45.36523,-5.51758 c 0,0 -2.14591,-5.21071 -0.61328,-4.59766 1.53263,0.61305 3.67774,4.9043 3.67774,4.9043 l 19.92382,-1.5332 32.18555,-0.61328 -31.87891,2.14648 -36.7832,4.29102 6.74414,0.61328 -17.7793,2.45312 -21.45507,2.75781 2.75781,7.66407 -4.29102,-7.05078 -48.61914,4.33984 13.66211,96.91406 204.57617,-0.68554 z"
         style="font-family:none;mix-blend-mode:normal;fill:#d0d0ce;fill-opacity:1;fill-rule:nonzero;stroke:none;stroke-width:1;stroke-linecap:butt;stroke-linejoin:miter;stroke-miterlimit:10;stroke-dasharray:none;stroke-dashoffset:0"
         inkscape:connector-curvature="0" />
      <path
         id="path5236"
         d="m 684.08594,440.56445 -49.11914,14.03321 -54.40821,9.81054 -27.89257,-0.91992 -8.42969,0.15234 -16.2461,2.75977 -6.58984,2.75781 -7.66406,1.22657 -14.86719,3.21875 -11.49414,2.14453 -25.13477,0.61328 -13.48632,6.74414 -30.16993,5.74609 4.28711,45.66016 267.47657,-27.25391 z"
         style="font-family:none;mix-blend-mode:normal;fill:#d0d0ce;fill-opacity:1;fill-rule:nonzero;stroke:none;stroke-width:1;stroke-linecap:butt;stroke-linejoin:miter;stroke-miterlimit:10;stroke-dasharray:none;stroke-dashoffset:0"
         inkscape:connector-curvature="0" />
      <path
         inkscape:connector-curvature="0"
         id="path10"
         d="m 645.25398,269.38056 -178.34569,46.85054 0.38854,3.18091 -7.01068,10.22808 1.03757,16.61071 -6.98145,6.07451 -1.65495,9.6609 -8.58613,8.04768 -3.60765,11.50957 -9.69538,8.06414 -7.94737,6.55715 -5.50257,7.67654 -6.08381,8.89444 -11.41049,7.21461 -7.37115,3.78831 -0.38237,0.34693 7.45967,66.35273 30.05936,-6.29901 13.36022,-6.9906 25.11928,-1.07463 11.45283,-2.35519 14.80559,-3.49116 7.64024,-1.36706 6.5381,-2.87833 16.1927,-3.05757 8.42547,-0.30708 27.90477,0.40769 54.21891,-10.80779 48.85323,-14.93263 z"
         style="font-family:none;mix-blend-mode:normal;fill:#d0d0ce;fill-opacity:1;fill-rule:nonzero;stroke:none;stroke-width:1;stroke-linecap:butt;stroke-linejoin:miter;stroke-miterlimit:10;stroke-dasharray:none;stroke-dashoffset:0" />
      <path
         id="path12"
         d="m 713.71875,502.23242 -266.70313,37.26563 28.00586,195.38281 271.51758,-0.0664 -16.88281,-119.63281 -9.62891,-4.86914 -18.23828,-8.42773 -6.1289,-3.37305 -3.83204,-5.21094 -9.04296,-1.83789 -5.66993,-1.83984 h -1.6875 l -1.83789,-1.68555 -15.17382,-3.21875 -5.51758,-2.14648 -2.29883,1.07421 -7.20313,0.61329 -5.82421,1.68554 3.98437,-1.83984 -3.52344,-0.91992 11.1875,-0.15235 -4.29101,-6.58984 5.05664,4.9043 14.56055,2.91211 3.21874,-5.21094 -1.68554,5.21094 26.97265,5.66992 5.21094,7.20312 30.74805,13.46875 z"
         style="font-family:none;mix-blend-mode:normal;fill:#d0d0ce;fill-opacity:1;fill-rule:nonzero;stroke:none;stroke-width:1;stroke-linecap:butt;stroke-linejoin:miter;stroke-miterlimit:10;stroke-dasharray:none;stroke-dashoffset:0"
         inkscape:connector-curvature="0" />
    </g>
    <g
       id="g7135"
       transform="matrix(0.51174062,0,0,0.59879223,172.65097,1432.4871)"
       style="fill:#d0d0ce;fill-opacity:1;fill-rule:nonzero"
       inkscape:label="tux">
      <path
         id="path6973"
         d="m 72.183594,130.08008 c -3.878806,4.70746 -5.424006,6.7805 -6.990235,9.3125 -3.03109,4.90011 -4.085053,7.54245 -6.216797,15.57031 -1.87835,7.07358 -3.573101,12.42613 -5.050781,15.95313 -0.06446,0.15385 -0.195411,0.42016 -0.271484,0.59375 l 0.681641,0.85156 3.15625,0.46679 1.634765,-0.23242 -1.634765,0.9336 -3.273438,-0.58399 -1.154297,-0.15039 c -1.587223,3.39831 -4.368096,8.7738 -7.193359,13.83594 -4.7089,8.43711 -6.521974,12.92582 -7.152344,17.70117 -0.42894,3.24935 -0.305094,5.48151 0.378906,6.82227 l 0.490235,0.96093 -0.730469,1.0625 c -0.40189,0.58413 -1.040719,1.92286 -1.417969,2.97461 -0.37726,1.05176 -1.116421,2.98045 -1.644531,4.28711 l -0.960938,2.37696 -1.662109,0.77929 -1.662109,0.77735 -7.128907,0.11718 -7.126953,0.11719 -1.285156,0.67383 c -1.77692,0.93216 -4.147212,3.40773 -5.076172,5.30078 -1.9546912,3.98332 -2.0317827,7.25828 -0.429687,18.21485 1.536,10.50452 1.445066,11.69 -1.3144535,17.1621 -0.644457,1.27792 -1.811869,3.33004 -2.59375,4.5586 -1.5669125,2.46204 -2.1984138,4.165 -2.4179687,6.52734 -0.357459,3.8461 2.1780935,6.20222 9.1347652,8.48828 3.72404,1.22377 5.420237,1.60906 12.628907,2.86328 9.55129,1.66185 19.254065,4.27597 32.134765,8.65821 12.02273,4.09035 16.60442,5.38925 21.5,6.09765 7.88449,1.14093 14.464665,-1.04217 20.03125,-6.64648 1.103884,-1.11138 2.071134,-2.0253 2.148434,-2.0293 0.0773,-0.005 1.2822,-0.45887 2.67774,-1.00976 3.69888,-1.46015 8.35028,-2.5583 13.72461,-3.25 l 0.86523,-1.35157 0.82617,-4.13281 4.95899,-0.82617 2.64258,-1.81641 1.98437,-0.49609 -1.32226,1.15625 -2.8086,1.48633 -2.14844,0.82812 -1.98437,2.3125 -1.16797,2.62891 c 1.18183,-0.12813 2.38352,-0.24379 3.62695,-0.33398 4.60247,-0.33385 16.45964,-0.14378 22.55274,0.36132 7.7522,0.64264 22.49315,2.14832 22.56054,2.30469 0.0104,0.0241 0.4768,0.82574 1.03516,1.78125 2.09269,3.58113 6.07334,6.97351 10.31055,8.78711 2.73399,1.1702 4.14345,1.53106 7.80859,1.99609 4.78229,0.60676 8.81948,0.25308 12.08985,-1.05859 3.02486,-1.21318 7.34586,-4.0931 11.11328,-7.4082 4.93185,-4.33971 15.61127,-13.33522 17.75,-14.95117 5.02023,-3.79317 8.71775,-6.04725 14.78711,-9.01954 3.27771,-1.60513 6.80906,-3.2598 7.84961,-3.67578 3.67895,-1.4707 6.82454,-4.11441 8.07617,-6.78906 0.60656,-1.29615 0.75305,-1.94082 0.84375,-3.70508 0.13426,-2.61247 -0.12225,-3.63865 -1.38477,-5.5293 -1.35058,-2.02246 -2.97254,-3.20563 -7.54297,-5.50781 -2.17761,-1.09689 -4.56477,-2.43597 -5.30468,-2.97461 -4.88675,-3.55759 -5.67595,-4.3358 -6.91797,-6.82226 -0.57482,-1.15078 -0.79261,-2.09313 -1.22071,-5.25782 -1.26982,-9.38707 -3.36353,-14.15806 -6.41211,-14.61523 -0.93112,-0.13963 -1.06794,-0.22719 -0.94726,-0.60742 0.52406,-1.65117 1.59884,-6.36631 1.97266,-8.6543 1.42564,-8.7258 1.07233,-19.01605 -0.77735,-28.63476 l -5.22656,5 -3.30664,1.81836 -4.54297,1.38476 -2.62305,0.30859 -0.47656,0.82618 0.4043,-1.00977 2.6875,-0.34961 4.43945,-1.40234 3.27148,-1.75391 2.3379,-2.45312 2.96093,-2.72071 c -1.09963,-5.59715 -2.70057,-10.95907 -4.75976,-15.63867 -0.53077,-1.20619 -1.59529,-3.71823 -2.36524,-5.58203 -3.65191,-8.84016 -9.11724,-17.7454 -15.70898,-25.69336 l -0.37305,0.27344 -0.61914,0.53711 v 0.45508 h -0.41406 l 0.125,0.61914 -0.20703,0.20703 -0.45508,0.20508 -0.49609,0.125 -1.03126,-0.35157 -0.24804,-0.14453 -0.4961,0.082 h -0.51757 l -0.22657,0.24805 h -0.39257 l -0.39258,0.33203 -0.26758,0.51563 -0.86719,0.22656 -0.31054,0.37305 -0.45704,0.18359 -0.58398,0.23438 -0.70117,0.52539 0.17578,0.52539 -0.75977,0.29296 -0.34961,0.0586 -0.11718,0.52539 -0.23438,0.17578 -1.16797,0.52539 -0.35156,0.4668 -1.22656,-0.0586 -0.75977,0.41016 -0.75976,0.29102 -0.75782,-0.4668 -0.75976,0.23437 -2.33789,0.11524 -1.46094,-0.23242 -0.52539,0.11718 -2.80469,-0.46875 -1.34375,-0.46679 -2.48633,-0.32422 -0.68164,-0.22656 -0.78515,0.37109 -0.59766,0.12305 -0.74414,-0.3711 -0.61914,0.33008 -0.39649,0.0391 -0.46679,0.40821 -2.6875,-0.4668 -0.17578,-0.29297 -0.58399,0.29297 -0.58398,0.4668 -1.10938,-0.64258 -0.41015,0.52734 -0.76367,0.0332 c 0.0439,0.0831 0.0895,0.19959 0.13281,0.27148 0.42566,0.70696 1.29944,2.33704 1.9414,3.62305 0.64197,1.28601 2.84403,4.8674 4.89258,7.95898 4.91813,7.42221 6.28774,10.57666 8.14649,18.75391 1.2366,5.44022 1.67187,8.15749 1.98046,12.35351 0.55823,7.58967 -0.0277,32.19179 -0.78515,32.94922 -0.0617,0.0617 -0.67647,-0.20504 -1.36524,-0.59375 -1.72547,-0.9738 -3.95221,-1.51677 -5.43945,-1.32422 -1.75629,0.22737 -2.9853,0.92308 -4.50976,2.55274 -2.2489,2.40408 -3.60932,5.76052 -4.25586,10.50586 -0.38738,2.84325 -0.31612,9.64206 0.11328,10.875 0.22735,0.65281 0.40203,2.32788 0.48633,4.67383 l 0.13085,3.65624 -2.18359,2.80469 c -2.68744,3.45175 -8.43654,9.27719 -11.41601,11.56836 -8.66868,6.6661 -17.41473,10.35978 -28.55664,12.06055 -2.32571,0.35499 -13.93521,0.64913 -16.19727,0.41016 -6.88952,-0.7279 -12.51629,-2.57885 -16.152344,-5.3125 -1.93925,-1.45795 -2.769587,-2.54695 -4.638672,-6.08594 -1.8276,-3.46047 -1.822602,-3.65934 0.105468,-3.9375 1.878076,-0.27095 3.654261,-1.36682 6.265628,-3.86524 2.72494,-2.60707 3.39448,-3.77654 3.39648,-5.93359 10e-4,-1.47099 -0.73182,-3.20001 -2.29492,-5.39258 l -4.226562,0.98242 -5.550782,-0.34961 -2.455078,-0.93554 -0.173828,-0.9336 -0.410156,-2.74609 0.234375,-1.75391 -1.402344,-2.16211 2.044922,1.57813 -0.234375,1.92773 0.292969,2.16211 0.175781,1.22656 1.517578,0.35157 1.287109,0.46679 h 4.439453 l 3.691408,-0.85937 c -1.203293,-1.54006 -2.776039,-3.29543 -4.789064,-5.35156 -5.657305,-5.77845 -8.932718,-8.49905 -14.892578,-12.36524 -7.98467,-5.1797 -12.727543,-8.8626 -17.439453,-13.54492 -2.88648,-2.86835 -3.135562,-3.19035 -4.257813,-5.49609 -1.456639,-2.99278 -2.107821,-5.57597 -2.294921,-9.10938 -0.34721,-6.55723 1.543584,-13.77638 6.708984,-25.60937 4.26699,-9.77489 7.422453,-15.84009 9.533203,-18.32813 l 0.69336,-0.81836 0.5625,0.52539 c 0.309927,0.28921 0.774076,0.52735 1.029296,0.52735 0.53103,0 1.023438,0.41806 1.023438,0.86718 0,0.16827 -0.66074,1.17121 -1.46875,2.23047 -3.2617,4.27593 -6.501341,10.39141 -9.457031,17.84766 -5.70758,14.3983 -6.717968,25.24883 -2.892579,31.07227 0.944832,1.43832 3.662029,4.25789 3.886719,4.0332 0.07074,-0.0707 5.23e-4,-1.60836 -0.154297,-3.41602 -0.60716,-7.08913 0.667725,-15.26226 3.890625,-24.9414 2.06861,-6.21252 3.67582,-9.80999 10.22461,-22.90235 l 5.292969,-10.57812 -0.314454,-0.23438 -0.330078,-0.28906 -0.207031,-0.16602 0.123047,-0.55664 0.02148,-0.33007 -0.330078,-0.084 -0.640625,-2.00391 -0.455078,-0.9707 -1.15625,-1.07422 -0.806641,-0.43359 -0.55664,-0.86719 -0.269532,-1.50781 -0.515624,-0.74414 -0.515626,-0.28906 -0.640624,0.082 -1.570313,-0.91797 -0.527344,-0.67188 -0.908203,-0.10351 -0.546875,-0.88867 -0.609375,-0.11329 -0.382812,-0.40234 H 74.25 l 0.04297,-0.72266 h -0.382813 l 0.05664,-0.10156 H 73.324219 Z M 188.82227,144.9668 c 0.23314,-0.0218 0.56874,0.0612 1.21289,0.22851 3.15973,0.8208 6.7994,3.32534 9.32422,6.41602 3.9545,4.84081 6.31721,9.79753 7.53515,15.8164 1.78222,8.80749 0.92092,21.60674 -2.17773,32.35157 -0.43611,1.51225 -0.72623,2.79129 -0.64453,2.84179 0.0817,0.0505 1.6191,0.21368 3.41796,0.36329 10.12568,0.84211 15.08687,2.66743 19.12891,7.0332 2.11256,2.28175 3.03644,4.21883 3.05664,6.41015 0.0148,1.60078 0.003,1.63684 -0.60351,1.70704 -0.63597,0.0736 -1.36719,-0.6292 -1.36719,-1.31641 0,-0.47474 -3.62892,-5.51445 -4.50781,-6.25977 -0.94069,-0.79773 -3.84724,-2.16038 -6.59375,-3.09375 -2.72888,-0.92738 -5.75432,-1.41823 -9.81446,-1.59179 -3.87825,-0.16578 -5.27329,0.10305 -8.24023,1.58789 -1.73255,0.86707 -2.20015,1.25944 -4.5586,3.83594 -1.44498,1.57858 -2.99633,3.31395 -3.44921,3.85742 -0.67037,0.80448 -0.9201,0.95671 -1.34375,0.82226 -0.88145,-0.27977 -0.67994,-1.41549 0.6289,-3.53125 2.3463,-3.79279 5.33869,-6.78114 8.35156,-8.33984 l 1.47852,-0.76563 0.70508,-1.94531 c 1.81312,-5.00534 3.25599,-11.1451 3.88086,-16.51758 0.45652,-3.92514 0.33596,-10.92043 -0.24805,-14.37109 -0.71136,-4.20301 -2.21918,-9.14449 -3.64844,-11.95508 -2.17777,-4.28251 -6.68364,-8.62886 -11.25976,-10.85937 -1.09802,-0.5352 -1.34375,-0.75937 -1.34375,-1.23243 0,-0.31841 0.21656,-0.81075 0.48242,-1.09375 0.2345,-0.24961 0.36452,-0.3766 0.59766,-0.39843 z M 50.095703,211.11719 c 0.401136,0.0329 0.840692,0.16818 1.623047,0.43164 3.58228,1.20631 6.098842,2.86958 9.482422,6.26367 2.38665,2.39406 5.266889,6.57421 8.636719,12.53516 3.91389,6.92335 5.163083,8.79836 11.376953,17.10156 3.4406,4.59746 7.138549,9.69953 8.21875,11.33789 4.93225,7.48082 7.882229,13.68789 9.443359,19.86914 0.58284,2.30779 0.633719,2.87929 0.636719,7.18164 0.0045,5.70015 -0.0569,5.88503 -2.978516,8.80664 -3.142465,3.14247 -6.403711,5.08158 -10.199218,6.06445 -2.622361,0.67908 -6.01014,0.76765 -8.31836,0.21875 -2.76105,-0.65657 -6.574841,-1.85228 -12.738281,-3.99804 -21.94247,-7.63911 -26.692858,-8.97865 -39.392578,-11.09571 -6.30123,-1.05043 -8.618213,-1.56147 -11.470703,-2.53515 -3.82153,-1.30445 -6.4649654,-3.11754 -7.2343754,-4.95899 -0.673079,-1.6109 0.3628397,-4.81333 3.2460934,-10.02929 4.29401,-7.76809 4.756946,-11.42037 2.759766,-21.80469 -1.19312,-6.2036 -1.360281,-8.23093 -0.869141,-10.56445 0.41068,-1.95131 1.838895,-5.02772 2.953125,-6.36524 1.26969,-1.52412 4.937024,-2.2802 11.089844,-2.2832 5.44143,-0.003 9.174723,-0.66365 10.751953,-1.9043 0.85918,-0.67583 1.458142,-1.98221 1.763672,-3.84375 0.99976,-6.09135 3.585906,-8.7893 9.822266,-10.24414 0.63197,-0.14743 0.995348,-0.2165 1.396484,-0.18359 z m 132.486327,5.33008 c 1.77316,-0.006 2.84294,0.45715 4.37109,1.88476 0.87018,0.81292 1.02421,1.13282 1.56055,3.26172 0.76196,3.02451 1.97094,6.23882 2.98633,7.93945 1.22803,2.05676 3.44038,4.14384 5.41406,5.10742 2.17572,1.06224 3.84949,1.47991 7.22266,1.80079 3.19425,0.30387 5.03032,0.005 8.23437,-1.3418 2.10186,-0.88335 6.39855,-4.09221 7.55079,-5.63867 0.36073,-0.48416 1.75972,-1.93115 3.10937,-3.21485 1.34964,-1.28371 3.05143,-2.94169 3.7832,-3.68554 1.4302,-1.45384 2.8904,-2.26349 4.09766,-2.27149 0.61481,-0.004 0.82822,0.13421 1.1543,0.75391 0.64035,1.21696 1.67546,5.16113 2.3164,8.82226 0.89619,5.11914 2.20199,8.60853 4.46875,11.94336 1.46388,2.15361 5.4089,5.35094 7.73438,6.26758 5.48391,2.16155 9.40236,5.66514 10.10156,9.03321 0.34244,1.64951 0.005,3.46919 -1.03711,5.59179 -0.71383,1.45336 -0.98559,1.75819 -2.43945,2.72071 -0.90006,0.59586 -2.40732,1.37007 -3.34766,1.7207 -7.7815,2.90149 -17.77402,8.35871 -23.57617,12.87695 -0.97296,0.75767 -5.52978,4.63839 -10.125,8.62305 -4.59521,3.98467 -9.00439,7.63274 -9.79883,8.10742 -0.79444,0.47465 -2.17322,1.36841 -3.06445,1.98633 -2.44349,1.6941 -3.47704,2.16491 -6.42969,2.92969 -2.18608,0.56622 -3.27909,0.71468 -5.73828,0.77148 -3.24889,0.0751 -3.67423,0.038 -5.84375,-0.50195 -4.98809,-1.24151 -8.80824,-3.7693 -11.78906,-7.80078 -2.10592,-2.84818 -2.0431,-2.20604 -0.85547,-8.94141 0.83992,-4.76337 1.06165,-6.61943 1.15625,-9.63867 0.0727,-2.31935 0.25774,-4.25316 0.48633,-5.09375 0.2027,-0.74535 0.37004,-1.69204 0.37304,-2.10352 0.003,-0.41149 0.17599,-1.43208 0.38477,-2.26758 0.32772,-1.31143 0.40114,-4.123 0.53515,-20.5664 0.13509,-16.57537 0.20703,-19.31385 0.55469,-21.10938 1.08247,-5.5906 2.99651,-7.95539 6.44922,-7.96679 z"
         style="display:inline;fill:#d0d0ce;fill-opacity:1;fill-rule:nonzero;stroke:none;stroke-width:0.23370479;stroke-linecap:round;stroke-linejoin:round;stroke-miterlimit:4;stroke-dasharray:none;stroke-opacity:1;paint-order:normal"
         inkscape:connector-curvature="0" />
      <path
         id="path6996"
         d="m 315.52148,170.77539 -2.375,0.0879 -0.2871,0.57422 -0.0645,-0.0977 -0.17187,0.34375 -0.62696,-0.36328 -0.0879,0.17774 -0.53125,0.16211 -0.375,0.49218 -1.03906,0.0918 -0.5,0.76563 -0.83789,0.16992 -1.52344,0.99219 -0.21289,0.60937 -0.49023,0.33203 -0.89649,0.12891 -1.46875,-0.43555 -1.02343,0.10938 -0.75,0.52734 -1.47852,0.55273 -1.07227,-0.0293 -2.07812,-0.32422 -0.22266,0.25781 -0.28515,-0.16797 -0.44336,-0.35937 -0.24024,0.11133 -0.40625,0.16406 -0.35156,0.17773 0.58594,0.7793 2.38086,1.77148 c 4.69608,3.49211 9.06221,8.30233 14.94726,16.4668 5.73974,7.96286 6.56395,8.8892 10.30078,11.59766 l 1.89649,1.37304 -2.7832,1.21485 c -1.53065,0.66774 -3.88311,1.61192 -5.22852,2.09765 -3.91659,1.41412 -5.88021,3.17321 -8.49805,7.61719 -3.2837,5.57433 -4.53382,10.75858 -4.47656,18.57422 0.0342,4.67291 0.59914,9.35084 1.92188,15.94922 0.64621,3.2236 1.12685,5.87453 1.06836,5.89062 -0.59869,0.1644 -7.29696,-0.16371 -12.46485,-0.61132 -1.44683,-0.12532 -3.65399,-0.1794 -4.90625,-0.11915 -1.25228,0.0602 -4.09989,0.10797 -6.32812,0.10743 -2.22822,-5.4e-4 -5.09429,0.0512 -6.36719,0.11328 -2.10863,0.10291 -2.43405,0.0519 -3.66797,-0.56641 -2.76162,-1.38391 -8.78341,-2.8632 -11.29102,-2.80859 l -0.3125,0.69726 0.28711,0.60352 -1.07226,0.70312 0.15625,0.73243 v 0.65234 l -0.33985,0.0254 -1.62109,2.19531 0.1543,0.59961 -0.14258,0.3711 0.0176,0.70117 -0.66406,0.5 -0.15821,0.58984 -0.0195,0.86719 -0.50781,0.50781 -1.4043,2.07813 -1.01953,0.99218 -1.67578,2.29688 -0.13086,0.52344 -0.86133,1.20117 -0.94531,2.14258 -0.13086,0.7832 -0.75586,0.46875 -0.0801,0.81055 0.0254,0.86132 -0.60156,1.07032 0.25977,0.52343 -0.0527,1.28125 0.0508,0.28711 0.41797,0.33985 -0.10547,0.33984 -0.0781,0.81055 0.54883,0.0781 0.15625,0.86133 -0.0527,0.62695 -0.041,0.49219 0.19531,0.44336 -0.18555,0.87695 0.33985,0.47071 0.12109,0.5 -0.17578,0.35156 0.11914,0.3125 -0.23047,0.46289 -0.15039,0.48047 -0.24024,0.1582 -0.77539,0.76367 -0.11132,0.5 -0.0195,0.49805 0.0918,0.27735 0.60938,0.16601 -0.18555,0.37109 0.4082,0.20313 0.20117,0.79492 0.0781,0.45508 c 0.84993,-0.19711 1.70277,-0.3877 2.54687,-0.60547 1.15958,-0.29917 2.74261,-0.6394 3.51758,-0.75781 11.71462,-1.78976 19.30515,-2.82466 23.28125,-3.17383 1.6498,-0.14488 5.26834,-0.23951 8.42383,-0.26758 l 4.88281,-4.58594 10.24414,-2.64257 5.45508,0.16406 3.63477,1.98437 4.46094,-0.82617 4.29687,-1.98437 -3.80078,3.14062 -4.79102,1.15625 -4.13281,-1.48633 -4.29687,-0.16601 -10.24415,2.47851 -2.20898,2.78125 c 0.60705,0.0136 1.30958,0.0213 1.5918,0.0508 2.92538,0.30545 7.7143,1.47044 11.94531,2.90624 2.26282,0.7679 4.84045,1.59197 5.72852,1.82813 1.80432,0.47977 7.28591,2.54994 11.86914,4.48633 7.6162,3.21782 18.04552,6.89865 23.95507,8.45117 4.68343,1.23041 12.51202,2.4918 14.64454,2.36133 2.68749,-0.16441 7.45294,-0.78883 9.63086,-1.26367 2.32495,-0.50692 7.20892,-2.43822 9.52929,-3.76758 5.55631,-3.18329 11.13075,-8.22163 14.06055,-12.70899 0.58679,-0.89875 1.55697,-2.21189 2.15625,-2.91796 0.86507,-1.01926 1.57422,-2.2525 3.44141,-5.98633 3.47658,-6.95236 5.27252,-11.98638 6.4082,-17.96289 0.0715,-0.37616 0.11538,-0.72743 0.17383,-1.0918 l -14.18946,2.75586 -12.5039,-2.6875 -2.33594,-3.97266 0.11719,-4.4414 0.46679,3.74023 2.80469,3.73828 11.68555,1.98633 14.17969,-2.73047 c 0.55389,-5.02722 -0.27065,-9.17309 -2.83204,-14.78906 -2.22275,-4.87347 -4.15423,-7.7003 -7.67968,-11.24024 -4.15609,-4.17319 -7.502,-6.49521 -15.15235,-10.51367 -9.06876,-4.76348 -17.86479,-8.59064 -32.66992,-14.21875 -4.14327,-1.57506 -8.80539,-3.43063 -10.36133,-4.12109 -6.61349,-2.93484 -11.33684,-7.40064 -15.4707,-14.63281 -2.01587,-3.52677 -2.66382,-4.91143 -7.26758,-15.49024 -0.7251,-1.6662 -1.27569,-2.9112 -1.83594,-4.17578 z m 19.73047,38.82031 c 0.41481,0.0115 0.70958,0.0381 0.78125,0.0742 0.14334,0.0718 -0.26748,0.36434 -0.91211,0.65235 -4.81802,2.15255 -9.68818,6.04296 -12.76171,10.19531 -5.20669,7.03426 -6.75888,17.92871 -4.83204,33.89844 0.36731,3.04383 0.61439,3.57317 1.32813,2.83984 0.21044,-0.2162 0.56749,-0.2265 1.06445,-0.0312 l 0.74805,0.29297 -0.54883,-3.48828 c -0.8401,-5.33777 -1.12596,-8.95453 -1.09375,-13.80469 0.0465,-7.00198 0.93684,-11.55751 3.11133,-15.91016 1.61657,-3.23483 2.88511,-4.82144 5.82226,-7.28711 2.74765,-2.30659 9.0641,-5.85044 10.12891,-5.68164 0.26199,0.0415 1.07097,-0.0378 1.79883,-0.17578 1.18686,-0.22508 1.40775,-0.19122 2.12109,0.32617 2.63995,1.91476 4.69206,7.07007 5.39453,13.54297 0.2602,2.39753 0.18784,9.63888 -0.12109,12.09375 -0.22418,1.78167 -0.37833,2.22372 -1.61914,4.67969 -1.07234,2.1218 -1.6633,3.04611 -2.72656,4.25195 -2.11196,2.39524 -5.34238,5.58895 -7.92383,7.83399 -1.29424,1.12559 -3.67415,3.32665 -5.28711,4.89062 -3.84261,3.72591 -4.60266,4.38827 -7.12891,6.2168 -1.33118,0.96353 -2.74327,1.74962 -3.78515,2.11133 -0.9138,0.31726 -1.70253,0.66114 -1.75391,0.76367 -0.31518,0.62896 -3.2723,-1.03012 -4.36328,-2.44922 -1.62521,-2.11401 -2.15124,-4.32762 -3.33594,-13.97461 -1.13404,-9.23442 -1.44469,-13.2431 -1.32031,-17.12891 0.0779,-2.43335 0.60917,-6.12733 1.15625,-8.04882 1.53845,-5.40346 4.91301,-9.57305 9.85742,-12.17969 0.83889,-0.44229 4.03225,-1.61806 7.0957,-2.61328 4.51074,-1.46537 5.95584,-1.82497 7.59766,-1.88086 0.55752,-0.019 1.093,-0.0213 1.50781,-0.01 z m 18.59375,8.38477 c 1.28833,-0.0489 2.55221,0.0102 3.54883,0.18555 3.18988,0.5611 8.73955,3.64825 11.46094,6.37695 3.17292,3.18143 4.3184,5.2272 4.38281,7.82226 0.0293,1.17929 -0.0809,1.55031 -1.01367,3.41211 -0.93549,1.86715 -1.17302,2.18523 -2.23242,2.99024 -2.45234,1.86342 -7.34758,2.4854 -10.76953,1.36719 -0.91253,-0.29819 -3.21713,-1.36601 -5.12305,-2.3711 -2.9443,-1.55275 -3.4981,-1.91192 -3.68555,-2.39453 -0.12147,-0.31236 -0.37826,-0.64595 -0.57031,-0.74219 -0.22812,-0.11431 -0.26182,-0.34824 -0.0996,-0.67187 0.23806,-0.47506 0.3288,-0.46139 2.25195,0.32812 2.28283,0.93715 4.21656,1.45687 6.86719,1.84571 1.47565,0.21649 2.12641,0.16963 3.29297,-0.23829 1.92379,-0.6727 2.67291,-1.26692 3.37695,-2.67187 0.67972,-1.3564 0.811,-3.13307 0.3086,-4.19727 -1.08085,-2.28948 -1.83047,-3.52613 -2.49414,-4.11718 -0.46718,-0.41613 -1.98988,-1.24809 -4.03711,-2.20508 -2.72213,-1.27246 -3.52367,-1.55829 -4.66211,-1.66211 -1.71115,-0.15606 -3.26465,0.18757 -4.82617,1.06836 -1.02599,0.57872 -1.21934,0.61419 -1.30665,0.23828 -0.0564,-0.24284 -0.1566,-1.1173 -0.2207,-1.94336 l -0.11328,-1.50195 1.96289,-0.45703 c 1.09923,-0.25535 2.41285,-0.41204 3.70117,-0.46094 z m 8.19727,11.25781 1.04297,0.52149 c 0.81661,0.40921 1.00739,0.59713 0.87695,0.85742 -0.0918,0.18314 0.004,0.48325 0.21289,0.66601 0.24456,0.21461 0.29645,0.34615 0.11914,0.64844 h -0.002 c -0.0591,0.10082 -0.14293,0.22149 -0.25391,0.36914 -1.44828,1.92713 -4.25818,2.23534 -7.95898,0.875 l -1.26953,-0.4668 0.51953,-1.0371 c 0.50581,-1.00937 0.53869,-1.03178 1.25,-0.80079 0.40187,0.13049 1.50159,0.40481 2.4414,0.60743 l 1.70704,0.36914 0.6582,-1.30469 z m -21.78125,22.44336 c 1.33791,-0.0263 4.09837,0.25692 5.92187,0.66406 1.71674,0.38328 2.6907,0.76712 5.53516,2.1836 l 3.45313,1.71875 1.11328,1.42383 c 2.212,2.82389 2.44964,3.41068 2.42968,6.05273 -0.0204,2.6971 -0.6205,5.18677 -1.71289,7.32227 -1.40451,2.74563 -3.62465,4.90796 -6.47656,6.18945 -1.74308,0.78318 -4.16124,0.83626 -7.25586,0.15625 -1.90347,-0.41829 -2.61,-0.71317 -6.92578,-2.87696 -4.83745,-2.42525 -6.53934,-3.53491 -12.28711,-8.01367 -0.32377,-0.25228 -0.54815,-0.50951 -0.49805,-0.57422 0.0501,-0.0647 0.78066,-0.59735 1.62305,-1.18164 0.93253,-0.64681 1.80162,-1.46303 2.22266,-2.08984 0.3812,-0.56758 1.00493,-1.17794 1.39062,-1.35937 l 0.69922,-0.33008 -0.13281,1.24218 c -0.29423,2.72647 1.00588,5.24357 3.69922,7.16016 1.83671,1.307 3.47694,1.89086 6.75,2.40234 2.44475,0.38205 2.8139,0.36857 4.4414,-0.15234 3.7582,-1.20288 5.77387,-3.49477 5.79883,-6.5957 0.0175,-2.17311 -0.53862,-3.96499 -1.66211,-5.3418 -1.4005,-1.71632 -2.76875,-2.65582 -6.24609,-4.29883 -2.55279,-1.20622 -3.22049,-1.44184 -3.86133,-1.36719 -0.42599,0.0496 -0.79818,0.0101 -0.83008,-0.0859 -0.0318,-0.096 0.38644,-0.55816 0.92969,-1.02735 0.54325,-0.46919 1.04097,-0.95576 1.10547,-1.08398 0.0425,-0.0843 0.32942,-0.12794 0.77539,-0.13672 z m 5.34766,14.08203 c 0.0875,0.004 0.15771,0.0173 0.20898,0.043 0.0763,0.0382 0.14612,0.66681 0.15625,1.39453 0.008,0.60346 -0.0247,1.0273 -0.18359,1.36133 -0.26486,0.5567 -0.87367,0.86502 -2.20508,1.35742 -1.62777,0.60205 -2.57162,0.53389 -4.26172,-0.30859 -0.6713,-0.33527 -1.36236,-0.49462 -1.93164,-0.44727 l -0.88672,0.0723 0.50586,-1.00586 c 0.49257,-0.98292 0.5278,-1.00698 1.41016,-0.86133 1.88582,0.31129 3.52786,0.0817 4.48437,-0.62891 0.6963,-0.5173 2.09089,-1.00143 2.70313,-0.97656 z"
         style="display:inline;fill:#d0d0ce;fill-opacity:1;fill-rule:nonzero;stroke:none;stroke-width:0.23370479;stroke-linecap:round;stroke-linejoin:round;stroke-miterlimit:4;stroke-dasharray:none;stroke-opacity:1;paint-order:normal"
         inkscape:connector-curvature="0" />
    </g>
    <path
       style="fill:#fe5000;fill-opacity:1;stroke:none;stroke-width:5.26006031;stroke-linecap:round;stroke-linejoin:round;stroke-miterlimit:4;stroke-dasharray:none;stroke-opacity:1;paint-order:normal"
       d="m 130.75949,1471.218 4.00921,37.5816 193.54825,-20.6477 -4.00921,-37.5816 z m 109.64467,-6.696 6.42253,-0.6851 1.72273,16.1485 c 0.0713,0.6682 0.19919,1.2912 0.38629,1.8719 0.21186,0.5782 0.48996,1.0745 0.83447,1.4883 0.34449,0.4138 0.75523,0.7342 1.22975,0.959 0.47187,0.1999 1.01727,0.2665 1.63598,0.2005 0.61871,-0.066 1.13777,-0.2461 1.55684,-0.5412 0.41643,-0.3197 0.73623,-0.7181 0.96094,-1.1926 0.24946,-0.4772 0.40444,-1.0197 0.4648,-1.6269 0.0851,-0.6098 0.0928,-1.2472 0.0215,-1.9154 l -1.72272,-16.1486 6.42255,-0.6851 1.77411,16.6302 c 0.17424,1.6333 0.10945,3.1549 -0.19081,4.5636 -0.27553,1.406 -0.77953,2.6489 -1.51537,3.7286 -0.71374,1.0523 -1.66121,1.9168 -2.84054,2.5933 -1.182,0.6517 -2.59046,1.0518 -4.22651,1.2013 h -0.0369 c -1.80399,0.2176 -3.37037,0.096 -4.69589,-0.3633 -1.32553,-0.4593 -2.4373,-1.1533 -3.33751,-2.0836 -0.90283,-0.9549 -1.6104,-2.0809 -2.12419,-3.3777 -0.48905,-1.2994 -0.81223,-2.6792 -0.96799,-4.1394 z m -104.42112,11.1768 16.92739,-1.8058 0.66527,6.2361 -10.69129,1.1406 0.47527,4.4551 7.86941,-0.8395 0.66527,6.2361 -7.86941,0.8395 1.14055,10.6914 -6.23611,0.6652 z m 18.5607,-1.98 8.38989,-0.895 h 0.0369 c 1.58391,-0.1689 2.92161,-0.062 4.01385,0.3222 1.11435,0.3567 2.02483,0.9103 2.73068,1.6611 0.72794,0.7232 1.2857,1.6155 1.6741,2.6754 0.38576,1.0351 0.64141,2.1458 0.76814,3.3338 0.13201,1.2374 0.039,2.3608 -0.27877,3.3708 -0.29301,1.0075 -0.68747,1.8764 -1.1854,2.6053 -0.47582,0.7016 -0.97946,1.2567 -1.51171,1.6639 -0.5349,0.3825 -0.96306,0.5899 -1.2848,0.6242 l 6.78109,10.4274 -7.16441,0.7643 -4.67174,-8.5881 -0.0738,0.01 0.95843,8.9842 -6.23609,0.6653 z m 26.3932,-2.8156 8.31609,-0.8872 11.03911,26.7554 -7.09063,0.7564 -3.26394,-7.0097 -5.38157,0.5741 -1.67484,7.5366 -7.09061,0.7564 z m 26.69229,-2.8476 h 0.0369 c 1.50966,-0.161 2.83132,-0.089 3.96514,0.2153 1.13382,0.3047 2.12073,0.7499 2.95922,1.3362 0.86323,0.5838 1.57319,1.2714 2.13318,2.0628 0.58474,0.7886 1.05901,1.5894 1.42101,2.4018 l -5.0628,3.5808 c -0.19601,-0.4297 -0.45526,-0.8646 -0.77766,-1.3058 -0.29765,-0.4438 -0.65216,-0.8317 -1.06299,-1.1633 -0.41084,-0.3317 -0.86155,-0.5844 -1.35552,-0.757 -0.49399,-0.1726 -1.00034,-0.2188 -1.51742,-0.1386 -1.25166,0.2331 -2.21133,0.8497 -2.88084,1.8472 -0.64741,0.9702 -0.89969,2.1351 -0.75448,3.4963 l 0.57431,5.3835 c 0.1452,1.3611 0.65251,2.4715 1.52004,3.3302 0.86489,0.8338 1.93278,1.2317 3.2055,1.196 1.07215,-0.039 1.92147,-0.4042 2.54842,-1.0968 0.65171,-0.6953 1.11686,-1.4961 1.39568,-2.4018 l 5.70424,2.432 c -0.17522,0.4692 -0.43633,1.0722 -0.78312,1.8101 -0.32205,0.7352 -0.81799,1.4778 -1.48915,2.2252 -0.67117,0.7474 -1.56236,1.4299 -2.67273,2.049 -1.08826,0.5916 -2.47374,0.9769 -4.15664,1.1564 h -0.0369 c -1.88088,0.2006 -3.49715,0.072 -4.84743,-0.3845 -1.32553,-0.4593 -2.4501,-1.1396 -3.37241,-2.0425 -0.90019,-0.9302 -1.60515,-2.0318 -2.11631,-3.3038 -0.5138,-1.2969 -0.88409,-2.6575 -1.11146,-4.0849 l -0.60995,-5.7175 c -0.12045,-1.3639 -0.0405,-2.7252 0.24026,-4.0818 0.30289,-1.3839 0.8197,-2.6405 1.55026,-3.7697 0.7553,-1.1319 1.74362,-2.0744 2.96453,-2.8304 1.21828,-0.7808 2.68147,-1.2623 4.38912,-1.4445 z m 11.95366,-1.2752 18.78404,-2.0038 0.66527,6.2361 -6.27495,0.6694 2.28109,21.3825 -6.2361,0.6653 -2.28109,-21.3826 -6.273,0.6692 z m 43.2099,-4.6096 8.38989,-0.895 h 0.0369 c 1.5839,-0.1689 2.92161,-0.062 4.01385,0.3222 1.11434,0.3567 2.02483,0.9103 2.73067,1.6611 0.72794,0.7232 1.28571,1.6155 1.67411,2.6754 0.38576,1.0351 0.64335,2.1457 0.77008,3.3336 0.132,1.2374 0.039,2.3608 -0.27877,3.3708 -0.29301,1.0075 -0.68941,1.8766 -1.18735,2.6056 -0.47581,0.7015 -0.97946,1.2566 -1.51171,1.6638 -0.53489,0.3825 -0.96306,0.5899 -1.28478,0.6242 l 6.78108,10.4274 -7.16441,0.7643 -4.66981,-8.5883 -0.0758,0.01 0.95844,8.9842 -6.2361,0.6653 z m 19.37832,-2.0673 16.92739,-1.8058 0.66527,6.2361 -10.6913,1.1406 0.47527,4.4551 7.86942,-0.8395 0.66527,6.2361 -7.86942,0.8395 0.47528,4.4552 10.6913,-1.1405 0.66526,6.2361 -16.92739,1.8058 z m 19.37832,-2.0672 5.56802,-0.594 c 2.15311,-0.2297 4.08546,-0.074 5.79543,0.4698 1.70733,0.5188 3.17028,1.339 4.39122,2.4602 1.2183,1.0966 2.1917,2.4704 2.91834,4.12 0.724,1.6248 1.1891,3.4132 1.39767,5.3683 0.19801,1.8562 0.17644,3.6493 -0.0648,5.377 -0.24382,1.7031 -0.78031,3.2361 -1.61085,4.6012 -0.83053,1.3652 -1.98622,2.5036 -3.46618,3.4123 -1.47994,0.9088 -3.34672,1.4826 -5.59883,1.7228 l -0.81569,0.087 -5.56801,0.594 z"
       id="rect844"
       inkscape:connector-curvature="0" />
    <path
       style="fill:#fe5000;fill-opacity:1;stroke:none;stroke-width:5.4557476;stroke-linecap:round;stroke-linejoin:round;stroke-miterlimit:4;stroke-dasharray:none;stroke-opacity:1;paint-order:normal"
       d="m 231.8922,1499.9401 6.22971,37.2781 257.9656,-43.1099 -6.22971,-37.2781 z m 23.93848,1.0413 6.37064,-1.0647 2.67688,16.018 c 0.11076,0.6629 0.27567,1.2792 0.49688,1.8478 0.24575,0.5645 0.55277,1.0435 0.92121,1.436 0.36841,0.3928 0.79709,0.6864 1.28409,0.8826 0.4829,0.1716 1.03129,0.2057 1.64491,0.1048 0.61373,-0.1022 1.12118,-0.3132 1.52201,-0.6325 0.39675,-0.3438 0.6927,-0.7585 0.88889,-1.2456 0.22074,-0.491 0.34328,-1.0419 0.36758,-1.6515 0.0491,-0.6138 0.0164,-1.2522 -0.0943,-1.9149 l -2.67685,-16.0182 6.37065,-1.0647 2.75669,16.4959 c 0.27076,1.6203 0.2982,3.1426 0.0819,4.5666 -0.19168,1.4198 -0.62306,2.6908 -1.29361,3.8123 -0.65011,1.0927 -1.54274,2.0115 -2.67993,2.7567 -1.14126,0.7207 -2.52355,1.2033 -4.14786,1.4496 l -0.0391,0.01 c -1.78793,0.3241 -3.35645,0.2977 -4.70692,-0.083 -1.35043,-0.3799 -2.5017,-1.0087 -3.45543,-1.884 -0.95787,-0.8996 -1.73285,-1.9813 -2.3226,-3.2454 -0.56521,-1.2682 -0.96769,-2.6267 -1.20974,-4.0752 z m -18.44311,3.1196 16.79252,-2.8062 1.03372,6.1856 -10.60489,1.7724 0.73851,4.419 7.80582,-1.3043 1.03373,6.1857 -7.80583,1.3043 1.77225,10.605 -6.18762,1.0341 z m 40.68964,-6.7998 6.29744,-1.0524 9.57225,12.2163 -2.24612,-13.4406 6.55557,-1.0956 4.57821,27.3955 -6.26084,1.0464 -9.61692,-12.2465 2.25226,13.4772 -6.55365,1.0952 z m 32.40415,-5.4152 h 0.0365 c 1.49745,-0.2503 2.82104,-0.2571 3.97093,-0.02 1.14988,0.2369 2.16145,0.6227 3.03323,1.1584 0.8963,0.5315 1.64578,1.1759 2.25169,1.9327 0.63045,0.7526 1.15134,1.5239 1.56088,2.3134 l -4.84167,3.8746 c -0.22113,-0.4175 -0.50571,-0.836 -0.85368,-1.2575 -0.32344,-0.4253 -0.6984,-0.7918 -1.12815,-1.0985 -0.42978,-0.3068 -0.8966,-0.532 -1.39993,-0.675 -0.50335,-0.143 -1.01154,-0.1596 -1.52295,-0.049 -1.23558,0.3073 -2.15708,0.9793 -2.76629,2.0148 -0.58877,1.0067 -0.77122,2.1866 -0.54558,3.5367 l 0.89206,5.3382 c 0.22564,1.3501 0.79786,2.4285 1.71477,3.2342 0.91278,0.7811 2.00268,1.1168 3.27106,1.0058 1.06789,-0.1029 1.89381,-0.5193 2.47863,-1.2479 0.60932,-0.7327 1.02618,-1.5596 1.25083,-2.4803 l 5.83837,2.0897 c -0.1471,0.4787 -0.37167,1.0982 -0.67414,1.8552 -0.27791,0.753 -0.72927,1.5218 -1.35496,2.3076 -0.62568,0.786 -1.47485,1.5201 -2.54657,2.2039 -1.05129,0.6551 -2.41117,1.1237 -4.08047,1.4026 h -0.0365 c -1.86569,0.3118 -3.4867,0.2798 -4.86171,-0.097 -1.35042,-0.3799 -2.51366,-0.9942 -3.48786,-1.8409 -0.95374,-0.8751 -1.72244,-1.9311 -2.30809,-3.1708 -0.58978,-1.2639 -1.04036,-2.602 -1.35195,-4.0136 l -0.94777,-5.6714 c -0.20108,-1.3543 -0.20171,-2.7161 -0.002,-4.0868 0.22034,-1.3994 0.66175,-2.6845 1.3241,-3.855 0.68689,-1.1745 1.61725,-2.176 2.79122,-3.003 1.16985,-0.8516 2.60193,-1.4191 4.29578,-1.7021 z m 11.85705,-1.9816 18.63225,-3.1136 1.03372,6.1856 -6.22424,1.0402 3.54449,21.2097 -6.18571,1.0338 -3.54447,-21.2097 -6.22232,1.0398 z m 20.6203,-3.4459 6.18571,-1.0337 4.57819,27.3954 -6.18571,1.0339 z m 19.03678,-3.1813 h 0.0365 c 1.44836,-0.2422 2.85865,-0.1868 4.22948,0.1645 1.39542,0.3473 2.68483,0.9634 3.86772,1.8507 1.03964,0.7853 1.87851,1.7303 2.5173,2.8348 0.63879,1.1044 1.07494,2.2819 1.30871,3.5299 l 1.07075,6.4071 c 0.22153,1.3256 0.23824,2.7096 0.0506,4.1541 -0.16713,1.4157 -0.65477,2.7209 -1.46439,3.9159 -0.82599,1.2483 -1.84265,2.2643 -3.04938,3.0463 -1.18215,0.7779 -2.49782,1.2887 -3.94618,1.5308 h -0.0365 c -1.42381,0.2381 -2.83213,0.1828 -4.22759,-0.1645 -1.37088,-0.3511 -2.6606,-0.9693 -3.86803,-1.8524 -1.1297,-0.8712 -2.01307,-1.9225 -2.64783,-3.1536 -0.61019,-1.2356 -1.05044,-2.5858 -1.32113,-4.0546 l -1.07074,-6.4073 c -0.19691,-1.1782 -0.16108,-2.4098 0.10399,-3.6905 0.2613,-1.3055 0.74327,-2.4961 1.44657,-3.5726 0.85463,-1.2278 1.87364,-2.2297 3.05579,-3.0076 1.18218,-0.7781 2.49593,-1.2885 3.94427,-1.5305 z m 12.1884,-2.0369 6.29744,-1.0524 9.57419,12.2159 -2.24612,-13.4405 6.55364,-1.0952 4.5782,27.3955 -6.25889,1.0459 -9.61691,-12.2465 2.25224,13.4773 -6.5556,1.0955 z m 29.16391,-4.8738 8.24892,-1.3785 12.60554,26.054 -7.03331,1.1753 -3.67371,-6.8038 -5.34001,0.8923 -1.22325,7.6224 -7.03332,1.1753 z m 17.82124,-2.9781 6.18764,-1.0341 3.54447,21.2098 7.32613,-1.2242 1.03373,6.1857 -13.51376,2.2582 z m 15.87169,-2.6523 6.18571,-1.0338 4.57819,27.3955 -6.18569,1.0336 z m 8.39531,-1.4031 18.63223,-3.1138 1.03373,6.1858 -6.22231,1.0399 3.54448,21.2097 -6.18764,1.0341 -3.54447,-21.2098 -6.2223,1.0399 z m 20.36215,-3.4028 6.92352,-1.157 4.28659,5.945 2.08405,-7.0096 6.92158,-1.1568 -5.07539,14.9295 2.28894,13.6968 -5.81777,0.9722 -2.28892,-13.6968 z"
       id="rect851"
       inkscape:connector-curvature="0" />
  </g>
</svg>
