<?xml version="1.0" encoding="UTF-8" standalone="no"?>
<svg
   xmlns:dc="http://purl.org/dc/elements/1.1/"
   xmlns:cc="http://creativecommons.org/ns#"
   xmlns:rdf="http://www.w3.org/1999/02/22-rdf-syntax-ns#"
   xmlns:svg="http://www.w3.org/2000/svg"
   xmlns="http://www.w3.org/2000/svg"
   xmlns:sodipodi="http://sodipodi.sourceforge.net/DTD/sodipodi-0.dtd"
   xmlns:inkscape="http://www.inkscape.org/namespaces/inkscape"
   version="1.1"
   width="150mm"
   height="54mm"
   viewBox="0 0 566.9291 204.09449"
   id="svg5458"
   sodipodi:docname="36c3_sticker.svg"
   inkscape:version="0.92.4 5da689c313, 2019-01-14">
  <metadata
     id="metadata5464">
    <rdf:RDF>
      <cc:Work
         rdf:about="">
        <dc:format>image/svg+xml</dc:format>
        <dc:type
           rdf:resource="http://purl.org/dc/dcmitype/StillImage" />
        <dc:title />
      </cc:Work>
    </rdf:RDF>
  </metadata>
  <defs
     id="defs5462" />
  <sodipodi:namedview
     pagecolor="#000000"
     bordercolor="#666666"
     borderopacity="1"
     objecttolerance="10"
     gridtolerance="10"
     guidetolerance="10"
     inkscape:pageopacity="0"
     inkscape:pageshadow="2"
     inkscape:window-width="1920"
     inkscape:window-height="1176"
     id="namedview5460"
     showgrid="false"
     inkscape:zoom="4.6136928"
     inkscape:cx="402.92918"
     inkscape:cy="93.659806"
     inkscape:window-x="0"
     inkscape:window-y="0"
     inkscape:window-maximized="1"
     inkscape:current-layer="g5456"
     units="mm" />
  <g
     stroke-width="none"
     stroke-linecap="none"
     stroke-miterlimit="none"
     font-weight="none"
     font-size="none"
     text-anchor="none"
     style="font-family:none;mix-blend-mode:normal;fill:none;fill-rule:nonzero;stroke:none;stroke-linejoin:miter;stroke-dasharray:none;stroke-dashoffset:0"
     id="g5456"
     transform="translate(0,-1432.7722)">
    <rect
       style="fill:#000000;fill-opacity:1;stroke:#ffffff;stroke-width:0.3872458;stroke-linecap:round;stroke-linejoin:round;stroke-miterlimit:9.86666679;stroke-dasharray:none;stroke-opacity:1;paint-order:normal"
       id="rect865"
       width="566.54193"
       height="203.70724"
       x="0.19360135"
       y="1432.9658"
       inkscape:label="black_background" />
    <g
       id="g7019"
       inkscape:label="inductor"
       transform="matrix(0.35627447,0,0,0.35627447,0.21619452,1297.4267)"
       style="fill:#effaff;fill-opacity:1;stroke:none">
      <path
         style="fill:#effaff;fill-opacity:1;stroke:none;stroke-width:3.77952766;stroke-linecap:butt;stroke-miterlimit:9.86666679;stroke-dasharray:none;stroke-opacity:1"
         inkscape:connector-curvature="0"
         id="path5423"
         stroke-miterlimit="10"
         d="m 641.31007,883.68837 2.30589,7.19187" />
      <path
         style="fill:#effaff;fill-opacity:1;stroke:none;stroke-width:3.77952766;stroke-linecap:butt;stroke-miterlimit:9.86666679;stroke-dasharray:none;stroke-opacity:1"
         inkscape:connector-curvature="0"
         id="path5427"
         stroke-miterlimit="10"
         d="m 641.30761,882.74598 2.62358,8.13093" />
      <path
         style="fill:#effaff;fill-opacity:1;stroke:none;stroke-width:3.77952766;stroke-linecap:butt;stroke-miterlimit:9.86666679;stroke-dasharray:none;stroke-opacity:1"
         inkscape:connector-curvature="0"
         id="path5435"
         stroke-miterlimit="10"
         d="m 711.94896,888.59456 c -6.63513,-1.91748 -14.718,-11.43688 -18.10774,-21.37253 -8.95031,-25.97511 -5.96377,-71.74407 6.5533,-100.49667 2.15262,-4.9506 3.92012,-10.04451 3.91569,-11.30642 -0.007,-3.41186 -12.19462,-11.53661 -20.89423,-13.94125 -4.5947,-1.26689 -12.76522,-1.78362 -20.59954,-1.28444 -30.08849,1.90006 -40.37865,16.47784 -38.23445,54.17388 0.81871,14.3997 3.63336,29.48981 8.51815,45.54019 l -0.83915,2.05873 -8.48426,6.57077 -5.55828,7.77021 -5.58087,13.70846 6.83519,-9.91021 6.18544,-5.87109 9.11142,-4.67165 0.95411,-1.52429 c 3.23967,9.51115 7.18158,19.36132 11.84026,29.60335 l 5.13743,11.28431 -74.45265,0.24865 -74.45174,0.24818 -0.0383,-12.56334 -0.0377,-12.56255 55.37641,-0.18465 c 51.97426,-0.1735 55.3193,-0.38515 54.44537,-3.11429 -5.93221,-18.64605 -9.80163,-33.23396 -12.02006,-46.0675 l 9.65417,-10.52387 -10.21933,7.0606 c -1.63516,-10.66698 -2.10156,-20.21509 -1.65308,-30.06462 1.51094,-33.17627 13.91677,-52.3848 40.41764,-62.57955 5.66336,-2.17784 10.95164,-2.9916 22.05459,-3.16011 l 1.45006,7.47386 1.45894,-7.503 c 0.85369,-0.005 1.73881,-0.006 2.65751,-0.005 21.84658,0.0276 32.43693,3.05515 45.60428,13.04161 l 7.38885,5.60258 7.42618,-5.68874 c 5.21927,-3.99551 11.0223,-7.05417 17.14022,-9.17613 l 6.85988,11.66932 -3.00791,-12.55727 -0.16253,-0.26808 c 19.187,-5.38418 40.85099,-1.8916 57.14831,10.47328 l 7.63055,5.79219 5.29633,-4.06429 c 11.83062,-9.07906 23.14051,-13.48435 36.83951,-14.35119 18.07099,-1.14312 29.13361,1.62717 42.35301,10.61432 l 10.91683,7.42141 9.89289,-6.65451 c 2.45951,-1.65426 4.77421,-3.10663 7.00531,-4.37438 l 2.14015,3.40708 6.71618,14.90689 7.68946,1.28515 c -4.26737,1.59111 -8.37553,3.94293 -12.523,7.1286 l -5.69588,4.37064 5.76159,12.37192 c 8.85856,19.00583 13.07058,38.42818 13.24734,61.08196 0.28127,36.13057 -11.3429,56.93025 -34.24209,61.26234 -11.8452,2.24025 -26.58779,-6.22275 -33.18698,-19.05428 -11.76123,-22.86448 -7.55452,-66.1209 9.91119,-101.90828 7.69391,-15.76596 7.69219,-15.77618 -5.52572,-22.91479 -12.09979,-6.53111 -26.13441,-6.48591 -38.18929,0.12712 -12.98161,7.12244 -13.1199,7.52675 -7.03642,20.61118 9.51992,20.46256 12.59383,35.15747 12.85291,61.35601 0.18234,18.4723 -0.40143,25.34769 -2.75903,32.41901 -6.57338,19.72305 -17.20237,29.5238 -31.98862,29.49599 -10.64151,-0.0127 -18.00951,-3.83932 -24.46124,-12.68653 -7.94713,-10.91393 -10.79048,-22.69786 -10.76389,-44.80844 0.0277,-23.2865 4.21308,-42.5485 13.67403,-62.91381 l 6.45665,-13.89852 -4.4212,-4.24312 c -13.83408,-13.16915 -42.49193,-12.75742 -54.6604,0.77917 -2.7738,3.09257 -2.78417,3.5957 -0.0663,9.2552 9.73891,20.34957 13.59831,41.74012 12.44606,68.99956 -1.79656,42.52308 -16.92663,65.39424 -39.03398,59.00675 z M 818.72003,857.8305 c 6.66264,-13.15203 5.95228,-45.99727 -1.48407,-68.6567 -1.43253,-4.37338 -3.19227,-7.94667 -3.91175,-7.94396 -2.22415,0.007 -8.3865,22.26967 -10.36693,37.45617 -2.93827,22.53397 2.05132,46.30509 9.71498,46.27938 1.33958,-7.6e-4 4.06573,-3.21749 6.05006,-7.13686 z m 90.19534,5.16143 c 11.81877,-6.37631 12.2333,-58.36733 0.64037,-80.31475 l -2.18671,-4.18831 -2.65128,6.40702 c -12.13654,29.32239 -14.5111,67.52873 -4.79619,77.17954 3.04024,2.99861 4.7841,3.18126 9.01743,0.8993 z M 723.76908,849.42187 c 4.1721,-16.24811 2.43879,-58.24574 -2.61825,-63.45722 -2.74603,-2.79168 -7.27225,24.48514 -7.21724,43.32709 0.0542,18.36192 3.00695,34.41961 5.80924,31.59333 0.79921,-0.8061 2.61517,-5.96837 4.02632,-11.46311 z" />
      <path
         style="fill:#effaff;fill-opacity:1;stroke:none;stroke-width:3.77952766;stroke-linecap:square;stroke-miterlimit:9.86666679;stroke-dasharray:none;stroke-opacity:1"
         inkscape:connector-curvature="0"
         stroke-miterlimit="4"
         id="path5264 1 1"
         d="m 951.47378,854.90927 c 4.27632,-7.32655 8.44574,-12.6727 13.46424,-16.76921 l 5.2029,3.73629 10.4218,8.91922 -6.9233,-10.85828 -4.7335,-4.66587 c 4.8592,-3.10037 10.567,-5.371 17.7802,-7.31398 9.1669,-2.46737 18.23098,-3.41141 28.04398,-2.73073 l 0.1106,3.05514 -4.3795,8.65748 -5.2573,12.91938 -0.1908,0.24473 c -3.9846,0.14903 -7.7057,0.65501 -11.07588,1.54206 -11.6385,3.10091 -16.9987,7.1877 -22.1891,17.07136 -2.5085,4.78925 -4.0567,9.5506 -4.6814,14.57186 l -4.6949,6.22391 -16.32314,-0.93739 -4.01056,0.32231 c -0.45884,-12.72022 2.15863,-21.51655 9.43567,-33.9883 z" />
      <path
         style="fill:#effaff;fill-opacity:1;stroke:none;stroke-width:3.77952766;stroke-linecap:butt;stroke-miterlimit:9.86666679;stroke-dasharray:none;stroke-opacity:1"
         inkscape:connector-curvature="0"
         id="path5450"
         stroke-miterlimit="10"
         d="m 1042.6599,803.24857 c 1.4818,15.84861 0.6138,30.76116 -3.0763,51.57115 l -2.2465,0.0171 1.478,4.1863 c -0.032,0.17238 -0.065,0.34516 -0.098,0.51835 l -1.0404,5.50673 3.599,-0.0275 13.8848,9.31897 -10.0104,-9.34853 42.1437,-0.32152 49.6179,-0.37931 -0.2005,12.55396 -0.201,12.55316 -64.8078,0.13732 c -62.0864,0.13145 -64.986,-5.7e-4 -69.0383,-3.11939 -7.73866,-5.94939 -6.38826,-16.95531 2.5758,-21.03219 6.8691,-3.1208 8.6898,-7.39257 11.6786,-27.34094 1.9508,-13.03348 2.0285,-26.5968 0.5091,-39.27245 l 2.0633,-3.66279 4.1816,-15.12552 -4.9352,11.19714 -1.9642,2.81405 c -1.9431,-12.57684 -5.4859,-24.06045 -10.3423,-32.98169 l 0.3041,0.0621 13.9092,-1.04045 9.702,0.0699 2.6869,-1.45837 c 4.9111,11.8844 7.9054,26.15072 9.6266,44.60435 z" />
    </g>
    <g
       id="g7012"
       inkscape:label="mosfet"
       transform="matrix(0.35627447,0,0,0.35627447,-11.431767,1297.4267)"
       style="fill:#effaff;fill-opacity:1;stroke:none">
      <path
         style="font-family:none;mix-blend-mode:normal;fill:#effaff;fill-opacity:1;fill-rule:nonzero;stroke:none;stroke-width:3.77952766;stroke-linecap:butt;stroke-linejoin:miter;stroke-miterlimit:9.86666679;stroke-dasharray:none;stroke-dashoffset:0;stroke-opacity:1"
         inkscape:connector-curvature="0"
         id="path6255"
         d="m 473.22474,724.14644 -3.64101,3.41284 -0.24957,-7.21575 0.14193,-0.223 z" />
      <path
         style="font-family:none;mix-blend-mode:normal;fill:#effaff;fill-opacity:1;fill-rule:nonzero;stroke:none;stroke-width:3.77952766;stroke-linecap:butt;stroke-linejoin:miter;stroke-miterlimit:9.86666679;stroke-dasharray:none;stroke-dashoffset:0;stroke-opacity:1"
         inkscape:connector-curvature="0"
         id="path6257"
         d="m 305.28885,606.88525 -3.56646,21.40111 -25.29224,-4.21491 14.59006,-87.55002 25.29224,4.21491 -6.97081,41.8295 83.37176,13.89376 -1.64143,14.42456 -1.37108,10.06822 z" />
      <path
         style="font-family:none;mix-blend-mode:normal;fill:#effaff;fill-opacity:1;fill-rule:nonzero;stroke:none;stroke-width:3.77952766;stroke-linecap:butt;stroke-linejoin:miter;stroke-miterlimit:9.86666679;stroke-dasharray:none;stroke-dashoffset:0;stroke-opacity:1"
         inkscape:connector-curvature="0"
         id="path6259"
         d="m 102.1806,609.14823 0.37167,-1.34335" />
      <path
         style="font-family:none;mix-blend-mode:normal;fill:#effaff;fill-opacity:1;fill-rule:nonzero;stroke:none;stroke-width:3.77952766;stroke-linecap:butt;stroke-linejoin:miter;stroke-miterlimit:9.86666679;stroke-dasharray:none;stroke-dashoffset:0;stroke-opacity:1"
         inkscape:connector-curvature="0"
         id="path6263"
         d="m 120.08588,654.46384 -0.23744,4.04005" />
      <path
         style="font-family:none;mix-blend-mode:normal;fill:#effaff;fill-opacity:1;fill-rule:nonzero;stroke:none;stroke-width:3.77952766;stroke-linecap:butt;stroke-linejoin:miter;stroke-miterlimit:9.86666679;stroke-dasharray:none;stroke-dashoffset:0;stroke-opacity:1"
         inkscape:connector-curvature="0"
         id="path6267"
         d="m 111.38774,752.9949 -1.28214,-3.19595" />
      <path
         style="font-family:none;mix-blend-mode:normal;fill:#effaff;fill-opacity:1;fill-rule:nonzero;stroke:none;stroke-width:3.77952766;stroke-linecap:butt;stroke-linejoin:miter;stroke-miterlimit:9.86666679;stroke-dasharray:none;stroke-dashoffset:0;stroke-opacity:1"
         inkscape:connector-curvature="0"
         id="path6271"
         d="m 149.88311,772.20491 0.18709,0.29522" />
      <path
         style="font-family:none;mix-blend-mode:normal;fill:#effaff;fill-opacity:1;fill-rule:nonzero;stroke:none;stroke-width:3.77952766;stroke-linecap:butt;stroke-linejoin:miter;stroke-miterlimit:9.86666679;stroke-dasharray:none;stroke-dashoffset:0;stroke-opacity:1"
         inkscape:connector-curvature="0"
         id="path6275"
         d="m 243.33646,849.71127 0.92827,0.3618" />
      <path
         style="font-family:none;mix-blend-mode:normal;fill:#effaff;fill-opacity:1;fill-rule:nonzero;stroke:none;stroke-width:3.77952766;stroke-linecap:butt;stroke-linejoin:miter;stroke-miterlimit:9.86666679;stroke-dasharray:none;stroke-dashoffset:0;stroke-opacity:1"
         inkscape:connector-curvature="0"
         id="path6281"
         d="m 329.28613,888.41151 -5.97929,0.3427" />
      <path
         style="font-family:none;mix-blend-mode:normal;fill:#effaff;fill-opacity:1;fill-rule:nonzero;stroke:none;stroke-width:3.77952766;stroke-linecap:butt;stroke-linejoin:miter;stroke-miterlimit:9.86666679;stroke-dasharray:none;stroke-dashoffset:0;stroke-opacity:1"
         inkscape:connector-curvature="0"
         id="path6285"
         d="m 408.29824,745.99431 -4.00758,0.87431" />
      <path
         style="font-family:none;mix-blend-mode:normal;fill:#effaff;fill-opacity:1;fill-rule:nonzero;stroke:none;stroke-width:3.77952766;stroke-linecap:butt;stroke-linejoin:miter;stroke-miterlimit:9.86666679;stroke-dasharray:none;stroke-dashoffset:0;stroke-opacity:1"
         inkscape:connector-curvature="0"
         id="path6289"
         d="m 385.60339,724.70143 4.75406,-1.03717" />
      <path
         style="font-family:none;mix-blend-mode:normal;fill:#effaff;fill-opacity:1;fill-rule:nonzero;stroke:none;stroke-width:3.77952766;stroke-linecap:butt;stroke-linejoin:miter;stroke-miterlimit:9.86666679;stroke-dasharray:none;stroke-dashoffset:0;stroke-opacity:1"
         inkscape:connector-curvature="0"
         id="path6293"
         d="m 307.72094,691.76084 -2.02571,-9.28522" />
      <path
         style="font-family:none;mix-blend-mode:normal;fill:#effaff;fill-opacity:1;fill-rule:nonzero;stroke:none;stroke-width:3.77952766;stroke-linecap:butt;stroke-linejoin:miter;stroke-miterlimit:9.86666679;stroke-dasharray:none;stroke-dashoffset:0;stroke-opacity:1"
         inkscape:connector-curvature="0"
         id="path6297"
         d="m 308.12011,693.59048 -0.87258,-3.99964" />
      <path
         style="font-family:none;mix-blend-mode:normal;fill:#effaff;fill-opacity:1;fill-rule:nonzero;stroke:none;stroke-width:3.77952766;stroke-linecap:butt;stroke-linejoin:miter;stroke-miterlimit:9.86666679;stroke-dasharray:none;stroke-dashoffset:0;stroke-opacity:1"
         inkscape:connector-curvature="0"
         id="path6301"
         d="m 361.82547,638.34501 6.7297,-4.2757" />
      <path
         style="font-family:none;mix-blend-mode:normal;fill:#effaff;fill-opacity:1;fill-rule:nonzero;stroke:none;stroke-width:3.77952766;stroke-linecap:butt;stroke-linejoin:miter;stroke-miterlimit:9.86666679;stroke-dasharray:none;stroke-dashoffset:0;stroke-opacity:1"
         inkscape:connector-curvature="0"
         id="path6305"
         d="m 268.98316,588.22881 0.0949,0.4352" />
      <path
         style="font-family:none;mix-blend-mode:normal;fill:#effaff;fill-opacity:1;fill-rule:nonzero;stroke:none;stroke-width:3.77952766;stroke-linecap:butt;stroke-linejoin:miter;stroke-miterlimit:9.86666679;stroke-dasharray:none;stroke-dashoffset:0;stroke-opacity:1"
         inkscape:connector-curvature="0"
         id="path6309"
         d="m 261.14009,672.57366 -0.91817,-4.2086" />
      <path
         style="font-family:none;mix-blend-mode:normal;fill:#effaff;fill-opacity:1;fill-rule:nonzero;stroke:none;stroke-width:3.77952766;stroke-linecap:butt;stroke-linejoin:miter;stroke-miterlimit:9.86666679;stroke-dasharray:none;stroke-dashoffset:0;stroke-opacity:1"
         inkscape:connector-curvature="0"
         id="path6313"
         d="m 249.41864,796.80654 6.26802,-1.36746" />
      <path
         style="font-family:none;mix-blend-mode:normal;fill:#effaff;fill-opacity:1;fill-rule:nonzero;stroke:none;stroke-width:3.77952766;stroke-linecap:butt;stroke-linejoin:miter;stroke-miterlimit:9.86666679;stroke-dasharray:none;stroke-dashoffset:0;stroke-opacity:1"
         inkscape:connector-curvature="0"
         id="path6317"
         d="m 491.78545,827.56544 0.86442,3.96223" />
      <path
         style="font-family:none;mix-blend-mode:normal;fill:#effaff;fill-opacity:1;fill-rule:nonzero;stroke:none;stroke-width:3.77952766;stroke-linecap:butt;stroke-linejoin:miter;stroke-miterlimit:9.86666679;stroke-dasharray:none;stroke-dashoffset:0;stroke-opacity:1"
         inkscape:connector-curvature="0"
         id="path6321"
         d="m 522.60568,745.55562 -1.20121,3.08499" />
      <path
         style="font-family:none;mix-blend-mode:normal;fill:#effaff;fill-opacity:1;fill-rule:nonzero;stroke:none;stroke-width:3.77952766;stroke-linecap:butt;stroke-linejoin:miter;stroke-miterlimit:9.86666679;stroke-dasharray:none;stroke-dashoffset:0;stroke-opacity:1"
         inkscape:connector-curvature="0"
         id="path6327"
         d="m 430.46751,560.46939 1.3132,-5.00221" />
      <path
         style="font-family:none;mix-blend-mode:normal;fill:#effaff;fill-opacity:1;fill-rule:nonzero;stroke:none;stroke-width:3.77952766;stroke-linecap:butt;stroke-linejoin:miter;stroke-miterlimit:9.86666679;stroke-dasharray:none;stroke-dashoffset:0;stroke-opacity:1"
         inkscape:connector-curvature="0"
         id="path6331"
         d="m 432.39657,493.89437 12.66143,10.99941 14.90734,-56.78471 24.80066,6.51076 -19.44954,74.08678 6.87796,10.2488 c 29.13849,43.41888 41.65986,97.0847 35.08115,150.35552 -1.39662,11.30904 -6.33802,30.91059 -11.31324,46.20684 l -5.8368,2.2335 -13.43009,-0.68528 -6.68945,-3.98712 c 13.85366,-35.04532 17.59561,-74.05667 9.44157,-112.63907 -0.70291,-3.32593 -1.5536,-6.78878 -2.52094,-10.30499 l 4.12205,-6.44965 6.17245,-12.94703 -7.49383,9.17158 -4.2516,5.19787 c -4.34646,-14.3996 -10.37163,-29.02581 -15.99582,-38.29331 l -2.90954,-4.79433 -17.12979,65.25041 -38.3702,-10.07309 2.28629,-9.90059 2.95399,-14.21394 14.5896,3.83012 9.56728,-36.44347 7.70329,-1.53313 13.40274,-3.58413 -12.38706,-0.28477 -7.40577,0.39982 5.61651,-21.3943 -7.38786,-7.78406 c -7.76332,-8.17964 -15.97305,-15.51561 -24.67683,-22.03584 l -0.49561,-1.51617 4.42978,-14.67566 4.42512,-8.8855 c 6.30726,4.43355 12.43231,9.26967 18.70475,14.71872 z" />
      <path
         style="font-family:none;mix-blend-mode:normal;fill:#effaff;fill-opacity:1;fill-rule:nonzero;stroke:none;stroke-width:3.77952766;stroke-linecap:butt;stroke-linejoin:miter;stroke-miterlimit:9.86666679;stroke-dasharray:none;stroke-dashoffset:0;stroke-opacity:1"
         inkscape:connector-curvature="0"
         id="path6333"
         d="m 476.92662,610.13481 -1.45092,-5.02722" />
      <path
         style="font-family:none;mix-blend-mode:normal;fill:#effaff;fill-opacity:1;fill-rule:nonzero;stroke:none;stroke-width:3.77952766;stroke-linecap:butt;stroke-linejoin:miter;stroke-miterlimit:9.86666679;stroke-dasharray:none;stroke-dashoffset:0;stroke-opacity:1"
         inkscape:connector-curvature="0"
         id="path6337"
         d="m 278.18167,449.94241 3.46549,-0.65705" />
      <path
         style="font-family:none;mix-blend-mode:normal;fill:#effaff;fill-opacity:1;fill-rule:nonzero;stroke:none;stroke-width:3.77952766;stroke-linecap:butt;stroke-linejoin:miter;stroke-miterlimit:9.86666679;stroke-dasharray:none;stroke-dashoffset:0;stroke-opacity:1"
         inkscape:connector-curvature="0"
         id="path6341"
         d="m 472.43927,859.1841 c -3.46843,-15.89819 -6.44762,-28.87503 -6.62082,-28.83725 -0.1732,0.0378 -3.45916,2.76738 -7.30239,6.06579 -27.60812,23.6944 -58.85521,39.06089 -95.83331,47.12822 -11.29017,2.46312 -22.40524,4.08862 -33.39662,4.87065 l -0.39688,-0.35683 -5.79161,-6.44229 -2.54096,-11.08526 -1.45568,11.24907 3.79329,6.52419 0.41256,0.45382 c -34.90614,1.5155 -68.65004,-5.55398 -102.89869,-21.39808 -10.59607,-4.90197 -31.45085,-17.61257 -39.10432,-23.83341 l -5.44321,-4.42431 -67.94943,14.82418 -5.46541,-25.05173 25.13208,-5.48294 c 13.8226,-3.01561 24.91195,-5.77577 24.64307,-6.1333 -0.26913,-0.35788 -3.95872,-4.88988 -8.19956,-10.07151 -13.92669,-17.01623 -24.6617,-34.78263 -32.63363,-54.18822 l 2.55338,-9.67694 -3.83553,6.48099 c -4.26328,-10.88563 -7.6804,-22.29254 -10.324944,-34.37332 -2.0326,-9.29087 -4.06934,-20.89896 -4.52325,-25.79642 -2.55822,-27.59549 -0.0976,-54.79106 6.923194,-80.48097 l 2.99888,-0.81456 -2.62722,-0.5288 c 12.08427,-43.1493 37.06409,-81.97875 72.75334,-111.2163 18.49053,-15.14798 37.08727,-26.11932 60.36438,-35.61263 8.19973,-3.34416 26.46776,-7.91583 42.51169,-11.03354 l 9.73009,7.95887 -6.2646,-8.61592 c 4.2807,-0.79072 8.32815,-1.45811 11.89104,-1.94737 l 6.38689,4.46466 6.55132,9.23312 -2.56412,-9.55275 -5.38998,-4.74187 c 1.33875,-0.13154 2.55665,-0.2224 3.63162,-0.26775 15.71275,-0.66301 29.2757,-0.1335 42.90413,1.80316 l 0.094,9.92598 2.72004,15.08639 1.13025,1.12558 c -24.45692,-4.23374 -49.27635,-3.51292 -75.11383,2.12391 -31.31919,6.83275 -55.45904,18.1706 -80.11276,37.62682 -17.00875,13.42298 -28.43779,25.8442 -40.68476,44.21662 -13.98217,20.97544 -22.41831,40.1608 -28.06827,63.83248 -2.55247,10.69406 -4.19205,21.47696 -4.93685,32.24949 l -0.0526,0.0479 -10.32167,2.9057 10.13687,1.08647 c -1.93146,39.89477 8.38727,79.47687 30.03467,113.70103 l -0.67876,1.12035 0.86586,-0.82514 c 1.08112,1.70256 2.19032,3.3918 3.32748,5.0671 7.41089,10.91786 16.44144,21.81825 24.12528,29.12041 l 4.96707,4.72038 66.92861,-14.60147 1.28635,2.63043 14.32105,3.77893 5.40716,9.82435 -1.49908,-10.67696 -12.36702,-4.20523 -0.88045,-2.71898 30.79275,-6.7179 -25.33932,-116.14752 1.249,-1.94076 8.38183,-8.61864 -9.23443,4.71056 -1.31457,1.64024 -27.13546,-124.38047 25.05179,-5.46542 10.8449,49.70964 -0.87204,1.34125 0.96698,-0.90606 47.91851,219.64349 -108.37828,23.73478 7.5295,4.439 c 8.70362,5.13122 17.80631,9.54555 27.18864,13.22999 l -0.80032,4.09827 1.72859,-3.73647 c 42.0222,16.25496 89.55352,17.9166 131.92542,3.82397 l 0.001,0.004 c 13.56011,-4.51003 27.17527,-10.65911 39.24485,-17.72435 11.74487,-6.87518 30.01605,-20.98119 38.44281,-29.67931 l 5.35515,-5.52752 -13.25485,-63.19679 -37.68132,8.22074 -0.34876,-0.65409 -5.67134,-8.01062 1.76327,8.86322 0.24926,0.6758 -55.65391,12.14173 8.82875,40.46825 -25.05179,5.46542 -18.70854,-85.75411 25.05179,-5.46542 4.41438,20.23412 42.43205,-9.25719 5.03954,4.47505 16.11871,3.74048 -12.21063,-4.59308 -4.19356,-4.65961 50.13037,-10.93669 -12.4023,-56.84828 -26.14513,5.70395 1.06365,2.0391 c 0.58496,1.12149 3.54402,5.09058 6.57554,8.82019 3.03157,3.7296 5.22614,7.2264 4.87688,7.77057 -0.3493,0.54424 -19.57998,-1.63489 -42.73482,-4.84247 l -42.09976,-5.83202 7.20053,35.52338 -25.00927,5.45615 -3.69302,-16.92767 0.38582,-0.37923 3.74048,-16.11871 -4.59308,12.21063 -0.4058,0.28767 -13.0919,-60.00919 25.05179,-5.46542 3.88887,17.82535 c 2.2876,10.48565 4.2617,17.74395 4.7948,17.62765 0.47954,-0.10462 15.54845,-9.53179 33.93439,-21.22421 l 13.78995,7.2247 11.27126,-0.01 10.98243,8.60383 -7.60556,-10.74784 -9.58282,-1.06218 -12.12555,-8.28438 c 19.58861,-12.40235 31.03839,-19.18048 31.70263,-18.75416 0.71454,0.4586 0.47044,2.83778 -0.67214,6.54355 -0.98718,3.20264 -2.04254,7.80358 -2.34521,10.22442 l -0.5503,4.40144 45.59518,-9.94727 0.11949,0.23579 6.3349,3.46388 31.8905,143.88552 6.02787,-10.90428 c 19.77684,-35.77564 27.59592,-75.61541 23.9043,-114.32646 l 7.77061,0.51334 12.27581,-5.49011 4.18528,-4.64114 c 1.06345,6.715 1.77213,12.74752 1.93012,17.12969 1.14473,31.755 -3.51538,61.294 -14.11854,89.1521 l -10.60475,6.46289 9.40353,-3.3779 c -4.73388,11.88903 -10.5608,23.47282 -17.49166,34.79351 -4.21428,6.88345 -9.67805,14.99427 -12.14175,18.02404 l -4.47948,5.50877 4.49387,20.59851 -0.28965,0.16067 -12.4033,10.28478 13.25591,-6.3767 0.30146,-0.10652 11.14756,51.09692 -25.05179,5.46542 z" />
      <path
         style="font-family:none;mix-blend-mode:normal;fill:#effaff;fill-opacity:1;fill-rule:nonzero;stroke:none;stroke-width:3.77952766;stroke-linecap:butt;stroke-linejoin:miter;stroke-miterlimit:9.86666679;stroke-dasharray:none;stroke-dashoffset:0;stroke-opacity:1"
         inkscape:connector-curvature="0"
         id="path6343"
         d="m 293.5382,447.33799 4.98412,-0.59683" />
    </g>
    <g
       id="g2160"
       inkscape:label="led">
      <path
         d="m 376.3906,1555.695 c -0.50451,-0.8315 -0.85974,-1.8631 -0.78891,-2.2932 0.0476,-0.289 4.4257,-4.7188 10.85427,-11.0239 l 0.67835,1.9917 2.41953,0.992 -0.22516,2.0608 -0.078,2.0349 -1.99985,1.9241 4.24159,0.5893 0.53661,0.4441 -0.58139,2.7529 1.31082,2.1155 0.41513,2.268 c -15.35505,-2.2761 -15.9354,-2.4599 -16.78302,-3.8562 z"
         id="path9766 1 1 1"
         stroke-miterlimit="4"
         inkscape:connector-curvature="0"
         style="font-family:none;mix-blend-mode:normal;fill:#effaff;fill-opacity:1;fill-rule:nonzero;stroke:none;stroke-width:0.0462983;stroke-linecap:round;stroke-linejoin:round;stroke-miterlimit:4;stroke-dasharray:none;stroke-dashoffset:0" />
      <path
         d="m 486.37302,1570.953 c -0.58311,1.5109 -1.25467,2.6292 -1.49227,2.4852 -2.40671,-1.4592 -4.96383,-3.0033 -7.52444,-4.5446 l 0.19786,-0.4163 -0.17984,-2.9525 -0.60265,2.4822 -0.25212,0.383 c -2.64803,-1.5929 -5.28269,-3.1728 -7.74129,-4.6426 l 0.87047,-0.5061 1.93523,-3.8071 3.36069,0.1664 c 4.87762,2.9672 9.01224,5.5825 11.02919,6.9645 l 0.0906,0.5144 1.14782,0.4025 c 0.0482,0.046 0.0751,0.08 0.0797,0.1002 0.0803,0.3429 -0.33602,1.8601 -0.91912,3.3711 z"
         id="path9770 1 1 1"
         stroke-miterlimit="4"
         inkscape:connector-curvature="0"
         style="font-family:none;mix-blend-mode:normal;fill:#effaff;fill-opacity:1;fill-rule:nonzero;stroke:none;stroke-width:0.0462983;stroke-linecap:round;stroke-linejoin:round;stroke-miterlimit:4;stroke-dasharray:none;stroke-dashoffset:0" />
      <path
         d="m 389.24251,1584.8237 3.01515,-17.8681 -60.56636,-8.6509 1.18536,-7.0247 5.70425,0.7825 -0.87446,1.9071 1.56887,-1.8119 23.74986,3.2579 11.05207,1.5161 -0.0666,0.4712 1.92034,1.4965 1.44192,3.3369 -0.52718,-3.2114 -1.46298,-1.4338 0.13705,-0.4615 17.65382,2.4216 0.4598,-2.5838 2.95059,-2.3459 -2.7956,1.4749 2.56888,-14.4359 c 0.14353,-0.8065 0.28069,-1.5767 0.41193,-2.3124 l 2.32617,-0.4429 2.19164,-1.3179 2.79778,0.5254 0.46627,-0.5328 -9.68959,57.4214 2.38116,-1.2655 c 1.09386,-0.5817 8.64661,-4.5714 17.86879,-9.4401 l 0.25792,0.1878 3.50735,1.0844 1.10016,2.0838 -0.27802,-2.5178 -3.09627,-1.3014 -0.21543,-0.2103 c 1.41882,-0.7489 2.87092,-1.5155 4.33965,-2.2907 l 21.10299,-11.1389 -34.65848,-34.8488 2.07631,0.044 2.09934,0.1875 1.07061,-2.3859 2.05022,-0.6963 c 1.88708,1.8599 3.94233,3.8981 6.10466,6.0551 l -0.0306,2.205 -0.49822,2.2134 1.14009,-1.5718 0.23122,-2.0056 c 1.08835,1.0873 2.20121,2.202 3.33107,3.3369 l 20.48344,20.5749 2.88099,-16.091 c 2.77508,-15.499 2.9386,-16.125 4.44565,-17.0141 2.02994,-1.1977 3.1246,-1.0011 4.4606,0.8008 0.89423,1.2062 0.94693,2.0591 -0.91287,13.277 l -0.85819,0.043 -2.46546,1.0275 -1.70069,1.4624 1.54996,-0.5645 2.39011,-0.5786 0.84163,0.068 c -0.23356,1.3983 -0.49325,2.9409 -0.7807,4.6445 l -3.02285,17.9137 8.66363,1.2375 0.52323,2.6098 0.32821,-2.4882 51.05129,7.2919 -1.18746,7.0375 -60.56636,-8.651 -2.94484,17.4515 c -0.12821,0.7597 -0.25153,1.4881 -0.37029,2.1863 l -0.32006,0.075 -2.01002,1.2822 1.85652,-0.3847 0.3136,-0.034 c -2.05975,12.0578 -2.68713,14.6047 -3.66839,15.6037 -1.52056,1.5489 -3.91761,1.3274 -5.1146,-0.4727 -0.76905,-1.1566 -0.54378,-3.3186 1.78311,-17.1079 1.46491,-8.6813 2.46855,-15.8119 2.22975,-15.846 -0.23879,-0.034 -12.07401,6.0886 -26.30159,13.6058 -14.22747,7.5173 -26.43532,13.5868 -27.1285,13.4878 -0.69289,-0.099 -1.6443,-0.6986 -2.11402,-1.3314 -0.73455,-0.9918 -0.43488,-3.631 2.16176,-19.0189 z"
         stroke-miterlimit="10"
         id="path12008"
         inkscape:connector-curvature="0"
         style="font-family:none;mix-blend-mode:normal;fill:#effaff;fill-opacity:1;fill-rule:nonzero;stroke:none;stroke-width:0.22916543;stroke-linecap:butt;stroke-linejoin:miter;stroke-miterlimit:10;stroke-dasharray:none;stroke-dashoffset:0" />
      <g
         style="fill:#effaff;fill-opacity:1;stroke:none"
         transform="matrix(-0.21465959,0.08929688,-0.08692789,-0.20849015,719.18229,1545.1414)"
         id="g12616">
        <path
           style="font-family:none;mix-blend-mode:normal;fill:#effaff;fill-opacity:1;fill-rule:nonzero;stroke:none;stroke-width:0.20203;stroke-linecap:round;stroke-linejoin:round;stroke-miterlimit:4;stroke-dasharray:none;stroke-dashoffset:0"
           inkscape:connector-curvature="0"
           stroke-miterlimit="4"
           id="path9768 1 1 1"
           d="m 1154.9939,477.95792 c 3.8602,5.54991 7.1815,10.51757 7.3791,11.04187 0.1012,0.28245 -8.2708,4.61379 -21.6494,11.26705 l -0.035,-0.0467 -12.2014,-6.90895 8.6117,8.67357 0.032,0.0647 c -11.3918,5.64191 -25.8033,12.6778 -41.4524,20.21982 l -21.2077,10.22098 -2.4448,-2.17412 -0.5354,-12.65256 2.6655,-9.85104 9.2769,-5.90208 1.9094,-7.49805 c 1.1848,-0.57207 2.3746,-1.13871 3.5631,-1.70922 13.3279,-6.39352 25.7284,-12.19633 35.5913,-16.68411 l 2.1544,0.15309 14.6267,-7.35061 6.5846,-0.58963 c 1.5992,1.99351 4.3453,5.72398 7.1315,9.72518 z" />
        <path
           style="font-family:none;mix-blend-mode:normal;fill:#effaff;fill-opacity:1;fill-rule:nonzero;stroke:none;stroke-width:1;stroke-linecap:butt;stroke-linejoin:miter;stroke-miterlimit:10;stroke-dasharray:none;stroke-dashoffset:0"
           inkscape:connector-curvature="0"
           id="path12014"
           stroke-miterlimit="10"
           d="m 1025.1349,550.69463 10.6435,9.86265 10.6438,9.8629 -55.01102,0.33731 c -30.25661,0.18547 -55.09069,-0.24092 -55.18766,-0.9474 -0.0968,-0.70528 14.58456,-16.5503 32.62212,-35.21086 2.30639,-2.38597 4.56496,-4.72382 6.75112,-6.98799 l 10.4085,1.98747 12.04735,-1.77142 11.99419,4.31111 10.1995,6.20006 -7.4227,-9.07921 -10.6058,-5.75069 -10.65899,0.33184 -9.13332,-3.30609 c 11.47236,-11.89745 19.68531,-20.45902 20.00121,-20.86347 0.4306,-0.55146 1.707,5.02711 2.836,12.39857 l 2.0533,13.40149 12.0962,-4.64884 c 6.3969,-2.45942 35.8182,-14.0881 66.441,-26.26076 l -2.4202,7.34916 -9.6605,5.25061 -3.3361,9.64467 -0.3353,12.65936 2.2896,2.33699 z" />
      </g>
      <path
         d="m 500.03975,1561.9345 c 0.15411,-0.042 -0.0954,-1.5082 -0.55366,-3.2597 l -0.83322,-3.1845 10.13559,7.5073 c 5.57454,4.129 10.06126,7.6314 9.97037,7.7829 -0.096,0.1602 -5.37938,1.0659 -10.61975,1.8859 l -0.4477,-0.7952 -1.88861,-2.5071 0.97053,2.6458 0.32965,0.8176 c -4.04846,0.6255 -7.86259,1.1661 -8.99097,1.2325 l -1.60905,0.094 1.23767,-2.1684 c 0.68092,-1.1927 1.16122,-2.4315 1.06784,-2.7532 -0.0922,-0.3216 -7.35954,-2.5634 -16.14718,-4.9816 -0.71998,-0.1982 -1.43017,-0.395 -2.12744,-0.5897 l 3.2993,-0.7318 0.82092,-4.1576 0.70275,-0.7153 c 8.13709,2.2053 14.5613,3.9103 14.68314,3.8775 z"
         stroke-miterlimit="10"
         id="path12020"
         inkscape:connector-curvature="0"
         style="font-family:none;mix-blend-mode:normal;fill:#effaff;fill-opacity:1;fill-rule:nonzero;stroke:none;stroke-width:0.22916543;stroke-linecap:butt;stroke-linejoin:miter;stroke-miterlimit:10;stroke-dasharray:none;stroke-dashoffset:0" />
    </g>
    <path
       style="fill:#ff4300;fill-opacity:1;stroke:none;stroke-width:4.78000021;stroke-linecap:round;stroke-linejoin:round;stroke-miterlimit:9.86666679;stroke-dasharray:none;stroke-opacity:1;paint-order:normal"
       d="m 181.36681,1497.3956 4.04265,42.2897 232.59202,-22.2345 -4.04265,-42.2897 z m 30.17366,3.4647 6.88853,-0.6585 1.65583,17.3214 c 0.0685,0.7168 0.19892,1.3884 0.39253,2.0128 0.22019,0.6219 0.51306,1.1561 0.87728,1.6035 0.36423,0.4474 0.79844,0.7945 1.30418,1.0408 0.5032,0.2198 1.08736,0.2983 1.751,0.2349 0.66365,-0.064 1.22039,-0.251 1.67285,-0.5622 0.4499,-0.3377 0.79816,-0.7596 1.04448,-1.2653 0.27288,-0.5083 0.44494,-1.087 0.51676,-1.7367 0.0984,-0.6524 0.11345,-1.3379 0.0449,-2.0547 l -1.65584,-17.3213 6.88851,-0.6585 1.70528,17.8385 c 0.16748,1.752 0.0835,3.3826 -0.25477,4.8882 -0.3117,1.5032 -0.86921,2.8277 -1.67025,3.9759 -0.77704,1.1191 -1.80164,2.0335 -3.0731,2.7443 -1.27399,0.6843 -2.78687,1.0977 -4.54142,1.2385 l -0.041,0.01 c -1.93526,0.2121 -3.60928,0.064 -5.02401,-0.4438 -1.41474,-0.5077 -2.59913,-1.2647 -3.55263,-2.2719 -0.95604,-1.0337 -1.70251,-2.2481 -2.23773,-3.6435 -0.50868,-1.3979 -0.83661,-2.8815 -0.98633,-4.4478 z m -19.94616,1.948 18.15746,-1.7358 0.63954,6.6902 -11.46725,1.0962 0.45666,4.7772 8.44005,-0.8069 0.63954,6.6902 -8.44004,0.8068 1.0962,11.4673 -6.69019,0.6395 z m 43.99865,-4.2061 6.81073,-0.6511 9.31218,13.7761 -1.38931,-14.5334 7.08684,-0.6775 2.83196,29.6248 -6.76798,0.6469 -9.35691,-13.8128 1.39322,14.5742 -7.08877,0.6776 z m 35.04141,-3.3497 0.0391,-0.01 c 1.61929,-0.1548 3.03565,-0.063 4.2468,0.2766 1.21116,0.3397 2.26242,0.8283 3.15384,1.4663 0.91799,0.6355 1.67131,1.3801 2.26196,2.2343 0.61719,0.8518 1.11523,1.7157 1.49351,2.5904 l -5.46611,3.7776 c -0.20496,-0.4626 -0.47727,-0.9327 -0.81749,-1.4092 -0.31367,-0.4789 -0.68858,-0.8979 -1.12483,-1.2581 -0.43625,-0.36 -0.91744,-0.6364 -1.44464,-0.8271 -0.5272,-0.1907 -1.06772,-0.2445 -1.62264,-0.1648 -1.34368,0.2357 -2.38141,0.8826 -3.11042,1.9435 -0.70502,1.0318 -0.98691,2.2784 -0.84734,3.7382 l 0.55182,5.7726 c 0.13957,1.46 0.66933,2.6557 1.58867,3.5859 0.91681,0.9034 2.05656,1.3443 3.42054,1.3211 1.14907,-0.029 2.0633,-0.4125 2.74313,-1.1472 0.70639,-0.7372 1.21399,-1.5898 1.52335,-2.5569 l 6.08281,2.6735 c -0.19323,0.5007 -0.47904,1.144 -0.85927,1.9303 -0.35367,0.7839 -0.89611,1.5736 -1.62397,2.3665 -0.72785,0.7928 -1.68846,1.5131 -2.88536,2.1633 -1.17289,0.6212 -2.66244,1.0178 -4.46755,1.1904 l -0.041,0.01 c -2.01747,0.1929 -3.74589,0.038 -5.18718,-0.4675 -1.41472,-0.5077 -2.61028,-1.2511 -3.58779,-2.2293 -0.95351,-1.0071 -1.69743,-2.1948 -2.2301,-3.5636 -0.53521,-1.3954 -0.91697,-2.8595 -1.1438,-4.3916 l -0.5862,-6.1322 c -0.11298,-1.4626 -0.0103,-2.9173 0.3065,-4.3674 0.34078,-1.4791 0.90925,-2.8191 1.70523,-4.0204 0.82251,-1.2036 1.89255,-2.205 3.20948,-3.0006 1.3144,-0.8221 2.88735,-1.3199 4.719,-1.4949 z m 12.82047,-1.2256 20.14837,-1.9261 0.63956,6.6902 -6.7291,0.6433 2.19241,22.9345 -6.6902,0.6396 -2.19241,-22.9346 -6.72908,0.6433 z m 22.29873,-2.1316 6.6902,-0.6396 2.83196,29.6248 -6.69019,0.6395 z m 20.58584,-1.968 0.041,-0.01 c 1.56618,-0.1497 3.06811,0.015 4.50685,0.4933 1.46529,0.4761 2.79649,1.2334 3.99398,2.2709 1.05208,0.9173 1.87803,1.9896 2.47765,3.2182 0.59963,1.2285 0.9771,2.5174 1.13307,3.8687 l 0.66241,6.9294 c 0.13703,1.4335 0.0513,2.9154 -0.2579,4.4452 -0.28517,1.5005 -0.9057,2.858 -1.86094,4.0744 -0.97672,1.272 -2.13915,2.2802 -3.48772,3.0253 -1.322,0.7425 -2.76557,1.1886 -4.33176,1.3382 l -0.041,0.01 c -1.53964,0.1472 -3.04157,-0.017 -4.50685,-0.4934 -1.43874,-0.4785 -2.76976,-1.2339 -3.9938,-2.2687 -1.14186,-1.016 -2.00599,-2.2067 -2.59176,-3.5704 -0.55921,-1.3664 -0.92787,-2.8442 -1.10668,-4.4344 l -0.66241,-6.9294 c -0.12181,-1.2741 0.007,-2.5846 0.38721,-3.9335 0.37748,-1.3755 0.98275,-2.6116 1.81542,-3.7092 1.00581,-1.248 2.16941,-2.2439 3.49143,-2.9864 1.32201,-0.7426 2.76557,-1.1885 4.33176,-1.3383 z m 13.18015,-1.2599 6.8088,-0.6508 9.31412,13.7757 -1.38931,-14.5334 7.08684,-0.6774 2.83196,29.6247 -6.76797,0.647 -9.35691,-13.8129 1.39321,14.5742 -7.08877,0.6776 z m 31.53593,-3.0147 8.92026,-0.8526 11.51115,28.795 -7.604,0.7269 -3.41358,-7.5492 -5.77445,0.5519 -1.88259,8.0556 -7.60401,0.7269 z m 19.27345,-1.8424 6.68826,-0.6393 2.19242,22.9345 7.92482,-0.7576 0.63954,6.6902 -14.61307,1.3969 z"
       id="rect862"
       inkscape:connector-curvature="0"
       inkscape:label="functional" />
    <path
       style="fill:#ff4200;fill-opacity:1;stroke:none;stroke-width:0.37795275;stroke-linecap:round;stroke-linejoin:round;stroke-miterlimit:9.86666679;stroke-dasharray:none;stroke-opacity:1;paint-order:normal"
       d="m 370.55129,1432.4151 -5.7396,42.0929 189.41712,25.8282 5.73961,-42.093 z m 12.06587,8.0654 5.94499,0.8107 c 2.29872,0.3135 4.26883,0.9725 5.90822,1.9765 1.64298,0.9776 2.95593,2.2073 3.93837,3.687 0.98604,1.4532 1.64425,3.1296 1.97695,5.032 0.33629,1.8759 0.36287,3.8586 0.0783,5.9459 -0.27021,1.9817 -0.75193,3.8391 -1.44609,5.5746 -0.69058,1.709 -1.64329,3.1677 -2.85749,4.3747 -1.21421,1.207 -2.70775,2.0935 -4.48044,2.6593 -1.77269,0.5657 -3.86129,0.6838 -6.2657,0.356 l -0.87281,-0.1188 -5.94498,-0.8106 z m 23.02714,3.14 18.073,2.4643 -0.90801,6.6591 -11.4139,-1.5564 -0.64835,4.7549 8.40271,1.1457 -0.90801,6.6591 -8.40271,-1.1457 -0.64861,4.7567 11.41392,1.5564 -0.90775,6.6571 -18.073,-2.4644 z m 20.68941,2.821 8.95619,1.2213 h 0.0408 c 1.26823,0.1734 2.38751,0.554 3.35673,1.1437 0.96921,0.5898 1.75143,1.3567 2.34954,2.2995 0.62814,0.9199 1.06013,2.0006 1.29434,3.2437 0.23781,1.2165 0.25712,2.5523 0.059,4.0056 -0.1946,1.4268 -0.56886,2.6944 -1.12371,3.803 -0.55485,1.1085 -1.26042,2.0341 -2.11553,2.7787 -0.82869,0.7483 -1.78936,1.29 -2.88469,1.6252 -1.09171,0.3087 -2.27239,0.378 -3.54065,0.2051 h -0.0408 l -2.17905,-0.2972 -1.41571,10.3825 -6.77714,-0.9241 z m 19.69665,2.6858 6.65908,0.908 -3.11298,22.8298 7.88796,1.0755 -0.90774,6.6572 -14.54703,-1.9836 z m 17.08216,2.3293 18.07299,2.4643 -0.908,6.6591 -11.41391,-1.5564 -0.64835,4.7549 8.40272,1.1457 -0.908,6.6591 -8.40273,-1.1458 -0.64861,4.7569 11.41392,1.5563 -0.90774,6.6571 -18.07301,-2.4643 z m 20.3314,2.7722 20.05465,2.7347 -0.90801,6.659 -6.69779,-0.9132 -3.1127,22.8277 -6.65714,-0.9077 3.11269,-22.8278 -6.6997,-0.9136 z m 22.19499,3.0265 18.073,2.4644 -0.90801,6.6591 -11.4139,-1.5564 -0.64835,4.7548 8.40271,1.1458 -0.90801,6.659 -8.40271,-1.1457 -0.64861,4.7567 11.41391,1.5564 -0.90774,6.6571 -18.07299,-2.4643 z m 20.68942,2.8211 5.94499,0.8106 c 2.29872,0.3135 4.2669,0.9723 5.90629,1.9763 1.64298,0.9776 2.95592,2.2073 3.93837,3.687 0.98603,1.4532 1.64619,3.1299 1.97887,5.0322 0.33631,1.876 0.36093,3.8584 0.0763,5.9457 -0.27021,1.9817 -0.75194,3.839 -1.44609,5.5745 -0.69057,1.709 -1.64329,3.1678 -2.85749,4.3748 -1.21421,1.2069 -2.70776,2.0935 -4.48044,2.6593 -1.77268,0.5656 -3.86128,0.6837 -6.2657,0.3558 l -0.87086,-0.1185 -5.94498,-0.8107 z"
       id="rect886"
       inkscape:connector-curvature="0"
       inkscape:label="depleted" />
  </g>
</svg>
