<?xml version="1.0" encoding="UTF-8" standalone="no"?>
<svg
   xmlns:dc="http://purl.org/dc/elements/1.1/"
   xmlns:cc="http://creativecommons.org/ns#"
   xmlns:rdf="http://www.w3.org/1999/02/22-rdf-syntax-ns#"
   xmlns:svg="http://www.w3.org/2000/svg"
   xmlns="http://www.w3.org/2000/svg"
   xmlns:sodipodi="http://sodipodi.sourceforge.net/DTD/sodipodi-0.dtd"
   xmlns:inkscape="http://www.inkscape.org/namespaces/inkscape"
   width="1200.0002"
   viewBox="0 0 1200.0002 1387.1975"
   version="1.1"
   height="1387.1975"
   id="svg2"
   inkscape:version="0.92.4 5da689c313, 2019-01-14"
   sodipodi:docname="Apple_logo_black_broken.svg">
  <metadata
     id="metadata10">
    <rdf:RDF>
      <cc:Work
         rdf:about="">
        <dc:format>image/svg+xml</dc:format>
        <dc:type
           rdf:resource="http://purl.org/dc/dcmitype/StillImage" />
        <dc:title></dc:title>
      </cc:Work>
    </rdf:RDF>
  </metadata>
  <defs
     id="defs8">
    <inkscape:path-effect
       effect="roughen"
       id="path-effect5326"
       is_visible="true"
       method="segments"
       max_segment_size="10"
       segments="63"
       displace_x="30;539622735"
       displace_y="10;1"
       global_randomize="2.6;305619238"
       handles="rand"
       shift_nodes="true"
       fixed_displacement="true"
       spray_tool_friendly="false" />
  </defs>
  <sodipodi:namedview
     pagecolor="#ffffff"
     bordercolor="#666666"
     borderopacity="1"
     objecttolerance="10"
     gridtolerance="10"
     guidetolerance="10"
     inkscape:pageopacity="0"
     inkscape:pageshadow="2"
     inkscape:window-width="1920"
     inkscape:window-height="1176"
     id="namedview6"
     showgrid="false"
     inkscape:zoom="0.50000001"
     inkscape:cx="891.20045"
     inkscape:cy="585.70972"
     inkscape:window-x="0"
     inkscape:window-y="0"
     inkscape:window-maximized="1"
     inkscape:current-layer="svg2"
     fit-margin-top="100"
     fit-margin-left="100"
     fit-margin-right="100"
     fit-margin-bottom="100"
     inkscape:snap-global="false" />
  <path
     d="M 385.65234 381.91406 C 342.20239 382.07452 300.56553 391.56102 260.65234 410.58203 C 213.34786 433.12548 174.18237 466.13998 143.03516 509.67969 C 103.51837 563.81758 80.165594 630.59338 72.9375 709.82617 C 68.885738 754.24071 69.993588 800.07316 76.222656 847.33398 C 99.390181 843.50007 130 838.19727 130 838.19727 L 161 838.19727 L 189 827.19727 L 242 819.19727 L 259 807.19727 L 268 786.19727 L 281 784.19727 L 285 755.19727 L 285 786.19727 L 272 790.19727 L 262 812.19727 L 247 825.19727 L 193 835.19727 L 166 849.19727 L 130 848.19727 L 78.269531 861.72656 C 81.584595 883.41673 85.958269 905.40198 91.40625 927.68945 C 108.82714 998.155 133.55326 1060.8269 165.5625 1115.8457 C 195.37551 1167.3529 220.83268 1204.1121 241.85742 1226.1191 C 266.69156 1253.8271 292.48366 1271.4606 319.24219 1279.1543 L 319.45312 1278.0156 L 321.89062 1255.334 L 323.90234 1243.5781 L 339.01562 1225.7793 L 348.85156 1213.9004 L 358.7207 1199.1582 L 367.61914 1189.0605 L 368.75586 1174.8633 L 372.17188 1163.5625 L 373.91406 1143.6719 L 386.33594 1130.9434 L 399.13281 1115.623 L 400.16016 1103.3086 L 413.33398 1087.6074 L 414.50781 1073.9121 L 421.17578 1053.5391 L 426.18359 1040.1758 L 427.23242 1028.5703 L 428.9043 1014.4961 L 440.57617 1002.4941 L 455.00391 985.51953 L 464.98047 973.70508 L 467.38672 963.99414 L 482.31641 945.54688 L 486.77344 937.90039 L 488.22656 918.08398 L 490.11133 900.12305 L 501.64648 885.54297 L 511.35547 873.89648 L 512.41992 859.98828 L 515.10547 841.01367 L 518.39648 824.31055 L 526.57227 815.95898 L 539.1875 802.89062 L 540.84375 789.85156 L 555.60742 772.5293 L 564.97461 757.76367 L 565.76367 746.2832 L 577.65039 728.31641 L 582.50586 714.04883 L 583.41797 702.07031 L 595.54883 685.98047 L 603.06836 677.80273 L 615.92578 661.83203 L 624.83789 651.60156 L 636.70703 635.82617 L 644.36719 626.04492 L 651.55859 602.08203 L 651.48047 592.65625 L 660.94727 574.55469 L 661.14648 565.27539 L 661.15625 547.94141 L 671.99023 535.48438 L 675.77734 524.30078 L 689.85352 502.0332 L 689.24023 490.86133 L 689.18945 473.19336 L 700.45703 459.26562 L 700.11328 444.60938 L 705.16602 434.72266 L 707.34375 432.1875 C 650.41151 447.34068 616.77242 454.55607 607.10156 453.67383 C 594.03113 452.48147 565.02663 440.92452 520.1875 419.26172 C 475.21171 397.64531 438.54959 385.38963 409.97852 382.7832 C 401.80736 382.17461 393.69863 381.88435 385.65234 381.91406 z "
     id="path5347" />
  <path
     d="M 829.5625 376.23633 C 796.31278 376.51883 757.25184 384.70123 712.26953 400.88867 C 711.68705 401.10242 711.27872 401.23768 710.70117 401.44922 L 708.76367 404.17188 L 704.63086 414.47656 L 706.30469 429.04102 L 696.34766 443.93555 L 698.00391 461.52539 L 699.62891 472.5957 L 687.63477 496.04883 L 684.87891 507.53125 L 675.22266 520.91992 L 676.78711 538.18359 L 677.43164 547.44336 L 669.64844 566.33008 L 670.58203 575.70898 L 665.59766 600.22656 L 658.85742 610.66211 L 648.4707 627.45117 L 640.52539 638.44922 L 629.17188 655.52148 L 622.42578 664.34961 L 611.80664 681.47461 L 611.98828 693.48633 L 608.44727 708.13672 L 598.24219 727.10938 L 598.5 738.61328 L 590.51367 754.16797 L 577.38477 772.75977 L 576.91992 785.89648 L 565.54297 800.05664 L 558.16016 809.11719 L 556.40039 826.04883 L 555.44922 845.18945 L 555.65234 859.13672 L 547.04297 871.61719 L 536.87891 887.18555 L 536.63477 905.24219 L 536.98828 925.10938 L 533.24414 933.12891 L 520.05078 952.85742 L 518.53711 962.74609 L 509.67578 975.41797 L 496.84961 993.63281 L 486.31641 1006.6465 L 485.92969 1020.8145 L 485.93945 1032.4668 L 482.16602 1046.2285 L 477.37695 1067.123 L 477.45312 1080.8691 L 465.75977 1097.7031 L 465.85547 1110.0586 L 454.50195 1126.4785 L 443.28906 1140.2832 L 443.36133 1160.25 L 440.98633 1171.8145 L 441.14258 1186.0566 L 433.19922 1196.9199 L 424.70898 1212.498 L 415.99414 1225.2207 L 402.56055 1244.3203 L 401.625 1256.209 L 401.25781 1279.0195 L 401.15039 1280.1719 C 409.87033 1281.8398 418.59521 1282.5381 427.32812 1282.166 C 451.07869 1281.3599 482.14232 1273.2261 520.70312 1257.6172 C 559.20525 1242.0814 595.20071 1234.3867 628.76367 1234.3867 C 660.76574 1234.3867 695.76519 1242.0814 733.84961 1257.6172 C 771.80946 1273.2261 804.42005 1280.9199 831.46094 1280.9199 C 869.12768 1280.0405 904.30268 1264.5787 937.13281 1234.3867 C 958.3112 1215.993 985.7925 1182.8704 1019.3555 1135.0176 C 1043.9781 1099.9157 1065.2297 1061.7352 1083.1836 1020.2578 C 1090.0023 1004.0551 1096.4446 987.22092 1102.5742 969.7168 L 1061 971.69727 L 977 967.69727 L 934.5 954.69727 L 903.5 963.19727 L 852.5 992.69727 L 843 1004.6973 L 850.5 991.19727 L 902 960.19727 L 934.5 950.69727 L 978.5 962.69727 L 1062 967.19727 L 1103.4941 964.94141 C 1073.3437 952.20773 1046.2209 934.35306 1021.9199 911.28906 C 967.9115 861.2377 940.4311 798.20037 939.625 722.44922 C 938.74563 625.19725 982.93345 549.3875 1072.2637 495.26172 C 1022.3589 424.32516 947.3203 384.9516 847.4375 376.89062 C 841.67803 376.4017 835.71986 376.18401 829.5625 376.23633 z "
     id="path5330" />
  <path
     d="M 630.64648 270.80664 C 627.71721 274.62731 624.90541 278.503 622.19141 282.41992 L 640.5 317.69727 L 649.5 319.19727 L 659 327.19727 L 649.0625 320.32227 L 640.375 319.19727 L 639.6875 318.94727 L 621.07031 284.03125 C 591.42545 327.42759 575.08398 376.2317 575.08398 422.42773 C 575.08398 430.30549 575.59085 437.8028 576.46289 444.92578 C 644.90057 450.48784 708.01098 415.23984 760.1875 354.24023 C 768.06014 344.89714 774.96703 335.36939 781.41016 325.75391 L 779.9375 325.12305 L 762.96875 310.98047 L 761.55273 301.08203 L 751.6543 294.00977 L 741.75391 306.73828 L 703.57031 284.11133 L 703.57031 271.38281 L 683.77148 272.79688 L 665.38672 279.86719 L 658.31641 271.38281 C 658.31641 271.38281 649.47758 271.02833 639.93164 270.85156 C 636.7281 270.79226 633.70196 270.80604 630.64648 270.80664 z "
     id="path5352" />
  <path
     d="M 777.03125 203.28125 C 777.83263 206.22977 778.63943 209.14683 779.42188 212.25391 C 781.75338 221.51244 783.72852 230.13477 783.72852 230.13477 L 777.39453 239.18164 L 789.03516 255.07031 L 795.58984 273.80664 L 783.30664 277.14258 L 771.47852 319.92188 L 786.35742 326.14062 L 782.12695 337.54688 L 772.94531 341.50781 L 763.74414 361.58984 L 763.52148 363.17578 C 812.78964 379.785 860.93813 382.00405 907.80273 369.27539 C 915.40225 367.21133 922.96719 364.77873 930.39648 361.84961 C 921.95395 336.1188 907.2032 310.50356 886.33203 285.01953 L 869.75 305.44727 L 847 311.19727 L 870 303.44727 L 884.27734 282.52344 C 882.55325 280.45866 880.80074 278.39506 878.99609 276.33203 C 853.9385 247.97921 826.34117 226.48402 796.20508 211.87305 C 789.87482 208.74926 783.47037 205.91974 777.03125 203.28125 z "
     id="path4" />
</svg>
