<?xml version="1.0" encoding="UTF-8" standalone="no"?>
<svg
   xmlns:dc="http://purl.org/dc/elements/1.1/"
   xmlns:cc="http://creativecommons.org/ns#"
   xmlns:rdf="http://www.w3.org/1999/02/22-rdf-syntax-ns#"
   xmlns:svg="http://www.w3.org/2000/svg"
   xmlns="http://www.w3.org/2000/svg"
   xmlns:sodipodi="http://sodipodi.sourceforge.net/DTD/sodipodi-0.dtd"
   xmlns:inkscape="http://www.inkscape.org/namespaces/inkscape"
   version="1.1"
   width="1130.06665"
   height="1275.2334"
   viewBox="0,0,1130.06665,1275.2334"
   id="svg5433"
   sodipodi:docname="depletion_layer_breakdown.svg"
   inkscape:version="0.92.4 5da689c313, 2019-01-14">
  <metadata
     id="metadata5439">
    <rdf:RDF>
      <cc:Work
         rdf:about="">
        <dc:format>image/svg+xml</dc:format>
        <dc:type
           rdf:resource="http://purl.org/dc/dcmitype/StillImage" />
      </cc:Work>
    </rdf:RDF>
  </metadata>
  <defs
     id="defs5437" />
  <sodipodi:namedview
     pagecolor="#ffffff"
     bordercolor="#666666"
     borderopacity="1"
     objecttolerance="10"
     gridtolerance="10"
     guidetolerance="10"
     inkscape:pageopacity="0"
     inkscape:pageshadow="2"
     inkscape:window-width="1920"
     inkscape:window-height="1176"
     id="namedview5435"
     showgrid="false"
     inkscape:zoom="1.046881"
     inkscape:cx="286.13536"
     inkscape:cy="603.01032"
     inkscape:window-x="0"
     inkscape:window-y="0"
     inkscape:window-maximized="1"
     inkscape:current-layer="svg5433" />
  <g
     transform="matrix(0.9,0,0,0.9,50.6,57.1)"
     id="g5431">
    <g
       stroke-width="none"
       stroke-miterlimit="none"
       font-weight="none"
       font-size="none"
       text-anchor="none"
       style="font-family:none;mix-blend-mode:normal;fill:none;fill-rule:nonzero;stroke:none;stroke-linecap:butt;stroke-linejoin:miter;stroke-dasharray:none;stroke-dashoffset:0"
       id="g5429">
      <path
         d="m 837.5623,744.12004 c -22.70174,14.64064 -44.03997,22.29485 -70.80945,25.39991 -15.26843,1.77084 -26.87343,1.78286 -40.75583,0.0416 -29.60847,-3.7139 -57.97624,-15.6642 -81.70078,-34.41756 -4.57954,-3.61995 -8.799,-7.27909 -12.75633,-11.0874 l 10.44334,-4.34632 c 6.93023,6.49183 14.35391,12.36789 21.80587,17.15996 51.23608,32.94791 117.54966,32.62715 168.60692,-0.81552 5.15775,-3.37834 10.08282,-7.04108 14.75856,-10.96708 l 1.54334,10.85172 0.12098,0.36006 c -3.50836,2.64433 -7.23323,5.22593 -11.25661,7.82066 z"
         id="path5272 1 1"
         stroke-miterlimit="4"
         inkscape:connector-curvature="0"
         style="fill:#000000;stroke:#000000;stroke-width:0.03571;stroke-miterlimit:4" />
      <path
         d="m 265.78853,502.89678 5.76872,-6.88682"
         stroke-miterlimit="10"
         id="path5375"
         inkscape:connector-curvature="0"
         style="fill:none;stroke:none;stroke-width:1;stroke-miterlimit:10" />
      <path
         d=""
         stroke-miterlimit="10"
         id="path5377"
         inkscape:connector-curvature="0"
         style="opacity:0;fill:none;stroke:#00bb31;stroke-width:6;stroke-miterlimit:10" />
      <path
         d="m 373.32309,673.89612 12.31222,-0.4312"
         stroke-miterlimit="10"
         id="path5379"
         inkscape:connector-curvature="0"
         style="fill:none;stroke:none;stroke-width:1;stroke-miterlimit:10" />
      <path
         d=""
         stroke-miterlimit="10"
         id="path5381"
         inkscape:connector-curvature="0"
         style="opacity:0;fill:none;stroke:#00bb31;stroke-width:6;stroke-miterlimit:10" />
      <path
         d=""
         stroke-miterlimit="10"
         id="path5383"
         inkscape:connector-curvature="0"
         style="fill:none;stroke:none;stroke-width:1;stroke-miterlimit:10" />
      <path
         d=""
         stroke-miterlimit="10"
         id="path5385"
         inkscape:connector-curvature="0"
         style="fill:none;stroke:none;stroke-width:1;stroke-miterlimit:10" />
      <path
         d="m 333.26876,758.67278 -1.06439,-0.44385"
         stroke-miterlimit="10"
         id="path5387"
         inkscape:connector-curvature="0"
         style="fill:none;stroke:none;stroke-width:1;stroke-miterlimit:10" />
      <path
         d=""
         stroke-miterlimit="10"
         id="path5389"
         inkscape:connector-curvature="0"
         style="opacity:0;fill:none;stroke:#00bb31;stroke-width:6;stroke-miterlimit:10" />
      <path
         d=""
         stroke-miterlimit="10"
         id="path5391"
         inkscape:connector-curvature="0"
         style="fill:none;stroke:none;stroke-width:1;stroke-miterlimit:10" />
      <path
         d="m 315.19024,749.85789 -0.66139,-0.37741"
         stroke-miterlimit="10"
         id="path5393"
         inkscape:connector-curvature="0"
         style="fill:none;stroke:none;stroke-width:1;stroke-miterlimit:10" />
      <path
         d=""
         stroke-miterlimit="10"
         id="path5395"
         inkscape:connector-curvature="0"
         style="opacity:0;fill:none;stroke:#00bb31;stroke-width:6;stroke-miterlimit:10" />
      <path
         d="m 300.98825,740.73412 -0.4456,-0.31756"
         stroke-miterlimit="10"
         id="path5397"
         inkscape:connector-curvature="0"
         style="fill:none;stroke:none;stroke-width:1;stroke-miterlimit:10" />
      <path
         d=""
         stroke-miterlimit="10"
         id="path5399"
         inkscape:connector-curvature="0"
         style="opacity:0;fill:none;stroke:#00bb31;stroke-width:6;stroke-miterlimit:10" />
      <path
         d="m 516.64143,703.3261 0.36946,-0.45253"
         stroke-miterlimit="10"
         id="path5401"
         inkscape:connector-curvature="0"
         style="fill:none;stroke:none;stroke-width:1;stroke-miterlimit:10" />
      <path
         d=""
         stroke-miterlimit="10"
         id="path5403"
         inkscape:connector-curvature="0"
         style="opacity:0;fill:none;stroke:#00bb31;stroke-width:6;stroke-miterlimit:10" />
      <path
         d=""
         stroke-miterlimit="10"
         id="path5405"
         inkscape:connector-curvature="0"
         style="fill:none;stroke:none;stroke-width:1;stroke-miterlimit:10" />
      <path
         d="m 335.0883,652.64073 2.87287,3.34143"
         stroke-miterlimit="10"
         id="path5407"
         inkscape:connector-curvature="0"
         style="fill:none;stroke:none;stroke-width:1;stroke-miterlimit:10" />
      <path
         d=""
         stroke-miterlimit="10"
         id="path5409"
         inkscape:connector-curvature="0"
         style="opacity:0;fill:none;stroke:#00bb31;stroke-width:6;stroke-miterlimit:10" />
      <path
         d=""
         stroke-miterlimit="10"
         id="path5411"
         inkscape:connector-curvature="0"
         style="fill:none;stroke:none;stroke-width:1;stroke-miterlimit:10" />
      <path
         d="m 244.63737,730.03337 0.28147,-0.24784"
         stroke-miterlimit="10"
         id="path5413"
         inkscape:connector-curvature="0"
         style="fill:none;stroke:none;stroke-width:1;stroke-miterlimit:10" />
      <path
         d=""
         stroke-miterlimit="10"
         id="path5415"
         inkscape:connector-curvature="0"
         style="opacity:0;fill:none;stroke:#00bb31;stroke-width:6;stroke-miterlimit:10" />
      <path
         d=""
         stroke-miterlimit="10"
         id="path5417"
         inkscape:connector-curvature="0"
         style="fill:none;stroke:none;stroke-width:1;stroke-miterlimit:10" />
      <path
         d="m 597.51038,760.54123 -2.36109,0.0747 -29.09294,-33.37173 -29.0929,-33.37176 -5.10384,7.27627 c -7.37318,10.51157 -15.76662,19.96677 -25.16542,28.35208 l -1.00947,-0.73822 0.74155,0.97672 c -8.63853,7.67277 -18.1228,14.4453 -28.44132,20.30714 -43.97991,24.9846 -98.19749,27.83146 -144.71621,8.62631 l -0.97181,-4.65675 -0.0926,4.2129 c -5.80576,-2.44517 -11.48885,-5.23557 -17.01412,-8.37104 l -1.17438,-3.15311 0.51299,2.7757 c -0.12586,-0.0722 -0.25163,-0.14461 -0.37733,-0.21719 -4.1998,-2.42498 -8.72521,-5.37523 -13.16328,-8.52918 l 0.63523,-1.87301 -1.08083,1.55545 c -9.21045,-6.58241 -17.98393,-13.99813 -22.61362,-19.36057 l -3.11125,-3.60367 -30.64982,26.46166 c -19.76526,17.06443 -31.23402,26.59278 -32.29486,26.8309 -3.39308,0.76161 -5.71932,-1.27045 -6.62841,-5.7902 -0.0221,-0.10981 14.01282,-12.5737 31.18871,-27.6975 l 8.20396,-7.22381 0.84831,0.83704 -0.56684,-1.08489 22.74343,-20.02619 -4.53901,-6.08355 c -19.42485,-26.03475 -31.03866,-58.99617 -32.41186,-91.98878 -0.36034,-8.65759 0.82969,-26.25971 2.3787,-35.18418 3.96964,-22.87077 13.87345,-47.15151 26.66179,-65.36555 2.19761,-3.12999 4.1446,-5.80372 6.03664,-8.24048 l 5.90706,1.09849 6.41698,1.14375 c -3.01465,3.47171 -5.82931,7.02769 -8.40079,10.63065 -39.00845,54.65456 -38.59809,129.24973 1.00238,182.21376 l 4.38689,5.86731 51.9772,-44.87476 -49.80708,-57.69018 7.65278,-6.60706 13.97648,16.18857 c 7.68706,8.90371 14.1417,16.04593 14.34365,15.87158 0.20195,-0.17435 6.93436,-35.62098 14.96092,-78.77029 l 14.59376,-78.45329 -2.82985,-3.63225 c -3.32002,-4.2614 -2.75596,-4.32456 -14.33247,1.60483 -15.32739,7.85056 -30.49194,19.45215 -42.94801,32.60716 l -5.74146,-2.13494 -5.38971,-1.95015 c 3.55081,-3.9112 7.5603,-7.77287 13.15565,-12.84833 13.26129,-12.02911 22.1547,-18.25677 35.93238,-25.16184 4.6879,-2.34947 8.5903,-4.32822 8.67199,-4.39723 0.0814,-0.0693 -12.55969,-14.84505 -28.09195,-32.83565 -31.54769,-36.54083 -31.25244,-36.10801 -27.08678,-39.70445 3.39962,-2.93508 1.55043,-4.69818 34.862,33.23921 l 30.66082,34.91852 2.10673,-0.53503 c 1.15871,-0.29427 6.29108,-1.63459 11.40528,-2.97849 18.17944,-4.77715 32.51603,-6.21225 51.32659,-5.13776 16.01813,0.91496 28.92943,3.25047 42.59451,7.89952 l -0.22978,0.30246 -8.10714,7.37672 c -26.13846,-7.38487 -53.81201,-7.75926 -80.65715,-0.9545 -11.72366,2.97174 -11.44122,2.72752 -7.89919,6.83016 1.64259,1.90256 3.01368,4.16009 3.04688,5.01671 0.0332,0.85663 -6.96918,39.2038 -15.56083,85.21593 -8.59165,46.01213 -15.5654,84.09585 -15.49723,84.63047 0.0605,0.47423 5.6419,7.27807 12.89826,15.75435 l -0.3935,1.83184 1.20736,12.68603 1.42421,-9.67359 0.63479,-1.50285 c 13.93443,16.13959 15.8055,18.09125 17.58183,18.34598 0.63949,0.0917 8.07036,-0.10856 17.78008,-0.43202 l 0.91087,2.06238 10.06556,7.58638 c -11.03737,0.478 -20.18438,0.99306 -20.52033,1.28311 -0.37593,0.32456 4.43794,6.32696 13.38952,16.69532 l 13.97648,16.18857 -7.65278,6.60706 -49.80708,-57.69018 -51.80343,44.72473 2.00691,2.32455 c 1.1038,1.2785 4.98676,4.97709 8.62881,8.21909 44.52443,39.63379 107.74759,50.17635 162.77649,27.14324 20.40082,-8.53904 36.09316,-19.06694 51.07004,-34.26259 l -10e-6,10e-6 c 3.53961,-3.59131 7.02221,-7.47858 10.2773,-11.45167 l 2.18444,-0.17442 -1.81497,-0.2781 c 3.45532,-4.24692 6.64412,-8.58251 9.35911,-12.75129 l 3.22218,-4.94757 -3.26443,-3.43195 -3.26444,-3.43196 -25.73059,0.94522 -25.7306,0.94522 -26.83805,11.05847 c -14.76094,6.08216 -26.9758,10.89892 -27.14415,10.70393 -0.16835,-0.19499 0.44529,-1.53328 1.36366,-2.97396 1.83808,-2.88348 5.29093,-15.50002 4.49446,-16.42254 -0.28922,-0.335 -14.3532,0.0208 -28.75735,0.55849 l -8.49494,-7.6109 -0.59044,-2.04981 c 17.83943,-0.65124 37.02496,-1.45627 37.25605,-1.65578 0.1192,-0.10292 -0.002,-1.5009 -0.26943,-3.10664 -0.65643,-3.94208 -3.09578,-9.84655 -5.69569,-13.78641 l -2.13976,-3.24256 27.15599,8.87245 c 14.93579,4.87984 28.67674,9.0138 30.53545,9.18658 2.77686,0.25812 40.11206,-0.95701 52.5429,-1.71008 3.25141,-0.19698 3.47166,-0.0751 6.34637,3.51113 1.9192,2.39424 3.20991,3.51502 3.63009,3.15225 0.35862,-0.30961 2.07751,-3.79362 3.81978,-7.74224 l 10e-5,1.1e-4 c 4.98258,-11.29238 8.71672,-24.62723 10.83076,-38.08965 l 9.4653,6.19369 c -2.24994,13.16851 -6.1017,25.55046 -12.0719,39.20144 l -4.57752,10.46657 60.40431,69.96466 -0.51717,2.04594 c -0.68384,2.70532 -1.97665,3.72417 -4.84053,3.81488 z"
         stroke-miterlimit="10"
         id="path5419"
         inkscape:connector-curvature="0"
         style="fill:#000000;stroke:none;stroke-width:1;stroke-miterlimit:10" />
      <path
         d="m 506.69421,729.50083 -0.26792,0.2385"
         stroke-miterlimit="10"
         id="path5421"
         inkscape:connector-curvature="0"
         style="fill:none;stroke:none;stroke-width:1;stroke-miterlimit:10" />
      <path
         d=""
         stroke-miterlimit="10"
         id="path5423"
         inkscape:connector-curvature="0"
         style="opacity:0;fill:none;stroke:#00bb31;stroke-width:6;stroke-miterlimit:10" />
      <path
         d="m 67.51658,756.498 c 0.09192,-5.26586 -0.5555,-10.19458 -1.94224,-14.78615 -1.38674,-4.59157 -3.51776,-8.5627 -6.39306,-11.91339 -2.87529,-3.35069 -6.49603,-6.01429 -10.8622,-7.99079 -4.36617,-1.9765 -9.44881,-3.01536 -15.24793,-3.11659 l -14.99772,-0.26179 -1.29846,74.38867 17.19738,0.30018 c 6.06574,0.10588 11.21575,-0.80438 15.45001,-2.73078 4.23427,-1.9264 7.68087,-4.56665 10.33981,-7.92075 2.65894,-3.35411 4.59426,-7.27093 5.80596,-11.75046 1.2117,-4.47954 1.86118,-9.21892 1.94844,-14.21816 z m -58.41099,51.68846 1.82552,-104.58407 837.07249,14.61115 -1.82552,104.58407 z m 118.15797,-71.04868 0.2932,-16.79744 -45.59305,-0.79583 -1.29846,74.38867 45.59305,0.79583 0.2932,-16.79744 -28.79561,-0.50263 0.20943,-11.99817 21.19677,0.36999 0.2932,-16.79744 -21.19677,-0.36999 0.20943,-11.99817 z m 11.79145,-16.59674 -1.29846,74.38867 17.0974,0.29844 0.45725,-26.19601 5.59915,0.0977 c 3.19951,0.0558 6.10925,-0.47678 8.72922,-1.5979 2.61997,-1.12111 4.86509,-2.73218 6.73538,-4.83319 1.87029,-2.10101 3.33095,-4.60924 4.38199,-7.52467 1.05104,-2.91543 1.60798,-6.17288 1.67081,-9.77233 0.064,-3.66611 -0.37805,-6.991 -1.32612,-9.97466 -0.94807,-2.98367 -2.32031,-5.54134 -4.11671,-7.67302 -1.7964,-2.13168 -3.98452,-3.78678 -6.56434,-4.96532 -2.57982,-1.17854 -5.46949,-1.79573 -8.66901,-1.85158 z m 72.7835,58.87921 1.00526,-57.59123 -16.79744,-0.2932 -1.29846,74.38867 36.69441,0.6405 0.2932,-16.79744 z m 77.70033,-39.44995 0.2932,-16.79744 -45.59305,-0.79583 -1.29846,74.38867 45.59305,0.79583 0.2932,-16.79744 -28.79561,-0.50263 0.20943,-11.99817 21.19677,0.36999 0.2932,-16.79744 -21.19677,-0.36999 0.20943,-11.99817 z m 60.78399,-15.74157 -50.59229,-0.88309 -0.2932,16.79744 16.89743,0.29495 -1.00526,57.59123 16.79744,0.2932 1.00526,-57.59123 16.89743,0.29495 z m 24.99753,74.84767 1.29846,-74.38867 -16.79744,-0.2932 -1.29846,74.38867 z m 68.21,-45.81655 c -0.007,-3.40065 -0.58296,-6.7112 -1.72693,-9.93165 -1.14397,-3.22046 -2.89367,-6.1181 -5.24909,-8.69293 -2.68289,-2.91393 -5.76068,-5.16799 -9.23339,-6.76217 -3.47271,-1.59418 -7.17543,-2.4256 -11.10816,-2.49424 l -0.1,-0.002 c -3.93273,-0.0687 -7.64555,0.63333 -11.13845,2.10593 -3.4929,1.4726 -6.66415,3.61758 -9.51375,6.43494 -2.37719,2.49223 -4.22782,5.37703 -5.55189,8.65442 -1.32407,3.27739 -2.01402,6.51584 -2.06987,9.71536 l -0.30367,17.39735 c -0.003,4.00055 0.51435,7.77683 1.55252,11.32882 1.03817,3.55199 2.83262,6.75046 5.38336,9.59541 2.74954,2.9151 5.86067,5.16974 9.33337,6.76392 3.47271,1.59418 7.1421,2.42502 11.00818,2.4925 l 0.1,0.002 c 3.93273,0.0686 7.66222,-0.63304 11.18844,-2.10506 3.52623,-1.47202 6.6814,-3.65062 9.46551,-6.5358 2.71513,-2.75303 4.65489,-5.96967 5.8193,-9.64991 1.16441,-3.68024 1.77802,-7.32008 1.84085,-10.91954 z m 47.37105,-26.57731 -0.63701,36.49444 -19.25996,-36.84174 -17.0974,-0.29844 -1.29846,74.38867 17.79729,0.31065 0.63876,-36.59443 19.3582,36.94347 16.99741,0.29669 1.29846,-74.38867 z m 73.98332,58.90016 1.00526,-57.59123 -16.79744,-0.2932 -1.29846,74.38867 36.69441,0.6405 0.2932,-16.79744 z m 70.7381,-1.56569 6.35691,19.71395 19.09709,0.33334 -20.49822,-74.76913 -22.39659,-0.39093 -23.09514,74.00821 19.09709,0.33334 6.94106,-19.48183 z m 91.54259,-53.21047 -18.79714,-0.32811 -8.90585,17.44723 -8.39151,-17.74916 -18.79714,-0.32811 18.44786,37.52768 -0.64923,37.19433 15.79759,0.27575 0.64923,-37.19433 z m 55.69828,17.77478 0.2932,-16.79744 -45.59305,-0.79583 -1.29846,74.38867 45.59305,0.79583 0.2932,-16.79744 -28.79561,-0.50263 0.20943,-11.99817 21.19677,0.36999 0.2932,-16.79744 -21.19677,-0.36999 0.20943,-11.99817 z m 56.78593,58.59998 -14.57936,-29.95901 c 0.86653,0.0151 2.07421,-0.41386 3.62301,-1.28697 1.54881,-0.8731 3.08851,-2.17976 4.61912,-3.91998 1.5306,-1.74022 2.86851,-3.90053 4.01372,-6.48094 1.14521,-2.58041 1.7469,-5.53702 1.80508,-8.86985 0.0558,-3.19951 -0.25753,-6.25545 -0.94014,-9.1678 -0.68261,-2.91236 -1.85488,-5.46654 -3.51681,-7.66254 -1.66193,-2.19601 -3.898,-3.96863 -6.70821,-5.31788 -2.81021,-1.34925 -6.34833,-2.06111 -10.61435,-2.13557 l -22.69654,-0.39617 -1.29846,74.38867 16.79744,0.2932 0.42235,-24.19631 0.19997,0.003 9.57613,24.37084 z"
         stroke-miterlimit="10"
         id="path5425"
         inkscape:connector-curvature="0"
         style="fill:#fe5000;stroke:none;stroke-width:1;stroke-miterlimit:10" />
      <path
         d="m 280.46495,842.29458 c 1.19708,0.0837 2.49089,-0.26021 3.88143,-1.03176 1.39054,-0.77155 2.68795,-1.88375 3.89223,-3.33662 1.20428,-1.45287 2.22997,-3.21895 3.07708,-5.29826 0.84711,-2.07931 1.36135,-4.41579 1.54271,-7.00946 0.17207,-2.46066 -0.0998,-4.78528 -0.81551,-6.97388 -0.71574,-2.18859 -1.88236,-4.1414 -3.49986,-5.85841 -1.6175,-1.71701 -3.75704,-3.13638 -6.4186,-4.25811 -2.66157,-1.12173 -5.82122,-1.81048 -9.47896,-2.06625 l -17.25786,-1.20679 -5.18988,74.21877 24.24081,1.69508 c 3.25871,0.22787 6.15676,-0.12082 8.69415,-1.04608 2.53739,-0.92525 4.68703,-2.2786 6.44892,-4.06004 1.76189,-1.78144 3.14452,-3.87342 4.14789,-6.27595 1.00337,-2.40253 1.60039,-4.96713 1.79106,-7.6938 0.13021,-1.86212 -0.0272,-3.91143 -0.47229,-6.14792 -0.44507,-2.23649 -1.25092,-4.33114 -2.41754,-6.28395 -1.16662,-1.9528 -2.73773,-3.61645 -4.71333,-4.99094 -1.9756,-1.37449 -4.45975,-2.16637 -7.45244,-2.37564 z m -37.62612,52.10225 7.29653,-104.3452 599.93502,41.95154 -7.29653,104.3452 z m 107.42155,-8.0262 -12.99145,-30.68098 c 0.86456,0.0605 2.09302,-0.30474 3.6854,-1.09559 1.59238,-0.79085 3.19836,-2.01514 4.81794,-3.67286 1.61958,-1.65773 3.06872,-3.74506 4.3474,-6.26199 1.27869,-2.51693 2.03429,-5.43801 2.26681,-8.76322 0.22322,-3.1922 0.0702,-6.26035 -0.45905,-9.20444 -0.52925,-2.94409 -1.56624,-5.55612 -3.11096,-7.8361 -1.54472,-2.27997 -3.68495,-4.1672 -6.4207,-5.66168 -2.73575,-1.49448 -6.23176,-2.39053 -10.48803,-2.68816 l -22.6447,-1.58347 -5.18988,74.21877 16.75908,1.17191 1.68811,-24.14105 0.19951,0.0139 8.28753,24.83861 z m 61.37791,-53.4487 1.17191,-16.75908 -45.48892,-3.1809 -5.18988,74.21877 45.48892,3.1809 1.17191,-16.75908 -28.72984,-2.00899 0.83708,-11.97077 21.14836,1.47884 1.17191,-16.75908 -21.14836,-1.47884 0.83708,-11.97077 z m 48.0255,41.45107 5.31645,20.01962 19.05347,1.33235 -16.55701,-75.73946 -22.34543,-1.56255 -26.93678,72.69807 19.05347,1.33235 7.95115,-19.09186 z m 92.20683,-48.48609 -20.74933,-1.45093 -13.27731,16.4138 1.20679,-17.25786 -16.75908,-1.17191 -5.18988,74.21877 16.75908,1.17191 1.12308,-16.06078 10.84769,16.89786 20.74933,1.45093 -24.9448,-38.9349 z m 57.75769,41.32965 c 0.36738,-5.25384 -0.0212,-10.20968 -1.16573,-14.86753 -1.14454,-4.65785 -3.0648,-8.73507 -5.7608,-12.23165 -2.69599,-3.49658 -6.17236,-6.34602 -10.4291,-8.54832 -4.25674,-2.2023 -9.27805,-3.50574 -15.06392,-3.91033 l -14.96346,-1.04635 -5.18988,74.21877 17.1581,1.19981 c 6.05189,0.42319 11.24247,-0.21629 15.57176,-1.91844 4.32928,-1.70215 7.90934,-4.1584 10.74018,-7.36875 2.83084,-3.21035 4.9685,-7.02052 6.41297,-11.4305 1.44448,-4.40998 2.34111,-9.10888 2.68989,-14.0967 z m 69.51553,-4.96293 c 0.17067,-3.39637 -0.23093,-6.73251 -1.20478,-10.00842 -0.97386,-3.27591 -2.5695,-6.26116 -4.78694,-8.95574 -2.52671,-3.05035 -5.48232,-5.4624 -8.86683,-7.23615 -3.38451,-1.77375 -7.03865,-2.79781 -10.9624,-3.07218 l -0.0998,-0.007 c -3.92375,-0.27438 -7.66822,0.23232 -11.2334,1.5201 -3.56518,1.28778 -6.84435,3.26385 -9.83749,5.92821 -2.50437,2.3644 -4.50344,5.1484 -5.99722,8.352 -1.49378,3.2036 -2.35228,6.40151 -2.5755,9.59371 l -1.21376,17.35761 c -0.21252,3.99491 0.10664,7.79309 0.95749,11.39455 0.85085,3.60146 2.47545,6.88946 4.87379,9.86401 2.59321,3.055 5.58207,5.46938 8.96659,7.24312 3.38451,1.77375 7.0054,2.79548 10.86264,3.06521 l 0.0998,0.007 c 3.92375,0.27438 7.68484,-0.23116 11.28328,-1.51661 3.59843,-1.28545 6.8633,-3.29594 9.79459,-6.03146 2.85549,-2.60716 4.96094,-5.71787 6.31636,-9.33213 1.35542,-3.61425 2.15869,-7.217 2.40981,-10.80823 z m 77.52668,-22.04572 -10.11087,32.77454 -5.45113,-33.86274 -14.06565,-0.98357 -10.11087,32.77454 -5.55089,-33.86972 -19.75177,-1.38118 13.86359,75.55111 16.06078,1.12308 9.97135,-30.77941 4.59308,31.79786 15.06322,1.05332 26.23848,-72.7469 z m 68.93168,4.82018 -2.54611,36.41109 -17.30541,-37.79924 -17.05835,-1.19284 -5.18988,74.21877 17.75664,1.24167 2.55309,-36.51084 17.39819,37.90597 16.95859,1.18586 5.18988,-74.21877 z"
         stroke-miterlimit="10"
         id="path5427"
         inkscape:connector-curvature="0"
         style="fill:#fe5000;stroke:none;stroke-width:1;stroke-miterlimit:10" />
    </g>
  </g>
</svg>
