<?xml version="1.0" encoding="UTF-8" standalone="no"?>
<!-- Created with Inkscape (http://www.inkscape.org/) -->

<svg
   xmlns:dc="http://purl.org/dc/elements/1.1/"
   xmlns:cc="http://creativecommons.org/ns#"
   xmlns:rdf="http://www.w3.org/1999/02/22-rdf-syntax-ns#"
   xmlns:svg="http://www.w3.org/2000/svg"
   xmlns="http://www.w3.org/2000/svg"
   xmlns:sodipodi="http://sodipodi.sourceforge.net/DTD/sodipodi-0.dtd"
   xmlns:inkscape="http://www.inkscape.org/namespaces/inkscape"
   width="32.327805mm"
   height="23.482691mm"
   viewBox="0 0 32.327805 23.482691"
   version="1.1"
   id="svg4694"
   inkscape:version="0.92.4 5da689c313, 2019-01-14"
   sodipodi:docname="inductor.svg">
  <defs
     id="defs4688" />
  <sodipodi:namedview
     id="base"
     pagecolor="#ffffff"
     bordercolor="#666666"
     borderopacity="1.0"
     inkscape:pageopacity="0.0"
     inkscape:pageshadow="2"
     inkscape:zoom="5.6"
     inkscape:cx="61.841289"
     inkscape:cy="39.39866"
     inkscape:document-units="mm"
     inkscape:current-layer="layer1"
     showgrid="false"
     fit-margin-top="10"
     fit-margin-left="10"
     fit-margin-right="10"
     fit-margin-bottom="10"
     inkscape:window-width="1920"
     inkscape:window-height="1176"
     inkscape:window-x="0"
     inkscape:window-y="0"
     inkscape:window-maximized="1" />
  <metadata
     id="metadata4691">
    <rdf:RDF>
      <cc:Work
         rdf:about="">
        <dc:format>image/svg+xml</dc:format>
        <dc:type
           rdf:resource="http://purl.org/dc/dcmitype/StillImage" />
        <dc:title></dc:title>
      </cc:Work>
    </rdf:RDF>
  </metadata>
  <g
     inkscape:label="Layer 1"
     inkscape:groupmode="layer"
     id="layer1"
     transform="translate(-42.794841,-120.47348)">
    <path
       style="fill:#000080;fill-opacity:1;stroke:none;stroke-width:0.07921591;stroke-linecap:square;stroke-miterlimit:4;stroke-dasharray:none;stroke-opacity:1"
       d="m 62.290316,140.9296 c -0.05602,0.0396 -0.180008,0.0433 -0.278127,0.008 -0.257064,-0.0916 -0.593717,-0.39856 -0.739229,-0.67397 -0.02507,-0.0474 -0.05364,-0.0927 -0.06346,-0.10049 -0.02652,-0.0211 -0.165136,0.0231 -0.237737,0.0757 -0.03832,0.0278 -0.09299,0.088 -0.137692,0.15189 -0.171815,0.24527 -0.122493,0.41551 0.183326,0.6326 0.204183,0.14495 0.462541,0.25566 0.788713,0.33799 l 0.119421,0.0301 -0.459704,0.5793 -0.459702,0.57929 -0.09773,-0.0776 -0.09772,-0.0776 0.341921,-0.43087 c 0.320913,-0.4044 0.340011,-0.43167 0.313414,-0.44181 -0.352453,-0.13513 -0.53788,-0.23573 -0.705949,-0.38303 -0.248082,-0.21743 -0.320221,-0.4328 -0.235018,-0.70166 0.02102,-0.0663 0.05304,-0.11746 0.14647,-0.23415 0.135671,-0.16936 0.224829,-0.23277 0.383967,-0.27303 l 0.08929,-0.0226 0.0019,-0.0929 c 0.0058,-0.27922 0.210851,-0.53504 0.484587,-0.60424 l 0.09226,-0.0233 0.0013,-0.0663 c 0.0029,-0.1481 0.03884,-0.26318 0.117052,-0.37486 0.103176,-0.14732 0.193266,-0.21599 0.344972,-0.26285 l 0.125279,-0.0387 0.0097,-0.11803 c 0.01438,-0.17489 0.05252,-0.26539 0.166374,-0.39477 0.118825,-0.13499 0.215677,-0.18298 0.394707,-0.19547 0.217039,-0.0151 0.413253,0.0478 0.688267,0.22083 0.143754,0.0904 0.262606,0.19563 0.419732,0.3715 l 0.0371,0.0415 0.297079,-0.39326 0.297077,-0.39327 0.09771,0.0775 0.0977,0.0775 -0.390846,0.5115 c -0.374434,0.49002 -0.39301,0.51207 -0.442092,0.52514 -0.09368,0.025 -0.172237,-0.0522 -0.150151,-0.14749 0.01695,-0.073 -0.0057,-0.11318 -0.144813,-0.25737 -0.230539,-0.23888 -0.560787,-0.40344 -0.781319,-0.38933 -0.11937,0.008 -0.179424,0.0376 -0.248893,0.12403 -0.06384,0.0796 -0.09369,0.16484 -0.09579,0.27448 l -0.0014,0.0713 0.131731,0.032 c 0.202413,0.0491 0.379248,0.13684 0.556139,0.27593 0.28212,0.22184 0.371453,0.44101 0.263087,0.64557 -0.05606,0.10581 -0.213143,0.16774 -0.353634,0.13939 -0.250354,-0.0505 -0.559944,-0.35135 -0.729363,-0.70878 -0.07464,-0.15746 -0.07473,-0.15751 -0.212082,-0.0992 -0.125705,0.0534 -0.212374,0.16259 -0.235801,0.29714 -0.02522,0.1449 -0.02294,0.14848 0.116316,0.1824 0.217818,0.053 0.350911,0.12026 0.55582,0.28069 0.144477,0.11312 0.194211,0.16028 0.234467,0.22242 0.112295,0.1733 0.122446,0.31655 0.03055,0.43112 -0.06608,0.0825 -0.141459,0.11595 -0.250117,0.11116 -0.133968,-0.006 -0.243042,-0.057 -0.414457,-0.1943 -0.180533,-0.1446 -0.304057,-0.29651 -0.403432,-0.4962 l -0.06782,-0.13628 -0.06034,0.008 c -0.18797,0.0257 -0.362464,0.25064 -0.332868,0.429 0.0068,0.0407 0.01064,0.0439 0.07141,0.0579 0.218299,0.0506 0.408221,0.15328 0.612612,0.33124 0.318843,0.2776 0.402513,0.53682 0.215872,0.66877 z m 0.423288,-1.0193 c -0.06075,-0.13325 -0.320036,-0.33139 -0.541983,-0.41418 -0.04282,-0.016 -0.08146,-0.0245 -0.0859,-0.0189 -0.01374,0.0173 0.120815,0.20316 0.226384,0.31269 0.156647,0.16252 0.37205,0.27119 0.419368,0.21156 0.0083,-0.0104 2.41e-4,-0.0515 -0.01787,-0.0912 z m 0.599297,-0.66792 c 0.0238,-0.13125 -0.377084,-0.45683 -0.619278,-0.50295 l -0.04606,-0.009 0.03328,0.0603 c 0.152293,0.27599 0.434054,0.53131 0.569181,0.51576 0.04212,-0.005 0.05435,-0.0174 0.06289,-0.0644 z m -1.253279,1.35261 c -0.100218,-0.13312 -0.43687,-0.38007 -0.508667,-0.37314 -0.03869,0.004 0.144916,0.20825 0.291472,0.32465 0.142826,0.11343 0.285743,0.19008 0.281186,0.15081 -0.0013,-0.0112 -0.0301,-0.0573 -0.06399,-0.10232 z"
       id="path5264"
       inkscape:connector-curvature="0" />
  </g>
</svg>
