<?xml version="1.0" encoding="UTF-8" standalone="no"?>
<svg
   xmlns:dc="http://purl.org/dc/elements/1.1/"
   xmlns:cc="http://creativecommons.org/ns#"
   xmlns:rdf="http://www.w3.org/1999/02/22-rdf-syntax-ns#"
   xmlns:svg="http://www.w3.org/2000/svg"
   xmlns="http://www.w3.org/2000/svg"
   xmlns:sodipodi="http://sodipodi.sourceforge.net/DTD/sodipodi-0.dtd"
   xmlns:inkscape="http://www.inkscape.org/namespaces/inkscape"
   version="1.1"
   width="1450.53333"
   height="1636.8667"
   viewBox="0,0,1450.53333,1636.8667"
   id="svg5458"
   sodipodi:docname="inductor_broken.svg"
   inkscape:version="0.92.4 5da689c313, 2019-01-14">
  <metadata
     id="metadata5464">
    <rdf:RDF>
      <cc:Work
         rdf:about="">
        <dc:format>image/svg+xml</dc:format>
        <dc:type
           rdf:resource="http://purl.org/dc/dcmitype/StillImage" />
      </cc:Work>
    </rdf:RDF>
  </metadata>
  <defs
     id="defs5462" />
  <sodipodi:namedview
     pagecolor="#ffffff"
     bordercolor="#666666"
     borderopacity="1"
     objecttolerance="10"
     gridtolerance="10"
     guidetolerance="10"
     inkscape:pageopacity="0"
     inkscape:pageshadow="2"
     inkscape:window-width="1920"
     inkscape:window-height="1176"
     id="namedview5460"
     showgrid="false"
     inkscape:zoom="1.6311867"
     inkscape:cx="829.55917"
     inkscape:cy="968.63373"
     inkscape:window-x="0"
     inkscape:window-y="0"
     inkscape:window-maximized="1"
     inkscape:current-layer="g5456" />
  <g
     stroke-width="none"
     stroke-linecap="none"
     stroke-miterlimit="none"
     font-weight="none"
     font-size="none"
     text-anchor="none"
     style="font-family:none;mix-blend-mode:normal;fill:none;fill-rule:nonzero;stroke:none;stroke-linejoin:miter;stroke-dasharray:none;stroke-dashoffset:0"
     id="g5456">
    <path
       d="m 669.98421,596.63911 2.909,-0.0291"
       stroke-miterlimit="10"
       id="path5413"
       inkscape:connector-curvature="0"
       style="fill:none;stroke:none;stroke-width:1;stroke-linecap:butt;stroke-miterlimit:10" />
    <path
       d=""
       stroke-miterlimit="10"
       id="path5415"
       inkscape:connector-curvature="0"
       style="opacity:0;fill:none;stroke:#00bb31;stroke-width:6;stroke-linecap:butt;stroke-miterlimit:10" />
    <path
       d=""
       stroke-miterlimit="10"
       id="path5417"
       inkscape:connector-curvature="0"
       style="fill:none;stroke:none;stroke-width:1;stroke-linecap:butt;stroke-miterlimit:10" />
    <path
       d=""
       stroke-miterlimit="10"
       id="path5421"
       inkscape:connector-curvature="0"
       style="opacity:0;fill:none;stroke:#00bb31;stroke-width:6;stroke-linecap:butt;stroke-miterlimit:10" />
    <path
       d="m 641.31007,720.89163 2.30589,7.19187"
       stroke-miterlimit="10"
       id="path5423"
       inkscape:connector-curvature="0"
       style="fill:none;stroke:none;stroke-width:1;stroke-linecap:butt;stroke-miterlimit:10" />
    <path
       d=""
       stroke-miterlimit="10"
       id="path5425"
       inkscape:connector-curvature="0"
       style="opacity:0;fill:none;stroke:#00bb31;stroke-width:6;stroke-linecap:butt;stroke-miterlimit:10" />
    <path
       d="m 641.30761,720.88357 2.62358,8.13093"
       stroke-miterlimit="10"
       id="path5427"
       inkscape:connector-curvature="0"
       style="fill:none;stroke:none;stroke-width:1;stroke-linecap:butt;stroke-miterlimit:10" />
    <path
       d=""
       stroke-miterlimit="10"
       id="path5429"
       inkscape:connector-curvature="0"
       style="opacity:0;fill:none;stroke:#00bb31;stroke-width:6;stroke-linecap:butt;stroke-miterlimit:10" />
    <path
       d="m 609.73022,695.90666 -0.56517,-3.46327"
       stroke-miterlimit="10"
       id="path5431"
       inkscape:connector-curvature="0"
       style="fill:none;stroke:none;stroke-width:1;stroke-linecap:butt;stroke-miterlimit:10" />
    <path
       d=""
       stroke-miterlimit="10"
       id="path5433"
       inkscape:connector-curvature="0"
       style="opacity:0;fill:none;stroke:#00bb31;stroke-width:6;stroke-linecap:butt;stroke-miterlimit:10" />
    <path
       d="m 719.99389,769.30231 c -6.63513,-1.91748 -14.718,-11.43688 -18.10774,-21.37253 -8.95031,-25.97511 -5.96377,-71.74407 6.5533,-100.49667 2.15262,-4.9506 3.92012,-10.04451 3.91569,-11.30642 -0.007,-3.41186 -12.19462,-11.53661 -20.89423,-13.94125 -4.5947,-1.26689 -12.76522,-1.78362 -20.59954,-1.28444 -30.08849,1.90006 -40.37865,16.47784 -38.23445,54.17388 0.81871,14.3997 3.63336,29.48981 8.51815,45.54019 l -0.83915,2.05873 -8.48426,6.57077 -5.55828,7.77021 -5.58087,13.70846 6.83519,-9.91021 6.18544,-5.87109 9.11142,-4.67165 0.95411,-1.52429 c 3.23967,9.51115 7.18158,19.36132 11.84026,29.60335 l 5.13743,11.28431 -74.45265,0.24865 -74.45174,0.24818 -0.0383,-12.56334 -0.0377,-12.56255 55.37641,-0.18465 c 51.97426,-0.1735 55.3193,-0.38515 54.44537,-3.11429 -5.93221,-18.64605 -9.80163,-33.23396 -12.02006,-46.0675 l 9.65417,-10.52387 -10.21933,7.0606 c -1.63516,-10.66698 -2.10156,-20.21509 -1.65308,-30.06462 1.51094,-33.17627 13.91677,-52.3848 40.41764,-62.57955 5.66336,-2.17784 10.95164,-2.9916 22.05459,-3.16011 l 1.45006,7.47386 1.45894,-7.503 c 0.85369,-0.005 1.73881,-0.006 2.65751,-0.005 21.84658,0.0276 32.43693,3.05515 45.60428,13.04161 l 7.38885,5.60258 7.42618,-5.68874 c 5.21927,-3.99551 11.0223,-7.05417 17.14022,-9.17613 l 6.85988,11.66932 -3.00791,-12.55727 -0.16253,-0.26808 c 19.187,-5.38418 40.85099,-1.8916 57.14831,10.47328 l 7.63055,5.79219 5.29633,-4.06429 c 11.83062,-9.07906 23.14051,-13.48435 36.83951,-14.35119 18.07099,-1.14312 29.13361,1.62717 42.35301,10.61432 l 10.91683,7.42141 9.89289,-6.65451 c 2.45951,-1.65426 4.77421,-3.10663 7.00531,-4.37438 l 2.14015,3.40708 6.71618,14.90689 7.68946,1.28515 c -4.26737,1.59111 -8.37553,3.94293 -12.523,7.1286 l -5.69588,4.37064 5.76159,12.37192 c 8.85856,19.00583 13.07058,38.42818 13.24734,61.08196 0.28127,36.13057 -11.3429,56.93025 -34.24209,61.26234 -11.8452,2.24025 -26.58779,-6.22275 -33.18698,-19.05428 -11.76123,-22.86448 -7.55452,-66.1209 9.91119,-101.90828 7.69391,-15.76596 7.69219,-15.77618 -5.52572,-22.91479 -12.09979,-6.53111 -26.13441,-6.48591 -38.18929,0.12712 -12.98161,7.12244 -13.1199,7.52675 -7.03642,20.61118 9.51992,20.46256 12.59383,35.15747 12.85291,61.35601 0.18234,18.4723 -0.40143,25.34769 -2.75903,32.41901 -6.57338,19.72305 -17.20237,29.5238 -31.98862,29.49599 -10.64151,-0.0127 -18.00951,-3.83932 -24.46124,-12.68653 -7.94713,-10.91393 -10.79048,-22.69786 -10.76389,-44.80844 0.0277,-23.2865 4.21308,-42.5485 13.67403,-62.91381 l 6.45665,-13.89852 -4.4212,-4.24312 c -13.83408,-13.16915 -42.49193,-12.75742 -54.6604,0.77917 -2.7738,3.09257 -2.78417,3.5957 -0.0663,9.2552 9.73891,20.34957 13.59831,41.74012 12.44606,68.99956 -1.79656,42.52308 -16.92663,65.39424 -39.03398,59.00675 z m 106.77107,-30.76406 c 6.66264,-13.15203 5.95228,-45.99727 -1.48407,-68.6567 -1.43253,-4.37338 -3.19227,-7.94667 -3.91175,-7.94396 -2.22415,0.007 -8.3865,22.26967 -10.36693,37.45617 -2.93827,22.53397 2.05132,46.30509 9.71498,46.27938 1.33958,-7.6e-4 4.06573,-3.21749 6.05006,-7.13686 z m 90.19534,5.16143 c 11.81877,-6.37631 12.2333,-58.36733 0.64037,-80.31475 l -2.18671,-4.18831 -2.65128,6.40702 c -12.13654,29.32239 -14.5111,67.52873 -4.79619,77.17954 3.04024,2.99861 4.7841,3.18126 9.01743,0.8993 z M 731.81401,730.12962 c 4.1721,-16.24811 2.43879,-58.24574 -2.61825,-63.45722 -2.74603,-2.79168 -7.27225,24.48514 -7.21724,43.32709 0.0542,18.36192 3.00695,34.41961 5.80924,31.59333 0.79921,-0.8061 2.61517,-5.96837 4.02632,-11.46311 z"
       stroke-miterlimit="10"
       id="path5435"
       inkscape:connector-curvature="0"
       style="fill:#d0d0ce;stroke:none;stroke-width:1;stroke-linecap:butt;stroke-miterlimit:10" />
    <path
       d="m 753.11025,600.38386 3.68944,-1.15602"
       stroke-miterlimit="10"
       id="path5437"
       inkscape:connector-curvature="0"
       style="fill:none;stroke:none;stroke-width:1;stroke-linecap:butt;stroke-miterlimit:10" />
    <path
       d=""
       stroke-miterlimit="10"
       id="path5439"
       inkscape:connector-curvature="0"
       style="opacity:0;fill:none;stroke:#00bb31;stroke-width:6;stroke-linecap:butt;stroke-miterlimit:10" />
    <path
       d="m 953.8516,729.77105 c 4.27632,-7.32655 8.44574,-12.6727 13.46421,-16.76921 l 5.20289,3.73629 10.4218,8.91922 -6.92323,-10.85828 -4.7335,-4.66587 c 4.8592,-3.10037 10.56698,-5.371 17.78014,-7.31398 9.16692,-2.46737 18.23099,-3.41141 28.04399,-2.73073 l 0.1106,3.05514 -4.3795,8.65748 -5.2573,12.91938 -0.1908,0.24473 c -3.9846,0.14903 -7.70563,0.65501 -11.07585,1.54206 -11.6385,3.10091 -16.99871,7.1877 -22.18908,17.07136 -2.50855,4.78925 -4.05673,9.5506 -4.68143,14.57186 l -4.69493,6.22391 -16.32311,-0.93739 -4.01056,0.32231 c -0.45884,-12.72022 2.15863,-21.51655 9.43567,-33.9883 z"
       id="path5264 1 1"
       stroke-miterlimit="4"
       inkscape:connector-curvature="0"
       style="fill:#d0d0ce;stroke:none;stroke-width:0.07922;stroke-linecap:square;stroke-miterlimit:4" />
    <path
       d="m 851.3645,568.98509 4.85723,-0.61745"
       stroke-miterlimit="10"
       id="path5442"
       inkscape:connector-curvature="0"
       style="fill:none;stroke:none;stroke-width:1;stroke-linecap:butt;stroke-miterlimit:10" />
    <path
       d=""
       stroke-miterlimit="10"
       id="path5444"
       inkscape:connector-curvature="0"
       style="opacity:0;fill:none;stroke:#00bb31;stroke-width:6;stroke-linecap:butt;stroke-miterlimit:10" />
    <path
       d="m 1018.3745,679.40447 -0.6545,-4.77711"
       stroke-miterlimit="10"
       id="path5446"
       inkscape:connector-curvature="0"
       style="fill:none;stroke:none;stroke-width:1;stroke-linecap:butt;stroke-miterlimit:10" />
    <path
       d=""
       stroke-miterlimit="10"
       id="path5448"
       inkscape:connector-curvature="0"
       style="opacity:0;fill:none;stroke:#00bb31;stroke-width:6;stroke-linecap:butt;stroke-miterlimit:10" />
    <path
       d="m 1043.6065,683.88317 c 1.4818,15.84861 0.6138,30.76116 -3.0763,51.57115 l -2.2465,0.0171 1.478,4.1863 c -0.032,0.17238 -0.065,0.34516 -0.098,0.51835 l -1.0404,5.50673 3.599,-0.0275 13.8848,9.31897 -10.0104,-9.34853 42.1437,-0.32152 49.6179,-0.37931 -0.2005,12.55396 -0.201,12.55316 -64.8078,0.13732 c -62.0864,0.13145 -64.986,-5.7e-4 -69.0383,-3.11939 -7.73874,-5.94939 -6.38829,-16.95531 2.5758,-21.03219 6.8691,-3.1208 8.6898,-7.39257 11.6786,-27.34094 1.9508,-13.03348 2.0285,-26.5968 0.5091,-39.27245 l 2.0633,-3.66279 4.1816,-15.12552 -4.9352,11.19714 -1.9642,2.81405 c -1.9431,-12.57684 -5.4859,-24.06045 -10.3423,-32.98169 l 0.3041,0.0621 13.9092,-1.04045 9.702,0.0699 2.6869,-1.45837 c 4.9111,11.8844 7.9054,26.15072 9.6266,44.60435 z"
       stroke-miterlimit="10"
       id="path5450"
       inkscape:connector-curvature="0"
       style="fill:#d0d0ce;stroke:none;stroke-width:1;stroke-linecap:butt;stroke-miterlimit:10" />
    <path
       d="m 1039.7617,739.65776 0.7685,-4.20344"
       stroke-miterlimit="10"
       id="path5452"
       inkscape:connector-curvature="0"
       style="fill:none;stroke:none;stroke-width:1;stroke-linecap:butt;stroke-miterlimit:10" />
    <path
       d=""
       stroke-miterlimit="10"
       id="path5454"
       inkscape:connector-curvature="0"
       style="opacity:0;fill:none;stroke:#00bb31;stroke-width:6;stroke-linecap:butt;stroke-miterlimit:10" />
  </g>
</svg>
