<svg version="1.1" xmlns="http://www.w3.org/2000/svg" xmlns:xlink="http://www.w3.org/1999/xlink" width="1130.06665" height="1275.2334" viewBox="0,0,1130.06665,1275.2334"><g fill="none" fill-rule="nonzero" stroke="none" stroke-width="none" stroke-linecap="butt" stroke-linejoin="miter" stroke-miterlimit="10" stroke-dasharray="" stroke-dashoffset="0" font-family="none" font-weight="none" font-size="none" text-anchor="none" style="mix-blend-mode: normal"><path d="M726.56005,606.34628l-3.64101,3.41284l-0.24957,-7.21575l0.14193,-0.223z" fill="#d0d0ce" stroke="none" stroke-width="1"/><path d="M558.62416,489.08509l-3.56646,21.40111l-25.29224,-4.21491l14.59006,-87.55002l25.29224,4.21491l-6.97081,41.8295l83.37176,13.89376l-1.64143,14.42456l-1.37108,10.06822z" fill="#d0d0ce" stroke="none" stroke-width="1"/><path d="M355.51591,491.34807l0.37167,-1.34335" fill="none" stroke="none" stroke-width="1"/><path d="" fill="none" stroke="#00bb31" stroke-width="6" opacity="0"/><path d="M373.42119,536.66368l-0.23744,4.04005" fill="none" stroke="none" stroke-width="1"/><path d="" fill="none" stroke="#00bb31" stroke-width="6" opacity="0"/><path d="M364.72305,635.19474l-1.28214,-3.19595" fill="none" stroke="none" stroke-width="1"/><path d="" fill="none" stroke="#00bb31" stroke-width="6" opacity="0"/><path d="M403.21842,654.40475l0.18709,0.29522" fill="none" stroke="none" stroke-width="1"/><path d="" fill="none" stroke="#00bb31" stroke-width="6" opacity="0"/><path d="M496.67177,731.91111l0.92827,0.3618" fill="none" stroke="none" stroke-width="1"/><path d="" fill="none" stroke="#00bb31" stroke-width="6" opacity="0"/><path d="" fill="none" stroke="none" stroke-width="1"/><path d="M582.62144,770.61135l-5.97929,0.3427" fill="none" stroke="none" stroke-width="1"/><path d="" fill="none" stroke="#00bb31" stroke-width="6" opacity="0"/><path d="M661.63355,628.19415l-4.00758,0.87431" fill="none" stroke="none" stroke-width="1"/><path d="" fill="none" stroke="#00bb31" stroke-width="6" opacity="0"/><path d="M638.9387,606.90127l4.75406,-1.03717" fill="none" stroke="none" stroke-width="1"/><path d="" fill="none" stroke="#00bb31" stroke-width="6" opacity="0"/><path d="M561.05625,573.96068l-2.02571,-9.28522" fill="none" stroke="none" stroke-width="1"/><path d="" fill="none" stroke="#00bb31" stroke-width="6" opacity="0"/><path d="M561.45542,575.79032l-0.87258,-3.99964" fill="none" stroke="none" stroke-width="1"/><path d="" fill="none" stroke="#00bb31" stroke-width="6" opacity="0"/><path d="M615.16078,520.54485l6.7297,-4.2757" fill="none" stroke="none" stroke-width="1"/><path d="" fill="none" stroke="#00bb31" stroke-width="6" opacity="0"/><path d="M522.31847,470.42865l0.09494,0.4352" fill="none" stroke="none" stroke-width="1"/><path d="" fill="none" stroke="#00bb31" stroke-width="6" opacity="0"/><path d="M514.4754,554.7735l-0.91817,-4.2086" fill="none" stroke="none" stroke-width="1"/><path d="" fill="none" stroke="#00bb31" stroke-width="6" opacity="0"/><path d="M502.75395,679.00638l6.26802,-1.36746" fill="none" stroke="none" stroke-width="1"/><path d="" fill="none" stroke="#00bb31" stroke-width="6" opacity="0"/><path d="M745.12076,709.76528l0.86442,3.96223" fill="none" stroke="none" stroke-width="1"/><path d="" fill="none" stroke="#00bb31" stroke-width="6" opacity="0"/><path d="M775.94099,627.75546l-1.20121,3.08499" fill="none" stroke="none" stroke-width="1"/><path d="" fill="none" stroke="#00bb31" stroke-width="6" opacity="0"/><path d="" fill="none" stroke="none" stroke-width="1"/><path d="M683.80282,442.66923l1.3132,-5.00221" fill="none" stroke="none" stroke-width="1"/><path d="" fill="none" stroke="#00bb31" stroke-width="6" opacity="0"/><path d="M685.73188,376.09421l12.66143,10.99941l14.90734,-56.78471l24.80066,6.51076l-19.44954,74.08678l6.87796,10.2488c29.13849,43.41888 41.65986,97.0847 35.08115,150.35552c-1.39662,11.30904 -6.33802,30.91059 -11.31324,46.20684l-5.8368,2.2335l-13.43009,-0.68528l-6.68945,-3.98712c13.85366,-35.04532 17.59561,-74.05667 9.44157,-112.63907c-0.70291,-3.32593 -1.5536,-6.78878 -2.52094,-10.30499l4.12205,-6.44965l6.17245,-12.94703l-7.49383,9.17158l-4.2516,5.19787c-4.34646,-14.3996 -10.37163,-29.02581 -15.99582,-38.29331l-2.90954,-4.79433l-17.12979,65.25041l-38.3702,-10.07309l2.28629,-9.90059l2.95399,-14.21394l14.5896,3.83012l9.56728,-36.44347l7.70329,-1.53313l13.40274,-3.58413l-12.38706,-0.28477l-7.40577,0.39982l5.61651,-21.3943l-7.38786,-7.78406c-7.76332,-8.17964 -15.97305,-15.51561 -24.67683,-22.03584l-0.49561,-1.51617l4.42978,-14.67566l4.42512,-8.8855c6.30726,4.43355 12.43231,9.26967 18.70475,14.71872z" fill="#d0d0ce" stroke="none" stroke-width="1"/><path d="M730.26193,492.33465l-1.45092,-5.02722" fill="none" stroke="none" stroke-width="1"/><path d="" fill="none" stroke="#00bb31" stroke-width="6" opacity="0"/><path d="M531.51698,332.14225l3.46549,-0.65705" fill="none" stroke="none" stroke-width="1"/><path d="" fill="none" stroke="#00bb31" stroke-width="6" opacity="0"/><path d="M725.77458,741.38394c-3.46843,-15.89819 -6.44762,-28.87503 -6.62082,-28.83725c-0.1732,0.03779 -3.45916,2.76738 -7.30239,6.06579c-27.60812,23.6944 -58.85521,39.06089 -95.83331,47.12822c-11.29017,2.46312 -22.40524,4.08862 -33.39662,4.87065l-0.39688,-0.35683l-5.79161,-6.44229l-2.54096,-11.08526l-1.45568,11.24907l3.79329,6.52419l0.41256,0.45382c-34.90614,1.5155 -68.65004,-5.55398 -102.89869,-21.39808c-10.59607,-4.90197 -31.45085,-17.61257 -39.10432,-23.83341l-5.44321,-4.42431l-67.94943,14.82418l-5.46541,-25.05173l25.13208,-5.48294c13.8226,-3.01561 24.91195,-5.77577 24.64307,-6.1333c-0.26913,-0.35788 -3.95872,-4.88988 -8.19956,-10.07151c-13.92669,-17.01623 -24.6617,-34.78263 -32.63363,-54.18822l2.55338,-9.67694l-3.83553,6.48099c-4.26328,-10.88563 -7.6804,-22.29254 -10.32494,-34.37332c-2.0326,-9.29087 -4.06934,-20.89896 -4.52325,-25.79642c-2.55822,-27.59549 -0.09765,-54.79106 6.92319,-80.48097l2.99888,-0.81456l-2.62722,-0.5288c12.08427,-43.1493 37.06409,-81.97875 72.75334,-111.2163c18.49053,-15.14798 37.08727,-26.11932 60.36438,-35.61263c8.19973,-3.34416 26.46776,-7.91583 42.51169,-11.03354l9.73009,7.95887l-6.2646,-8.61592c4.2807,-0.79072 8.32815,-1.45811 11.89104,-1.94737l6.38689,4.46466l6.55132,9.23312l-2.56412,-9.55275l-5.38998,-4.74187c1.33875,-0.13154 2.55665,-0.2224 3.63162,-0.26775c15.71275,-0.66301 29.2757,-0.1335 42.90413,1.80316l0.09401,9.92598l2.72004,15.08639l1.13025,1.12558c-24.45692,-4.23374 -49.27635,-3.51292 -75.11383,2.12391c-31.31919,6.83275 -55.45904,18.1706 -80.11276,37.62682c-17.00875,13.42298 -28.43779,25.8442 -40.68476,44.21662c-13.98217,20.97544 -22.41831,40.1608 -28.06827,63.83248c-2.55247,10.69406 -4.19205,21.47696 -4.93685,32.24949l-0.05264,0.04788l-10.32167,2.9057l10.13687,1.08647c-1.93146,39.89477 8.38727,79.47687 30.03467,113.70103l-0.67876,1.12035l0.86586,-0.82514c1.08112,1.70256 2.19032,3.3918 3.32748,5.0671c7.41089,10.91786 16.44144,21.81825 24.12528,29.12041l4.96707,4.72038l66.92861,-14.60147l1.28635,2.63043l14.32105,3.77893l5.40716,9.82435l-1.49908,-10.67696l-12.36702,-4.20523l-0.88045,-2.71898l30.79275,-6.7179l-25.33932,-116.14752l1.249,-1.94076l8.38183,-8.61864l-9.23443,4.71056l-1.31457,1.64024l-27.13546,-124.38047l25.05179,-5.46542l10.8449,49.70964l-0.87204,1.34125l0.96698,-0.90606l47.91851,219.64349l-108.37828,23.73478l7.5295,4.439c8.70362,5.13122 17.80631,9.54555 27.18864,13.22999l-0.80032,4.09827l1.72859,-3.73647c42.0222,16.25496 89.55352,17.9166 131.92542,3.82397l0.00143,0.00449c13.56011,-4.51003 27.17527,-10.65911 39.24485,-17.72435c11.74487,-6.87518 30.01605,-20.98119 38.44281,-29.67931l5.35515,-5.52752l-13.25485,-63.19679l-37.68132,8.22074l-0.34876,-0.65409l-5.67134,-8.01062l1.76327,8.86322l0.24926,0.6758l-55.65391,12.14173l8.82875,40.46825l-25.05179,5.46542l-18.70854,-85.75411l25.05179,-5.46542l4.41438,20.23412l42.43205,-9.25719l5.03954,4.47505l16.11871,3.74048l-12.21063,-4.59308l-4.19356,-4.65961l50.13037,-10.93669l-12.4023,-56.84828l-26.14513,5.70395l1.06365,2.0391c0.58496,1.12149 3.54402,5.09058 6.57554,8.82019c3.03157,3.7296 5.22614,7.2264 4.87688,7.77057c-0.3493,0.54424 -19.57998,-1.63489 -42.73482,-4.84247l-42.09976,-5.83202l7.20053,35.52338l-25.00927,5.45615l-3.69302,-16.92767l0.38582,-0.37923l3.74048,-16.11871l-4.59308,12.21063l-0.4058,0.28767l-13.0919,-60.00919l25.05179,-5.46542l3.88887,17.82535c2.2876,10.48565 4.2617,17.74395 4.7948,17.62765c0.47954,-0.10462 15.54845,-9.53179 33.93439,-21.22421l13.78995,7.2247l11.27126,-0.00983l10.98243,8.60383l-7.60556,-10.74784l-9.58282,-1.06218l-12.12555,-8.28438c19.58861,-12.40235 31.03839,-19.18048 31.70263,-18.75416c0.71454,0.4586 0.47044,2.83778 -0.67214,6.54355c-0.98718,3.20264 -2.04254,7.80358 -2.34521,10.22442l-0.5503,4.40144l45.59518,-9.94727l0.11949,0.23579l6.3349,3.46388l31.8905,143.88552l6.02787,-10.90428c19.77684,-35.77564 27.59592,-75.61541 23.9043,-114.32646l7.77061,0.51334l12.27581,-5.49011l4.18528,-4.64114c1.06345,6.715 1.77213,12.74752 1.93012,17.12969c1.14473,31.755 -3.51538,61.294 -14.11854,89.1521l-10.60475,6.46289l9.40353,-3.3779c-4.73388,11.88903 -10.5608,23.47282 -17.49166,34.79351c-4.21428,6.88345 -9.67805,14.99427 -12.14175,18.02404l-4.47948,5.50877l4.49387,20.59851l-0.28965,0.16067l-12.4033,10.28478l13.25591,-6.3767l0.30146,-0.10652l11.14756,51.09692l-25.05179,5.46542z" fill="#d0d0ce" stroke="none" stroke-width="1"/><path d="M546.87351,329.53783l4.98412,-0.59683" fill="none" stroke="none" stroke-width="1"/><path d="" fill="none" stroke="#00bb31" stroke-width="6" opacity="0"/><path d="M313.2325,792.12694l2.59652,-74.35468l-16.78977,-0.58631l-2.59652,74.35468zM289.50569,806.80783l3.65049,-104.53628l495.99767,17.32062l-3.65049,104.53628zM372.44942,775.48344c0.13262,-3.79769 -0.41906,-7.10228 -1.65502,-9.9138c-1.23597,-2.81151 -2.91489,-5.35499 -5.03677,-7.63043c-2.12188,-2.27544 -4.56838,-4.32874 -7.33949,-6.1599c-2.77111,-1.83116 -5.65883,-3.66639 -8.66313,-5.50569c-2.14282,-1.6758 -3.71371,-3.01478 -4.71268,-4.01692c-0.99897,-1.00214 -1.47635,-2.13616 -1.43214,-3.40205c0.05817,-1.66565 0.65146,-2.8957 1.77987,-3.69013c1.12841,-0.79444 2.35888,-1.16839 3.6914,-1.12186c1.2659,0.04421 2.37257,0.34968 3.32004,0.91643c0.94746,0.56674 1.75761,1.24543 2.43042,2.03606c0.67282,0.79063 1.1934,1.64265 1.56175,2.55606c0.36835,0.91341 0.63966,1.74005 0.81395,2.47992l14.89346,-5.28344c-0.26333,-2.01041 -0.89252,-4.05028 -1.88758,-6.1196c-0.99505,-2.06932 -2.41408,-3.93665 -4.25709,-5.60198c-1.843,-1.66533 -4.12896,-3.06263 -6.85788,-4.19189c-2.72892,-1.12926 -5.92559,-1.75787 -9.59003,-1.88584c-3.06713,-0.0404 -6.04827,0.32245 -8.94344,1.08854c-2.89517,0.76609 -5.47116,1.94358 -7.72799,3.53245c-2.25683,1.58887 -4.09454,3.59262 -5.51315,6.01126c-1.41861,2.41863 -2.18491,5.26029 -2.29892,8.52496c-0.12331,3.53118 0.39061,6.48425 1.54176,8.8592c1.15115,2.37495 2.77683,4.533 4.87703,6.47415c2.1002,1.94115 4.56975,3.8118 7.40866,5.61198c2.8389,1.80017 5.91777,3.89223 9.23659,6.27618c1.49517,1.11953 2.6423,2.17687 3.44139,3.17204c0.79909,0.99516 1.21217,2.06023 1.23924,3.1952c0.00148,1.86786 -0.56257,3.21566 -1.69214,4.04341c-1.12958,0.82775 -2.26301,1.28847 -3.40031,1.38217c-1.3395,0.15335 -2.57885,-0.17344 -3.71805,-0.98036c-1.1392,-0.80692 -2.09169,-1.70737 -2.85746,-2.70137c-0.76578,-0.994 -1.35008,-1.93163 -1.7529,-2.81289c-0.40282,-0.88126 -0.53645,-1.35288 -0.40087,-1.41485l-16.22408,6.13753c0.5732,2.68831 1.57269,5.108 2.99849,7.25907c1.4258,2.15107 3.17912,3.99672 5.25997,5.53694c2.08085,1.54023 4.42318,2.75605 7.02699,3.64746c2.60381,0.89141 5.4048,1.38947 8.40297,1.49417c3.86431,0.13494 7.34457,-0.1938 10.44078,-0.98622c3.09621,-0.79243 5.75432,-1.93369 7.97435,-3.42379c2.22002,-1.4901 3.98297,-3.26298 5.28884,-5.31866c1.30587,-2.05568 2.06731,-4.28046 2.28432,-6.67434zM440.19638,749.53197c0.05203,-3.40026 -0.46575,-6.72035 -1.55334,-9.96028c-1.08759,-3.23993 -2.78645,-6.16767 -5.09657,-8.78322c-2.63162,-2.96031 -5.66961,-5.26774 -9.11397,-6.92229c-3.44436,-1.65455 -7.132,-2.55046 -11.06294,-2.68773l-0.09994,-0.00349c-3.93094,-0.13727 -7.65544,0.4998 -11.17351,1.91121c-3.51807,1.41141 -6.72627,3.50072 -9.62461,6.26792c-2.42032,2.45036 -4.32102,5.30243 -5.70208,8.55621c-1.38106,3.25378 -2.12743,6.4797 -2.23911,9.67775l-0.60725,17.3894c-0.07297,3.99989 0.37855,7.78462 1.35457,11.35419c0.97602,3.56957 2.71438,6.79887 5.21507,9.68791c2.69825,2.96264 5.76955,5.27123 9.21391,6.92578c3.44436,1.65455 7.09869,2.54929 10.963,2.68424l0.09994,0.00349c3.93094,0.13727 7.6721,-0.49922 11.22348,-1.90947c3.55138,-1.41025 6.74409,-3.53345 9.57813,-6.36961c2.76276,-2.70523 4.75837,-5.88752 5.98683,-9.54688c1.22846,-3.65936 1.90551,-7.28794 2.03114,-10.88575zM467.32524,780.69774l2.01021,-57.56491l-16.78977,-0.58631l-2.59652,74.35468l36.67764,1.28081l0.58631,-16.78977zM538.07989,780.36684l6.01189,19.82189l19.08836,0.66658l-19.1902,-75.11549l-22.38635,-0.78175l-24.38324,73.59387l19.08836,0.66658l7.28001,-19.35772zM624.64079,728.55621l-50.56918,-1.76591l-0.58631,16.78977l16.8897,0.5898l-2.01021,57.56491l16.78977,0.58631l2.01021,-57.56491l16.8897,0.5898zM648.32824,803.82874l2.59652,-74.35468l-16.78977,-0.58631l-2.59652,74.35468zM717.32746,759.2096c0.05203,-3.40026 -0.46575,-6.72035 -1.55334,-9.96028c-1.08759,-3.23993 -2.78645,-6.16767 -5.09657,-8.78322c-2.63162,-2.96031 -5.66961,-5.26774 -9.11397,-6.92229c-3.44436,-1.65455 -7.132,-2.55046 -11.06294,-2.68773l-0.09994,-0.00349c-3.93094,-0.13727 -7.65544,0.4998 -11.17351,1.91121c-3.51807,1.41141 -6.72627,3.50072 -9.62461,6.26792c-2.42032,2.45036 -4.32102,5.30243 -5.70208,8.55621c-1.38106,3.25378 -2.12743,6.4797 -2.23911,9.67775l-0.60725,17.3894c-0.07297,3.99989 0.37855,7.78462 1.35457,11.35419c0.97602,3.56957 2.71438,6.79887 5.21507,9.68791c2.69825,2.96264 5.76955,5.27123 9.21391,6.92578c3.44436,1.65455 7.09869,2.54929 10.963,2.68424l0.09994,0.00349c3.93094,0.13727 7.6721,-0.49922 11.22348,-1.90947c3.55138,-1.41025 6.74409,-3.53345 9.57813,-6.36961c2.76276,-2.70523 4.75837,-5.88752 5.98683,-9.54688c1.22846,-3.65936 1.90551,-7.28794 2.03114,-10.88575zM765.15514,733.46308l-1.27383,36.47777l-18.61405,-37.17227l-17.08958,-0.59678l-2.59652,74.35468l17.78916,0.62121l1.27732,-36.5777l18.71049,37.27569l16.98964,0.59329l2.59652,-74.35468z" fill="#fe5000" stroke="none" stroke-width="1"/><path d="M220.06202,870.21259c1.19927,-0.04188 2.45004,-0.51915 3.75232,-1.43183c1.30227,-0.91267 2.47632,-2.1544 3.52214,-3.72519c1.04582,-1.57079 1.88129,-3.43441 2.50641,-5.59088c0.62512,-2.15646 0.89231,-4.5339 0.80157,-7.13232c-0.08609,-2.46516 -0.59942,-4.74864 -1.54001,-6.85043c-0.94059,-2.10179 -2.30494,-3.92195 -4.09306,-5.46048c-1.78812,-1.53853 -4.0643,-2.72649 -6.82854,-3.56386c-2.76424,-0.83737 -5.97858,-1.19208 -9.64301,-1.06411l-17.28946,0.60376l2.59652,74.35468l24.2852,-0.84806c3.26468,-0.11401 6.1104,-0.76372 8.53718,-1.94913c2.42677,-1.18542 4.42318,-2.75605 5.98921,-4.71189c1.56603,-1.95585 2.72241,-4.18089 3.46915,-6.67514c0.74674,-2.49425 1.07241,-5.1072 0.97702,-7.83887c-0.06515,-1.86553 -0.43593,-3.88715 -1.11234,-6.06487c-0.67641,-2.17772 -1.6968,-4.17666 -3.06115,-5.99682c-1.36435,-1.82016 -3.10076,-3.31047 -5.20921,-4.47092c-2.10845,-1.16046 -4.66176,-1.68834 -7.65993,-1.58364zM188.08819,925.96242l-3.65049,-104.53628l601.03364,-20.98856l3.65049,104.53628zM294.08231,906.75157l-16.12732,-29.15493c0.86614,-0.03025 2.0497,-0.52185 3.55069,-1.47482c1.50099,-0.95296 2.9702,-2.33842 4.40763,-4.15636c1.43743,-1.81794 2.66044,-4.04531 3.66903,-6.68212c1.00859,-2.63681 1.45472,-5.62086 1.33839,-8.95216c-0.11168,-3.19805 -0.58457,-6.2334 -1.41866,-9.10604c-0.8341,-2.87264 -2.13843,-5.36197 -3.91301,-7.46799c-1.77458,-2.10602 -4.10036,-3.75919 -6.97734,-4.95952c-2.87698,-1.20033 -6.4475,-1.72604 -10.71157,-1.57713l-22.68617,0.79222l2.59652,74.35468l16.78977,-0.58631l-0.84457,-24.18526l0.19988,-0.00698l10.83848,23.83626zM349.53707,847.17994l-0.58631,-16.78977l-45.57222,1.59142l2.59652,74.35468l45.57222,-1.59142l-0.58631,-16.78977l-28.78246,1.00511l-0.41879,-11.99269l21.18709,-0.73987l-0.58631,-16.78977l-21.18709,0.73987l-0.41879,-11.99269zM401.6323,883.3839l7.37995,19.35423l19.08836,-0.66658l-24.38324,-73.59387l-22.38635,0.78175l-19.1902,75.11549l19.08836,-0.66658l5.91195,-19.8184zM488.26584,825.52519l-20.78733,0.72591l-11.48887,17.71175l-0.60376,-17.28946l-16.78977,0.58631l2.59652,74.35468l16.78977,-0.58631l-0.56188,-16.09019l12.55457,15.6714l20.78733,-0.72591l-28.87796,-36.11417zM550.02725,860.59111c-0.1838,-5.26346 -1.08828,-10.15154 -2.71343,-14.66424c-1.62515,-4.5127 -3.96108,-8.36686 -7.00779,-11.56248c-3.04671,-3.19562 -6.80189,-5.66607 -11.26552,-7.41135c-4.46363,-1.74528 -9.59368,-2.51672 -15.39014,-2.3143l-14.99086,0.52349l2.59652,74.35468l17.18952,-0.60027c6.06297,-0.21172 11.15828,-1.39027 15.28592,-3.53562c4.12764,-2.14536 7.43134,-4.96237 9.9111,-8.45104c2.47976,-3.48867 4.20743,-7.50141 5.18303,-12.03822c0.9756,-4.53681 1.37614,-9.30369 1.20165,-14.30065zM618.6432,848.38901c-0.18528,-3.3956 -0.9334,-6.67149 -2.24435,-9.82766c-1.31095,-3.15617 -3.2099,-5.95827 -5.69685,-8.4063c-2.83171,-2.76953 -6.02326,-4.85942 -9.57464,-6.26967c-3.55138,-1.41025 -7.29254,-2.04674 -11.22348,-1.90947l-0.09994,0.00349c-3.93094,0.13727 -7.60193,1.0326 -11.01297,2.68598c-3.41104,1.65338 -6.46569,3.9614 -9.16394,6.92403c-2.2435,2.61322 -3.94061,5.59093 -5.09134,8.93313c-1.15073,3.3422 -1.67025,6.61232 -1.55857,9.81037l0.60725,17.3894c0.20622,3.99524 0.92066,7.73925 2.1433,11.23204c1.22264,3.49279 3.18203,6.59297 5.87816,9.30052c2.89834,2.7672 6.1232,4.85593 9.67458,6.26618c3.55138,1.41025 7.25923,2.0479 11.12354,1.91296l0.09994,-0.00349c3.93094,-0.13727 7.61858,-1.03318 11.06294,-2.68773c3.44436,-1.65455 6.48118,-3.99529 9.11048,-7.02223c2.56732,-2.89136 4.33609,-6.20511 5.30629,-9.94124c0.9702,-3.73614 1.39248,-7.40311 1.26685,-11.00091zM693.44078,818.36032l-6.62961,33.65187l-8.96089,-33.10744l-14.09141,0.49208l-6.62961,33.65187l-9.06083,-33.10395l-19.78794,0.69101l21.68489,73.6881l16.09019,-0.56188l6.6994,-31.65309l7.8917,31.14356l15.0908,-0.52698l18.49062,-75.09106zM762.49868,815.94876l1.27383,36.47777l-21.16171,-35.78327l-17.08958,0.59678l2.59652,74.35468l17.78916,-0.62121l-1.27732,-36.5777l21.26514,35.87971l16.98964,-0.59329l-2.59652,-74.35468z" fill="#fe5000" stroke="none" stroke-width="1"/></g></svg>