<svg version="1.1" xmlns="http://www.w3.org/2000/svg" xmlns:xlink="http://www.w3.org/1999/xlink" width="1450.53333" height="1636.8667" viewBox="0,0,1450.53333,1636.8667"><g fill="none" fill-rule="nonzero" stroke="none" stroke-width="none" stroke-linecap="none" stroke-linejoin="none" stroke-miterlimit="none" stroke-dasharray="" stroke-dashoffset="0" font-family="none" font-weight="none" font-size="none" text-anchor="none" style="mix-blend-mode: normal"><path d="M530.50908,411.75945c2.62041,-3.41245 6.2886,-6.55406 8.1555,-6.98062c1.25476,-0.28669 26.11114,10.03772 61.79369,25.52795l-7.09401,6.03534l-0.32297,11.40353l-8.7698,2.50506l-8.4367,3.05575l-10.94798,-4.88058l4.13256,18.08689l-0.98735,2.90021l-12.14807,2.21443l-6.62443,8.79174l-8.62928,5.43117c-14.37699,-65.71318 -14.5209,-68.35876 -10.12116,-74.09088z" id="path9766 1 1 1" fill="#d0d0ce" stroke="none" stroke-width="0.20203" stroke-linecap="round" stroke-linejoin="round" stroke-miterlimit="4"/><path d="M531.06832,770.18431c-0.00033,0.00033 -0.00066,0.00065 -0.001,0.00098c-0.00067,0.00066 -0.00135,0.00132 -0.00202,0.00198z" fill="#d0d0ce" stroke="none" stroke-width="1" stroke-linecap="butt" stroke-linejoin="miter" stroke-miterlimit="10"/><path d="M777.33561,555.07706c-0.01695,0.26917 -0.18276,0.9272 -0.46424,1.87348l-4.23305,-5.07802l-14.36965,-7.84134l-1.10047,-1.85847c12.31011,7.3482 20.19961,12.35378 20.16741,12.90435z" fill="#d0d0ce" stroke="none" stroke-width="1" stroke-linecap="butt" stroke-linejoin="miter" stroke-miterlimit="10"/><path d="M757.25287,546.22231l-2.09534,-0.97138c3.2193,-1.14867 5.44209,-1.85775 6.45281,-2.04289z" fill="#d0d0ce" stroke="none" stroke-width="1" stroke-linecap="butt" stroke-linejoin="miter" stroke-miterlimit="10"/><path d="M548.9128,558.42542l0.02737,-3.88526" fill="none" stroke="none" stroke-width="1" stroke-linecap="butt" stroke-linejoin="miter" stroke-miterlimit="10"/><path d="" fill="none" stroke="#00bb31" stroke-width="6" stroke-linecap="butt" stroke-linejoin="miter" stroke-miterlimit="10" opacity="0"/><path d="M465.32856,570.57091l6.30783,-0.04671" fill="none" stroke="none" stroke-width="1" stroke-linecap="butt" stroke-linejoin="miter" stroke-miterlimit="10"/><path d="" fill="none" stroke="#00bb31" stroke-width="6" stroke-linecap="butt" stroke-linejoin="miter" stroke-miterlimit="10" opacity="0"/><path d="M310.11306,571.72041l3.03643,-0.02249" fill="none" stroke="none" stroke-width="1" stroke-linecap="butt" stroke-linejoin="miter" stroke-miterlimit="10"/><path d="" fill="none" stroke="#00bb31" stroke-width="6" stroke-linecap="butt" stroke-linejoin="miter" stroke-miterlimit="10" opacity="0"/><path d="M664.56311,660.79337l4.91281,-3.69597" fill="none" stroke="none" stroke-width="1" stroke-linecap="butt" stroke-linejoin="miter" stroke-miterlimit="10"/><path d="" fill="none" stroke="#00bb31" stroke-width="6" stroke-linecap="butt" stroke-linejoin="miter" stroke-miterlimit="10" opacity="0"/><path d="M660.60252,663.77308l4.95988,-3.7315" fill="none" stroke="none" stroke-width="1" stroke-linecap="butt" stroke-linejoin="miter" stroke-miterlimit="10"/><path d="" fill="none" stroke="#00bb31" stroke-width="6" stroke-linecap="butt" stroke-linejoin="miter" stroke-miterlimit="10" opacity="0"/><path d="M650.58988,461.37123l4.2127,3.12789" fill="none" stroke="none" stroke-width="1" stroke-linecap="butt" stroke-linejoin="miter" stroke-miterlimit="10"/><path d="" fill="none" stroke="#00bb31" stroke-width="6" stroke-linecap="butt" stroke-linejoin="miter" stroke-miterlimit="10" opacity="0"/><path d="M694.50429,492.48049c-6.65524,-2.40421 -11.57795,-5.22007 -10.94016,-6.25713c6.46263,-10.50413 13.3014,-21.66431 20.12842,-32.83942l1.83293,0.82311l13.02057,-0.99965l-10.93764,-2.41523l-1.68571,-1.05995c7.05536,-11.55651 14.05292,-23.05424 20.56318,-33.78332l2.221,3.72114l16.76331,8.07034l-0.77381,14.52653c-13.14159,21.28936 -24.72236,39.34329 -30.84025,48.15831l-2.26917,0.42997l-1.78827,4.98754c-0.20444,0.21156 -0.35309,0.33036 -0.443,0.35184c-1.51297,0.37274 -8.19744,-1.31072 -14.85268,-3.71493z" id="path9770 1 1 1" fill="#d0d0ce" stroke="none" stroke-width="0.20203" stroke-linecap="round" stroke-linejoin="round" stroke-miterlimit="4"/><path d="M703.69255,453.38395l2.23015,-3.65173" fill="none" stroke="none" stroke-width="1" stroke-linecap="butt" stroke-linejoin="miter" stroke-miterlimit="10"/><path d="" fill="none" stroke="#00bb31" stroke-width="6" stroke-linecap="butt" stroke-linejoin="miter" stroke-miterlimit="10" opacity="0"/><path d="M759.74336,531.56751c-6.66805,1.11389 -12.57914,1.98983 -13.13752,1.944c-0.29865,-0.02941 -0.63058,-9.44963 -0.91868,-24.38842l0.05678,-0.01132l11.4658,-8.07112l-11.52454,4.07155l-0.07198,0.0009c-0.22423,-12.71046 -0.41604,-28.74656 -0.5358,-46.11786l-0.16215,-23.54171l3.01121,-1.27921l11.66451,4.93062l7.76288,6.62469l1.36435,10.91029l5.95974,4.93443c0.00646,1.31568 0.01303,2.63346 0.01971,3.95185c0.07485,14.7819 0.01262,28.47278 -0.15159,39.30742l-1.06038,1.88163l0.38421,16.36538l-2.28489,6.20357c-2.48612,0.59227 -7.03291,1.47782 -11.84143,2.28368z" id="path9768 1 1 1" fill="#d0d0ce" stroke="none" stroke-width="0.20203" stroke-linecap="round" stroke-linejoin="round" stroke-miterlimit="4"/><path d="M745.68715,509.12309l-0.07394,-4.01" fill="none" stroke="none" stroke-width="1" stroke-linecap="butt" stroke-linejoin="miter" stroke-miterlimit="10"/><path d="" fill="none" stroke="#00bb31" stroke-width="6" stroke-linecap="butt" stroke-linejoin="miter" stroke-miterlimit="10" opacity="0"/><path d="M844.71583,570.85251l3.72663,-0.00662" fill="none" stroke="none" stroke-width="1" stroke-linecap="butt" stroke-linejoin="miter" stroke-miterlimit="10"/><path d="" fill="none" stroke="#00bb31" stroke-width="6" stroke-linecap="butt" stroke-linejoin="miter" stroke-miterlimit="10" opacity="0"/><path d="M806.57921,463.92393l0.02584,6.49286" fill="none" stroke="none" stroke-width="1" stroke-linecap="butt" stroke-linejoin="miter" stroke-miterlimit="10"/><path d="" fill="none" stroke="#00bb31" stroke-width="6" stroke-linecap="butt" stroke-linejoin="miter" stroke-miterlimit="10" opacity="0"/><path d="M550.45639,682.34049l-0.14132,-79.60851l-265.08953,0.4706l-0.05556,-31.29744l24.94308,-0.18472l-2.34625,8.84441l5.38268,-8.8669l103.85151,-0.7691l48.32756,-0.35791l0.05887,2.09133l9.29594,5.30078l8.59324,13.60607l-4.59335,-13.63569l-7.296,-5.31559l0.24913,-2.09361l77.19521,-0.57169l0.0812,-11.52708l10.89716,-12.05843l-10.86979,8.17316l0.45364,-64.4009c0.02537,-3.59781 0.05,-7.03395 0.07449,-10.31615l9.61624,-3.38969l8.4037,-7.11024l12.33708,0.52521l1.60392,-2.61027l0.45416,255.833l9.25163,-7.00158c4.24978,-3.21796 33.61247,-25.32083 69.4675,-52.29645l1.23888,0.65449l15.77641,2.51021l6.21953,8.37071l-3.02307,-10.77542l-14.17818,-3.71256l-1.0737,-0.77892c5.51624,-4.15 11.16195,-8.39712 16.87238,-12.69265l82.04813,-61.71903l-173.48803,-129.76523l8.90343,-1.11557l9.10658,-0.50487l2.83531,-11.05016l8.25246,-4.31823c9.41869,6.90222 19.68592,14.47403 30.49722,22.49539l1.47647,9.60936l-0.51544,9.93985l3.72556,-7.5534l-0.47389,-8.86792c5.44271,4.04412 11.0102,8.19235 16.66506,12.41766l102.51753,76.60097l0.5807,-71.79575c0.5598,-69.15378 0.80221,-71.97916 6.59329,-76.79424c7.80039,-6.4858 12.62085,-6.31945 19.64274,0.67755c4.69993,4.68328 5.54686,8.35978 5.77731,58.31863l-3.63578,0.72525l-9.78529,6.01963l-6.20057,7.43026l6.21108,-3.43027l9.79054,-4.01964l3.64586,-0.23237c0.02134,6.22837 0.03625,13.10106 0.04972,20.69103l0.14169,79.812l37.91936,-0.06732l4.13802,11.02177l-0.41139,-11.02838l223.44353,-0.39666l0.05566,31.35461l-265.08953,0.4706l0.13803,77.75238c0.00601,3.38512 0.00996,6.63036 0.01154,9.74188l-1.31282,0.52764l-7.65365,6.84091l7.65197,-2.84091l1.31515,-0.34544c-0.01174,53.73754 -0.8359,65.20917 -4.3004,70.17117c-5.36791,7.69303 -15.7713,8.2375 -22.1978,1.16137c-4.12903,-4.54663 -4.74236,-14.09115 -4.85143,-75.52782c-0.06866,-38.67803 -0.97804,-70.32206 -2.02321,-70.32021c-1.04517,0.00186 -47.15095,34.07523 -102.46213,75.71833c-55.31075,41.6431 -103.04743,75.71937 -106.0814,75.72475c-3.03271,0.00538 -7.53484,-2.0039 -10.00303,-4.46056c-3.86152,-3.85164 -4.50486,-15.51859 -4.62656,-84.07743z" fill="#d0d0ce" stroke="none" stroke-width="1" stroke-linecap="butt" stroke-linejoin="miter" stroke-miterlimit="10"/><path d="M807.0017,689.76869l0.00065,4.1822" fill="none" stroke="none" stroke-width="1" stroke-linecap="butt" stroke-linejoin="miter" stroke-miterlimit="10"/><path d="" fill="none" stroke="#00bb31" stroke-width="6" stroke-linecap="butt" stroke-linejoin="miter" stroke-miterlimit="10" opacity="0"/><path d="M1025.13489,550.69463l10.64348,9.86265l10.64382,9.8629l-55.01101,0.33731c-30.25661,0.18547 -55.09069,-0.24092 -55.18766,-0.9474c-0.09681,-0.70528 14.58456,-16.5503 32.62212,-35.21086c2.30639,-2.38597 4.56496,-4.72382 6.75112,-6.98799l10.4085,1.98747l12.04735,-1.77142l11.9942,4.31111l10.19951,6.20006l-7.42274,-9.07921l-10.60581,-5.75069l-10.65896,0.33184l-9.13332,-3.30609c11.47236,-11.89745 19.68534,-20.45902 20.00119,-20.86347c0.43065,-0.55146 1.70701,5.02711 2.83607,12.39857l2.05329,13.40149l12.09615,-4.64884c6.39688,-2.45942 35.81818,-14.0881 66.44096,-26.26076l-2.4201,7.34916l-9.66059,5.25061l-3.33604,9.64467l-0.33533,12.65936l2.28959,2.33699z" fill="#d0d0ce" stroke="none" stroke-width="1" stroke-linecap="butt" stroke-linejoin="miter" stroke-miterlimit="10"/><path d="M975.59675,527.61123l6.82873,-7.07693" fill="none" stroke="none" stroke-width="1" stroke-linecap="butt" stroke-linejoin="miter" stroke-miterlimit="10"/><path d="" fill="none" stroke="#00bb31" stroke-width="6" stroke-linecap="butt" stroke-linejoin="miter" stroke-miterlimit="10" opacity="0"/><path d="M1141.07656,751.35369c-0.425,0.53954 4.37832,5.0345 10.67188,9.99191l11.44234,9.0131l-55.40447,-0.33959c-30.47256,-0.1871 -55.47894,-0.96411 -55.56925,-1.72709c-0.09575,-0.80624 15.85599,-17.49498 31.88788,-33.77428l3.69112,1.63781l13.29709,3.94187l-10.47503,-6.77664l-3.34014,-2.0186c12.40726,-12.5481 24.22656,-24.19989 27.97422,-27.31953l5.34458,-4.44795l1.51156,10.75595c0.83084,5.91661 2.48351,11.48137 3.67147,12.36825c1.18372,0.88951 32.48238,-9.85975 69.5437,-23.88212c3.03648,-1.14885 6.03552,-2.27707 8.98365,-3.37996l-9.51538,11.00347l8.29843,16.65158l-0.52599,4.30152c-34.22666,13.10302 -61.15182,23.57393 -61.48767,24.0003z" fill="#d0d0ce" stroke="none" stroke-width="1" stroke-linecap="butt" stroke-linejoin="miter" stroke-miterlimit="10"/><path d="M1084.10494,734.51775l3.17305,-3.21557" fill="none" stroke="none" stroke-width="1" stroke-linecap="butt" stroke-linejoin="miter" stroke-miterlimit="10"/><path d="" fill="none" stroke="#00bb31" stroke-width="6" stroke-linecap="butt" stroke-linejoin="miter" stroke-miterlimit="10" opacity="0"/></g></svg>