<?xml version="1.0" encoding="UTF-8" standalone="no"?>
<!-- Created with Inkscape (http://www.inkscape.org/) -->

<svg
   xmlns:dc="http://purl.org/dc/elements/1.1/"
   xmlns:cc="http://creativecommons.org/ns#"
   xmlns:rdf="http://www.w3.org/1999/02/22-rdf-syntax-ns#"
   xmlns:svg="http://www.w3.org/2000/svg"
   xmlns="http://www.w3.org/2000/svg"
   xmlns:sodipodi="http://sodipodi.sourceforge.net/DTD/sodipodi-0.dtd"
   xmlns:inkscape="http://www.inkscape.org/namespaces/inkscape"
   version="1.0"
   viewBox="0 0 266 312"
   id="svg6407"
   sodipodi:docname="Linux_Logo_in_Linux_Libertine_Font_briken.svg"
   inkscape:version="0.92.4 5da689c313, 2019-01-14">
  <defs
     id="defs6411">
    <inkscape:path-effect
       effect="bspline"
       id="path-effect7023"
       is_visible="true"
       weight="33.333333"
       steps="2"
       helper_size="0"
       apply_no_weight="true"
       apply_with_weight="true"
       only_selected="false" />
    <inkscape:path-effect
       effect="bspline"
       id="path-effect7004"
       is_visible="true"
       weight="33.333333"
       steps="2"
       helper_size="0"
       apply_no_weight="true"
       apply_with_weight="true"
       only_selected="false" />
  </defs>
  <sodipodi:namedview
     pagecolor="#ffffff"
     bordercolor="#666666"
     borderopacity="1"
     objecttolerance="10"
     gridtolerance="10"
     guidetolerance="10"
     inkscape:pageopacity="0"
     inkscape:pageshadow="2"
     inkscape:window-width="1920"
     inkscape:window-height="1176"
     id="namedview6409"
     showgrid="false"
     inkscape:zoom="1.0697256"
     inkscape:cx="161.33769"
     inkscape:cy="-100.15899"
     inkscape:window-x="0"
     inkscape:window-y="0"
     inkscape:window-maximized="1"
     inkscape:current-layer="svg6407" />
  <metadata
     id="metadata6401">
    <rdf:RDF>
      <cc:Work
         rdf:about="">
        <dc:format>image/svg+xml</dc:format>
        <dc:type
           rdf:resource="http://purl.org/dc/dcmitype/StillImage" />
        <dc:title></dc:title>
      </cc:Work>
    </rdf:RDF>
  </metadata>
  <path
     style="display:inline;fill:#000000;fill-opacity:1;stroke:none;stroke-width:0.23370479;stroke-linecap:round;stroke-linejoin:round;stroke-miterlimit:4;stroke-dasharray:none;stroke-opacity:1;paint-order:normal"
     d="M 72.183594 130.08008 C 68.304788 134.78754 66.759588 136.86058 65.193359 139.39258 C 62.162269 144.29269 61.108306 146.93503 58.976562 154.96289 C 57.098212 162.03647 55.403461 167.38902 53.925781 170.91602 C 53.861322 171.06987 53.73037 171.33618 53.654297 171.50977 L 54.335938 172.36133 L 57.492188 172.82812 L 59.126953 172.5957 L 57.492188 173.5293 L 54.21875 172.94531 L 53.064453 172.79492 C 51.47723 176.19323 48.696357 181.56872 45.871094 186.63086 C 41.162194 195.06797 39.34912 199.55668 38.71875 204.33203 C 38.28981 207.58138 38.413656 209.81354 39.097656 211.1543 L 39.587891 212.11523 L 38.857422 213.17773 C 38.455532 213.76186 37.816703 215.10059 37.439453 216.15234 C 37.062193 217.2041 36.323032 219.13279 35.794922 220.43945 L 34.833984 222.81641 L 33.171875 223.5957 L 31.509766 224.37305 L 24.380859 224.49023 L 17.253906 224.60742 L 15.96875 225.28125 C 14.19183 226.21341 11.821538 228.68898 10.892578 230.58203 C 8.9378868 234.56535 8.8607953 237.84031 10.462891 248.79688 C 11.998891 259.3014 11.907957 260.48688 9.1484375 265.95898 C 8.5039805 267.2369 7.3365685 269.28902 6.5546875 270.51758 C 4.987775 272.97962 4.3562737 274.68258 4.1367188 277.04492 C 3.7792598 280.89102 6.3148123 283.24714 13.271484 285.5332 C 16.995524 286.75697 18.691721 287.14226 25.900391 288.39648 C 35.451681 290.05833 45.154456 292.67245 58.035156 297.05469 C 70.057886 301.14504 74.639576 302.44394 79.535156 303.15234 C 87.419646 304.29327 93.999821 302.11017 99.566406 296.50586 C 100.67029 295.39448 101.63754 294.48056 101.71484 294.47656 C 101.79215 294.472 102.99704 294.01769 104.39258 293.4668 C 108.09146 292.00665 112.74286 290.9085 118.11719 290.2168 L 118.98242 288.86523 L 119.80859 284.73242 L 124.76758 283.90625 L 127.41016 282.08984 L 129.39453 281.59375 L 128.07227 282.75 L 125.26367 284.23633 L 123.11523 285.06445 L 121.13086 287.37695 L 119.96289 290.00586 C 121.14472 289.87773 122.34641 289.76207 123.58984 289.67188 C 128.19231 289.33803 140.04948 289.5281 146.14258 290.0332 C 153.89478 290.67584 168.63573 292.18152 168.70312 292.33789 C 168.71352 292.36201 169.17992 293.16363 169.73828 294.11914 C 171.83097 297.70027 175.81162 301.09265 180.04883 302.90625 C 182.78282 304.07645 184.19228 304.43731 187.85742 304.90234 C 192.63971 305.5091 196.6769 305.15542 199.94727 303.84375 C 202.97213 302.63057 207.29313 299.75065 211.06055 296.43555 C 215.9924 292.09584 226.67182 283.10033 228.81055 281.48438 C 233.83078 277.69121 237.5283 275.43713 243.59766 272.46484 C 246.87537 270.85971 250.40672 269.20504 251.44727 268.78906 C 255.12622 267.31836 258.27181 264.67465 259.52344 262 C 260.13 260.70385 260.27649 260.05918 260.36719 258.29492 C 260.50145 255.68245 260.24494 254.65627 258.98242 252.76562 C 257.63184 250.74316 256.00988 249.55999 251.43945 247.25781 C 249.26184 246.16092 246.87468 244.82184 246.13477 244.2832 C 241.24802 240.72561 240.45882 239.9474 239.2168 237.46094 C 238.64198 236.31016 238.42419 235.36781 237.99609 232.20312 C 236.72627 222.81605 234.63256 218.04506 231.58398 217.58789 C 230.65286 217.44826 230.51604 217.3607 230.63672 216.98047 C 231.16078 215.3293 232.23556 210.61416 232.60938 208.32617 C 234.03502 199.60037 233.68171 189.31012 231.83203 179.69141 L 226.60547 184.69141 L 223.29883 186.50977 L 218.75586 187.89453 L 216.13281 188.20312 L 215.65625 189.0293 L 216.06055 188.01953 L 218.74805 187.66992 L 223.1875 186.26758 L 226.45898 184.51367 L 228.79688 182.06055 L 231.75781 179.33984 C 230.65818 173.74269 229.05724 168.38077 226.99805 163.70117 C 226.46728 162.49498 225.40276 159.98294 224.63281 158.11914 C 220.9809 149.27898 215.51557 140.37374 208.92383 132.42578 L 208.55078 132.69922 L 207.93164 133.23633 L 207.93164 133.69141 L 207.51758 133.69141 L 207.64258 134.31055 L 207.43555 134.51758 L 206.98047 134.72266 L 206.48438 134.84766 L 205.45312 134.49609 L 205.20508 134.35156 L 204.70898 134.43359 L 204.19141 134.43359 L 203.96484 134.68164 L 203.57227 134.68164 L 203.17969 135.01367 L 202.91211 135.5293 L 202.04492 135.75586 L 201.73438 136.12891 L 201.27734 136.3125 L 200.69336 136.54688 L 199.99219 137.07227 L 200.16797 137.59766 L 199.4082 137.89062 L 199.05859 137.94922 L 198.94141 138.47461 L 198.70703 138.65039 L 197.53906 139.17578 L 197.1875 139.64258 L 195.96094 139.58398 L 195.20117 139.99414 L 194.44141 140.28516 L 193.68359 139.81836 L 192.92383 140.05273 L 190.58594 140.16797 L 189.125 139.93555 L 188.59961 140.05273 L 185.79492 139.58398 L 184.45117 139.11719 L 181.96484 138.79297 L 181.2832 138.56641 L 180.49805 138.9375 L 179.90039 139.06055 L 179.15625 138.68945 L 178.53711 139.01953 L 178.14062 139.05859 L 177.67383 139.4668 L 174.98633 139 L 174.81055 138.70703 L 174.22656 139 L 173.64258 139.4668 L 172.5332 138.82422 L 172.12305 139.35156 L 171.35938 139.38477 C 171.40332 139.46789 171.4489 139.58436 171.49219 139.65625 C 171.91785 140.36321 172.79163 141.99329 173.43359 143.2793 C 174.07556 144.56531 176.27762 148.1467 178.32617 151.23828 C 183.2443 158.66049 184.61391 161.81494 186.47266 169.99219 C 187.70926 175.43241 188.14453 178.14968 188.45312 182.3457 C 189.01135 189.93537 188.4254 214.53749 187.66797 215.29492 C 187.60627 215.35663 186.9915 215.08988 186.30273 214.70117 C 184.57726 213.72737 182.35052 213.1844 180.86328 213.37695 C 179.10699 213.60432 177.87798 214.30003 176.35352 215.92969 C 174.10462 218.33377 172.7442 221.69021 172.09766 226.43555 C 171.71028 229.2788 171.78154 236.07761 172.21094 237.31055 C 172.43829 237.96336 172.61297 239.63843 172.69727 241.98438 L 172.82812 245.64062 L 170.64453 248.44531 C 167.95709 251.89706 162.20799 257.7225 159.22852 260.01367 C 150.55984 266.67977 141.81379 270.37345 130.67188 272.07422 C 128.34617 272.42921 116.73667 272.72335 114.47461 272.48438 C 107.58509 271.75648 101.95832 269.90553 98.322266 267.17188 C 96.383016 265.71393 95.552679 264.62493 93.683594 261.08594 C 91.855994 257.62547 91.860992 257.4266 93.789062 257.14844 C 95.667138 256.87749 97.443323 255.78162 100.05469 253.2832 C 102.77963 250.67613 103.44917 249.50666 103.45117 247.34961 C 103.45227 245.87862 102.71935 244.1496 101.15625 241.95703 L 96.929688 242.93945 L 91.378906 242.58984 L 88.923828 241.6543 L 88.75 240.7207 L 88.339844 237.97461 L 88.574219 236.2207 L 87.171875 234.05859 L 89.216797 235.63672 L 88.982422 237.56445 L 89.275391 239.72656 L 89.451172 240.95312 L 90.96875 241.30469 L 92.255859 241.77148 L 96.695312 241.77148 L 100.38672 240.91211 C 99.183427 239.37205 97.610681 237.61668 95.597656 235.56055 C 89.940351 229.7821 86.664938 227.0615 80.705078 223.19531 C 72.720408 218.01561 67.977535 214.33271 63.265625 209.65039 C 60.379145 206.78204 60.130063 206.46004 59.007812 204.1543 C 57.551173 201.16152 56.899991 198.57833 56.712891 195.04492 C 56.365681 188.48769 58.256475 181.26854 63.421875 169.43555 C 67.688865 159.66066 70.844328 153.59546 72.955078 151.10742 L 73.648438 150.28906 L 74.210938 150.81445 C 74.520865 151.10366 74.985014 151.3418 75.240234 151.3418 C 75.771264 151.3418 76.263672 151.75986 76.263672 152.20898 C 76.263672 152.37725 75.602932 153.38019 74.794922 154.43945 C 71.533222 158.71538 68.293581 164.83086 65.337891 172.28711 C 59.630311 186.68541 58.619923 197.53594 62.445312 203.35938 C 63.390144 204.7977 66.107341 207.61727 66.332031 207.39258 C 66.402771 207.32184 66.332554 205.78422 66.177734 203.97656 C 65.570574 196.88743 66.845459 188.7143 70.068359 179.03516 C 72.136969 172.82264 73.744179 169.22517 80.292969 156.13281 L 85.585938 145.55469 L 85.271484 145.32031 L 84.941406 145.03125 L 84.734375 144.86523 L 84.857422 144.30859 L 84.878906 143.97852 L 84.548828 143.89453 L 83.908203 141.89062 L 83.453125 140.91992 L 82.296875 139.8457 L 81.490234 139.41211 L 80.933594 138.54492 L 80.664062 137.03711 L 80.148438 136.29297 L 79.632812 136.00391 L 78.992188 136.08594 L 77.421875 135.16797 L 76.894531 134.49609 L 75.986328 134.39258 L 75.439453 133.50391 L 74.830078 133.39062 L 74.447266 132.98828 L 74.25 132.98828 L 74.292969 132.26562 L 73.910156 132.26562 L 73.966797 132.16406 L 73.324219 132.16406 L 72.183594 130.08008 z M 188.82227 144.9668 C 189.05541 144.94496 189.39101 145.02798 190.03516 145.19531 C 193.19489 146.01611 196.83456 148.52065 199.35938 151.61133 C 203.31388 156.45214 205.67659 161.40886 206.89453 167.42773 C 208.67675 176.23522 207.81545 189.03447 204.7168 199.7793 C 204.28069 201.29155 203.99057 202.57059 204.07227 202.62109 C 204.15395 202.67158 205.69137 202.83477 207.49023 202.98438 C 217.61591 203.82649 222.5771 205.65181 226.61914 210.01758 C 228.7317 212.29933 229.65558 214.23641 229.67578 216.42773 C 229.69054 218.02851 229.67904 218.06457 229.07227 218.13477 C 228.4363 218.20837 227.70508 217.50557 227.70508 216.81836 C 227.70508 216.34362 224.07616 211.30391 223.19727 210.55859 C 222.25658 209.76086 219.35003 208.39821 216.60352 207.46484 C 213.87464 206.53746 210.8492 206.04661 206.78906 205.87305 C 202.91081 205.70727 201.51577 205.9761 198.54883 207.46094 C 196.81628 208.32801 196.34868 208.72038 193.99023 211.29688 C 192.54525 212.87546 190.9939 214.61083 190.54102 215.1543 C 189.87065 215.95878 189.62092 216.11101 189.19727 215.97656 C 188.31582 215.69679 188.51733 214.56107 189.82617 212.44531 C 192.17247 208.65252 195.16486 205.66417 198.17773 204.10547 L 199.65625 203.33984 L 200.36133 201.39453 C 202.17445 196.38919 203.61732 190.24943 204.24219 184.87695 C 204.69871 180.95181 204.57815 173.95652 203.99414 170.50586 C 203.28278 166.30285 201.77496 161.36137 200.3457 158.55078 C 198.16793 154.26827 193.66206 149.92192 189.08594 147.69141 C 187.98792 147.15621 187.74219 146.93204 187.74219 146.45898 C 187.74219 146.14057 187.95875 145.64823 188.22461 145.36523 C 188.45911 145.11562 188.58913 144.98863 188.82227 144.9668 z M 50.095703 211.11719 C 50.496839 211.1501 50.936395 211.28537 51.71875 211.54883 C 55.30103 212.75514 57.817592 214.41841 61.201172 217.8125 C 63.587822 220.20656 66.468061 224.38671 69.837891 230.34766 C 73.751781 237.27101 75.000974 239.14602 81.214844 247.44922 C 84.655444 252.04668 88.353393 257.14875 89.433594 258.78711 C 94.365844 266.26793 97.315823 272.475 98.876953 278.65625 C 99.459793 280.96404 99.510672 281.53554 99.513672 285.83789 C 99.518222 291.53804 99.456776 291.72292 96.535156 294.64453 C 93.392691 297.787 90.131445 299.72611 86.335938 300.70898 C 83.713577 301.38806 80.325798 301.47663 78.017578 300.92773 C 75.256528 300.27116 71.442737 299.07545 65.279297 296.92969 C 43.336827 289.29058 38.586439 287.95104 25.886719 285.83398 C 19.585489 284.78355 17.268506 284.27251 14.416016 283.29883 C 10.594486 281.99438 7.9510506 280.18129 7.1816406 278.33984 C 6.5085616 276.72894 7.5444803 273.52651 10.427734 268.31055 C 14.721744 260.54246 15.18468 256.89018 13.1875 246.50586 C 11.99438 240.30226 11.827219 238.27493 12.318359 235.94141 C 12.729039 233.9901 14.157254 230.91369 15.271484 229.57617 C 16.541174 228.05205 20.208508 227.29597 26.361328 227.29297 C 31.802758 227.29003 35.536051 226.62932 37.113281 225.38867 C 37.972461 224.71284 38.571423 223.40646 38.876953 221.54492 C 39.876713 215.45357 42.462859 212.75562 48.699219 211.30078 C 49.331189 211.15335 49.694567 211.08428 50.095703 211.11719 z M 182.58203 216.44727 C 184.35519 216.4414 185.42497 216.90442 186.95312 218.33203 C 187.8233 219.14495 187.97733 219.46485 188.51367 221.59375 C 189.27563 224.61826 190.48461 227.83257 191.5 229.5332 C 192.72803 231.58996 194.94038 233.67704 196.91406 234.64062 C 199.08978 235.70286 200.76355 236.12053 204.13672 236.44141 C 207.33097 236.74528 209.16704 236.44619 212.37109 235.09961 C 214.47295 234.21626 218.76964 231.0074 219.92188 229.46094 C 220.28261 228.97678 221.6816 227.52979 223.03125 226.24609 C 224.38089 224.96238 226.08268 223.3044 226.81445 222.56055 C 228.24465 221.10671 229.70485 220.29706 230.91211 220.28906 C 231.52692 220.28487 231.74033 220.42327 232.06641 221.04297 C 232.70676 222.25993 233.74187 226.2041 234.38281 229.86523 C 235.279 234.98437 236.5848 238.47376 238.85156 241.80859 C 240.31544 243.9622 244.26046 247.15953 246.58594 248.07617 C 252.06985 250.23772 255.9883 253.74131 256.6875 257.10938 C 257.02994 258.75889 256.69294 260.57857 255.65039 262.70117 C 254.93656 264.15453 254.6648 264.45936 253.21094 265.42188 C 252.31088 266.01774 250.80362 266.79195 249.86328 267.14258 C 242.08178 270.04407 232.08926 275.50129 226.28711 280.01953 C 225.31415 280.7772 220.75733 284.65792 216.16211 288.64258 C 211.5669 292.62725 207.15772 296.27532 206.36328 296.75 C 205.56884 297.22465 204.19006 298.11841 203.29883 298.73633 C 200.85534 300.43043 199.82179 300.90124 196.86914 301.66602 C 194.68306 302.23224 193.59005 302.3807 191.13086 302.4375 C 187.88197 302.51261 187.45663 302.47552 185.28711 301.93555 C 180.29902 300.69404 176.47887 298.16625 173.49805 294.13477 C 171.39213 291.28659 171.45495 291.92873 172.64258 285.19336 C 173.4825 280.42999 173.70423 278.57393 173.79883 275.55469 C 173.87151 273.23534 174.05657 271.30153 174.28516 270.46094 C 174.48786 269.71559 174.6552 268.7689 174.6582 268.35742 C 174.66087 267.94593 174.83419 266.92534 175.04297 266.08984 C 175.37069 264.77841 175.44411 261.96684 175.57812 245.52344 C 175.71321 228.94807 175.78515 226.20959 176.13281 224.41406 C 177.21528 218.82346 179.12932 216.45867 182.58203 216.44727 z "
     id="path6973" />
  <path
     style="display:inline;fill:#000000;fill-opacity:1;stroke:none;stroke-width:0.23370479;stroke-linecap:round;stroke-linejoin:round;stroke-miterlimit:4;stroke-dasharray:none;stroke-opacity:1;paint-order:normal"
     d="M 315.52148 170.77539 L 313.14648 170.86328 L 312.85938 171.4375 L 312.79492 171.33984 L 312.62305 171.68359 L 311.99609 171.32031 L 311.9082 171.49805 L 311.37695 171.66016 L 311.00195 172.15234 L 309.96289 172.24414 L 309.46289 173.00977 L 308.625 173.17969 L 307.10156 174.17188 L 306.88867 174.78125 L 306.39844 175.11328 L 305.50195 175.24219 L 304.0332 174.80664 L 303.00977 174.91602 L 302.25977 175.44336 L 300.78125 175.99609 L 299.70898 175.9668 L 297.63086 175.64258 L 297.4082 175.90039 L 297.12305 175.73242 L 296.67969 175.37305 L 296.43945 175.48438 L 296.0332 175.64844 L 295.68164 175.82617 L 296.26758 176.60547 L 298.64844 178.37695 C 303.34452 181.86906 307.71065 186.67928 313.5957 194.84375 C 319.33544 202.80661 320.15965 203.73295 323.89648 206.44141 L 325.79297 207.81445 L 323.00977 209.0293 C 321.47912 209.69704 319.12666 210.64122 317.78125 211.12695 C 313.86466 212.54107 311.90104 214.30016 309.2832 218.74414 C 305.9995 224.31847 304.74938 229.50272 304.80664 237.31836 C 304.84084 241.99127 305.40578 246.6692 306.72852 253.26758 C 307.37473 256.49118 307.85537 259.14211 307.79688 259.1582 C 307.19819 259.3226 300.49992 258.99449 295.33203 258.54688 C 293.8852 258.42156 291.67804 258.36748 290.42578 258.42773 C 289.1735 258.48793 286.32589 258.5357 284.09766 258.53516 C 281.86944 258.53462 279.00337 258.58633 277.73047 258.64844 C 275.62184 258.75135 275.29642 258.70038 274.0625 258.08203 C 271.30088 256.69812 265.27909 255.21883 262.77148 255.27344 L 262.45898 255.9707 L 262.74609 256.57422 L 261.67383 257.27734 L 261.83008 258.00977 L 261.83008 258.66211 L 261.49023 258.6875 L 259.86914 260.88281 L 260.02344 261.48242 L 259.88086 261.85352 L 259.89844 262.55469 L 259.23438 263.05469 L 259.07617 263.64453 L 259.05664 264.51172 L 258.54883 265.01953 L 257.14453 267.09766 L 256.125 268.08984 L 254.44922 270.38672 L 254.31836 270.91016 L 253.45703 272.11133 L 252.51172 274.25391 L 252.38086 275.03711 L 251.625 275.50586 L 251.54492 276.31641 L 251.57031 277.17773 L 250.96875 278.24805 L 251.22852 278.77148 L 251.17578 280.05273 L 251.22656 280.33984 L 251.64453 280.67969 L 251.53906 281.01953 L 251.46094 281.83008 L 252.00977 281.9082 L 252.16602 282.76953 L 252.11328 283.39648 L 252.07227 283.88867 L 252.26758 284.33203 L 252.08203 285.20898 L 252.42188 285.67969 L 252.54297 286.17969 L 252.36719 286.53125 L 252.48633 286.84375 L 252.25586 287.30664 L 252.10547 287.78711 L 251.86523 287.94531 L 251.08984 288.70898 L 250.97852 289.20898 L 250.95898 289.70703 L 251.05078 289.98438 L 251.66016 290.15039 L 251.47461 290.52148 L 251.88281 290.72461 L 252.08398 291.51953 L 252.16211 291.97461 C 253.01204 291.7775 253.86488 291.58691 254.70898 291.36914 C 255.86856 291.06997 257.45159 290.72974 258.22656 290.61133 C 269.94118 288.82157 277.53171 287.78667 281.50781 287.4375 C 283.15761 287.29262 286.77615 287.19799 289.93164 287.16992 L 294.81445 282.58398 L 305.05859 279.94141 L 310.51367 280.10547 L 314.14844 282.08984 L 318.60938 281.26367 L 322.90625 279.2793 L 319.10547 282.41992 L 314.31445 283.57617 L 310.18164 282.08984 L 305.88477 281.92383 L 295.64062 284.40234 L 293.43164 287.18359 C 294.03869 287.19722 294.74122 287.2049 295.02344 287.23438 C 297.94882 287.53983 302.73774 288.70482 306.96875 290.14062 C 309.23157 290.90852 311.8092 291.73259 312.69727 291.96875 C 314.50159 292.44852 319.98318 294.51869 324.56641 296.45508 C 332.18261 299.6729 342.61193 303.35373 348.52148 304.90625 C 353.20491 306.13666 361.0335 307.39805 363.16602 307.26758 C 365.85351 307.10317 370.61896 306.47875 372.79688 306.00391 C 375.12183 305.49699 380.0058 303.56569 382.32617 302.23633 C 387.88248 299.05304 393.45692 294.0147 396.38672 289.52734 C 396.97351 288.62859 397.94369 287.31545 398.54297 286.60938 C 399.40804 285.59012 400.11719 284.35688 401.98438 280.62305 C 405.46096 273.67069 407.2569 268.63667 408.39258 262.66016 C 408.46406 262.284 408.50796 261.93273 408.56641 261.56836 L 394.37695 264.32422 L 381.87305 261.63672 L 379.53711 257.66406 L 379.6543 253.22266 L 380.12109 256.96289 L 382.92578 260.70117 L 394.61133 262.6875 L 408.79102 259.95703 C 409.34491 254.92981 408.52037 250.78394 405.95898 245.16797 C 403.73623 240.2945 401.80475 237.46767 398.2793 233.92773 C 394.12321 229.75454 390.7773 227.43252 383.12695 223.41406 C 374.05819 218.65058 365.26216 214.82342 350.45703 209.19531 C 346.31376 207.62025 341.65164 205.76468 340.0957 205.07422 C 333.48221 202.13938 328.75886 197.67358 324.625 190.44141 C 322.60913 186.91464 321.96118 185.52998 317.35742 174.95117 C 316.63232 173.28497 316.08173 172.03997 315.52148 170.77539 z M 335.25195 209.5957 C 335.66676 209.60723 335.96153 209.63382 336.0332 209.66992 C 336.17654 209.74172 335.76572 210.03426 335.12109 210.32227 C 330.30307 212.47482 325.43291 216.36523 322.35938 220.51758 C 317.15269 227.55184 315.6005 238.44629 317.52734 254.41602 C 317.89465 257.45985 318.14173 257.98919 318.85547 257.25586 C 319.06591 257.03966 319.42296 257.02936 319.91992 257.22461 L 320.66797 257.51758 L 320.11914 254.0293 C 319.27904 248.69153 318.99318 245.07477 319.02539 240.22461 C 319.07189 233.22263 319.96223 228.6671 322.13672 224.31445 C 323.75329 221.07962 325.02183 219.49301 327.95898 217.02734 C 330.70663 214.72075 337.02308 211.1769 338.08789 211.3457 C 338.34988 211.3872 339.15886 211.30793 339.88672 211.16992 C 341.07358 210.94484 341.29447 210.9787 342.00781 211.49609 C 344.64776 213.41085 346.69987 218.56616 347.40234 225.03906 C 347.66254 227.43659 347.59018 234.67794 347.28125 237.13281 C 347.05707 238.91448 346.90292 239.35653 345.66211 241.8125 C 344.58977 243.9343 343.99881 244.85861 342.93555 246.06445 C 340.82359 248.45969 337.59317 251.6534 335.01172 253.89844 C 333.71748 255.02403 331.33757 257.22509 329.72461 258.78906 C 325.882 262.51497 325.12195 263.17733 322.5957 265.00586 C 321.26452 265.96939 319.85243 266.75548 318.81055 267.11719 C 317.89675 267.43445 317.10802 267.77833 317.05664 267.88086 C 316.74146 268.50982 313.78434 266.85074 312.69336 265.43164 C 311.06815 263.31763 310.54212 261.10402 309.35742 251.45703 C 308.22338 242.22261 307.91273 238.21393 308.03711 234.32812 C 308.11501 231.89477 308.64628 228.20079 309.19336 226.2793 C 310.73181 220.87584 314.10637 216.70625 319.05078 214.09961 C 319.88967 213.65732 323.08303 212.48155 326.14648 211.48633 C 330.65722 210.02096 332.10232 209.66136 333.74414 209.60547 C 334.30166 209.58647 334.83714 209.58418 335.25195 209.5957 z M 353.8457 217.98047 C 355.13403 217.93157 356.39791 217.99071 357.39453 218.16602 C 360.58441 218.72712 366.13408 221.81427 368.85547 224.54297 C 372.02839 227.7244 373.17387 229.77017 373.23828 232.36523 C 373.26758 233.54452 373.15737 233.91554 372.22461 235.77734 C 371.28912 237.64449 371.05159 237.96257 369.99219 238.76758 C 367.53985 240.631 362.64461 241.25298 359.22266 240.13477 C 358.31013 239.83658 356.00553 238.76876 354.09961 237.76367 C 351.15531 236.21092 350.60151 235.85175 350.41406 235.36914 C 350.29259 235.05678 350.0358 234.72319 349.84375 234.62695 C 349.61563 234.51264 349.58193 234.27871 349.74414 233.95508 C 349.9822 233.48002 350.07294 233.49369 351.99609 234.2832 C 354.27892 235.22035 356.21265 235.74007 358.86328 236.12891 C 360.33893 236.3454 360.98969 236.29854 362.15625 235.89062 C 364.08004 235.21792 364.82916 234.6237 365.5332 233.21875 C 366.21292 231.86235 366.3442 230.08568 365.8418 229.02148 C 364.76095 226.732 364.01133 225.49535 363.34766 224.9043 C 362.88048 224.48817 361.35778 223.65621 359.31055 222.69922 C 356.58842 221.42676 355.78688 221.14093 354.64844 221.03711 C 352.93729 220.88105 351.38379 221.22468 349.82227 222.10547 C 348.79628 222.68419 348.60293 222.71966 348.51562 222.34375 C 348.45923 222.10091 348.35902 221.22645 348.29492 220.40039 L 348.18164 218.89844 L 350.14453 218.44141 C 351.24376 218.18606 352.55738 218.02937 353.8457 217.98047 z M 362.04297 229.23828 L 363.08594 229.75977 C 363.90255 230.16898 364.09333 230.3569 363.96289 230.61719 C 363.87109 230.80033 363.96725 231.10044 364.17578 231.2832 C 364.42034 231.49781 364.47223 231.62935 364.29492 231.93164 L 364.29297 231.93164 C 364.23387 232.03246 364.15004 232.15313 364.03906 232.30078 C 362.59078 234.22791 359.78088 234.53612 356.08008 233.17578 L 354.81055 232.70898 L 355.33008 231.67188 C 355.83589 230.66251 355.86877 230.6401 356.58008 230.87109 C 356.98195 231.00158 358.08167 231.2759 359.02148 231.47852 L 360.72852 231.84766 L 361.38672 230.54297 L 362.04297 229.23828 z M 340.26172 251.68164 C 341.59963 251.65532 344.36009 251.93856 346.18359 252.3457 C 347.90033 252.72898 348.87429 253.11282 351.71875 254.5293 L 355.17188 256.24805 L 356.28516 257.67188 C 358.49716 260.49577 358.7348 261.08256 358.71484 263.72461 C 358.69444 266.42171 358.09434 268.91138 357.00195 271.04688 C 355.59744 273.79251 353.3773 275.95484 350.52539 277.23633 C 348.78231 278.01951 346.36415 278.07259 343.26953 277.39258 C 341.36606 276.97429 340.65953 276.67941 336.34375 274.51562 C 331.5063 272.09037 329.80441 270.98071 324.05664 266.50195 C 323.73287 266.24967 323.50849 265.99244 323.55859 265.92773 C 323.60869 265.86303 324.33925 265.33038 325.18164 264.74609 C 326.11417 264.09928 326.98326 263.28306 327.4043 262.65625 C 327.7855 262.08867 328.40923 261.47831 328.79492 261.29688 L 329.49414 260.9668 L 329.36133 262.20898 C 329.0671 264.93545 330.36721 267.45255 333.06055 269.36914 C 334.89726 270.67614 336.53749 271.26 339.81055 271.77148 C 342.2553 272.15353 342.62445 272.14005 344.25195 271.61914 C 348.01015 270.41626 350.02582 268.12437 350.05078 265.02344 C 350.06828 262.85033 349.51216 261.05845 348.38867 259.68164 C 346.98817 257.96532 345.61992 257.02582 342.14258 255.38281 C 339.58979 254.17659 338.92209 253.94097 338.28125 254.01562 C 337.85526 254.06522 337.48307 254.02569 337.45117 253.92969 C 337.41937 253.83369 337.83761 253.37153 338.38086 252.90234 C 338.92411 252.43315 339.42183 251.94658 339.48633 251.81836 C 339.52883 251.73402 339.81575 251.69042 340.26172 251.68164 z M 345.60938 265.76367 C 345.69684 265.76723 345.76709 265.78095 345.81836 265.80664 C 345.89466 265.84484 345.96448 266.47345 345.97461 267.20117 C 345.98261 267.80463 345.94989 268.22847 345.79102 268.5625 C 345.52616 269.1192 344.91735 269.42752 343.58594 269.91992 C 341.95817 270.52197 341.01432 270.45381 339.32422 269.61133 C 338.65292 269.27606 337.96186 269.11671 337.39258 269.16406 L 336.50586 269.23633 L 337.01172 268.23047 C 337.50429 267.24755 337.53952 267.22349 338.42188 267.36914 C 340.3077 267.68043 341.94974 267.45088 342.90625 266.74023 C 343.60255 266.22293 344.99714 265.7388 345.60938 265.76367 z "
     id="path6996" />
</svg>
