<?xml version="1.0" encoding="UTF-8" standalone="no"?>
<!-- Created with Inkscape (http://www.inkscape.org/) -->

<svg
   xmlns:dc="http://purl.org/dc/elements/1.1/"
   xmlns:cc="http://creativecommons.org/ns#"
   xmlns:rdf="http://www.w3.org/1999/02/22-rdf-syntax-ns#"
   xmlns:svg="http://www.w3.org/2000/svg"
   xmlns="http://www.w3.org/2000/svg"
   xmlns:sodipodi="http://sodipodi.sourceforge.net/DTD/sodipodi-0.dtd"
   xmlns:inkscape="http://www.inkscape.org/namespaces/inkscape"
   width="210mm"
   height="297mm"
   viewBox="0 0 210 297"
   version="1.1"
   id="svg8"
   inkscape:version="0.92.4 5da689c313, 2019-01-14"
   sodipodi:docname="nerdberg_soldering_tip.svg">
  <defs
     id="defs2">
    <inkscape:path-effect
       effect="bspline"
       id="path-effect956"
       is_visible="true"
       weight="33.333333"
       steps="2"
       helper_size="0"
       apply_no_weight="true"
       apply_with_weight="true"
       only_selected="false" />
    <inkscape:path-effect
       effect="bspline"
       id="path-effect937"
       is_visible="true"
       weight="33.333333"
       steps="2"
       helper_size="0"
       apply_no_weight="true"
       apply_with_weight="true"
       only_selected="false" />
  </defs>
  <sodipodi:namedview
     id="base"
     pagecolor="#000000"
     bordercolor="#666666"
     borderopacity="1.0"
     inkscape:pageopacity="0"
     inkscape:pageshadow="2"
     inkscape:zoom="2.8"
     inkscape:cx="345.12395"
     inkscape:cy="868.99923"
     inkscape:document-units="mm"
     inkscape:current-layer="layer1"
     showgrid="false"
     inkscape:snap-global="false"
     inkscape:window-width="1920"
     inkscape:window-height="1171"
     inkscape:window-x="0"
     inkscape:window-y="0"
     inkscape:window-maximized="1" />
  <metadata
     id="metadata5">
    <rdf:RDF>
      <cc:Work
         rdf:about="">
        <dc:format>image/svg+xml</dc:format>
        <dc:type
           rdf:resource="http://purl.org/dc/dcmitype/StillImage" />
        <dc:title></dc:title>
      </cc:Work>
    </rdf:RDF>
  </metadata>
  <g
     inkscape:label="Layer 1"
     inkscape:groupmode="layer"
     id="layer1">
    <path
       style="fill:#b3b3b3;stroke-width:0.66666669"
       d="m 368.17773,273.14453 c -2.82162,0.98142 -10.31798,2.01464 -32.68554,4.83008 -6.46102,0.81326 -13.69612,1.77249 -16.07813,2.13281 -2.382,0.36038 -5.85126,0.81392 -7.70898,1.00781 -1.85773,0.19401 -7.90103,0.9534 -13.42774,1.6875 -3.49401,0.46411 -7.5728,1.00322 -11.64648,1.54297 l 0.44141,0.44141 1.00976,0.44141 0.63281,0.3789 0.44141,0.75781 0.75781,0.44336 0.44141,0.31446 0.0625,0.56836 1.58008,0.82031 2.83984,0.69531 3.41016,0.37891 0.94726,-0.25196 -0.82226,0.56836 -1.00977,-0.0644 -0.82031,0.18945 v -0.18945 l -0.69531,-0.25195 h -0.50391 l -1.76758,-0.12696 -1.13672,-0.3789 -0.94726,-0.31446 -1.45313,-0.18945 0.12696,-0.63281 -1.26172,-0.31445 -0.75782,-0.63086 -0.3789,-0.56836 -3.09375,-1.07422 -0.60938,-0.66992 c -1.36013,0.18012 -3.1565,0.41939 -4.20898,0.55859 -23.92269,3.164 -23.14778,3.03439 -56.00781,9.48242 -11.77153,2.30988 -24.30138,4.58345 -28.40039,5.1543 -2.20649,0.30724 -5.19626,0.91769 -6.64454,1.35742 -1.92567,0.55168 -5.48847,0.41683 -5.50195,2.41992 3.44123,0.41475 3.69235,0.67581 4.04688,4.24024 0.1985,1.99566 0.52322,2.54818 -1.44336,2.71484 -2.66027,-0.31941 -2.44336,1.53906 -2.44336,1.53906 1.91722,0.26329 2.7125,0.2527 3.80078,0.45313 1.08827,0.2005 5.06647,-0.12166 8.8418,-0.7168 7.46366,-1.17661 12.74047,-1.83289 17.0039,-2.11719 1.50295,-0.10027 5.31955,-0.44475 8.48047,-0.76562 7.32466,-0.74317 13.92305,-1.28604 17.00195,-1.39648 1.32734,-0.0481 4.70596,-0.28433 7.50782,-0.5254 2.80179,-0.24143 6.3281,-0.49918 7.83789,-0.57812 0.6304,-0.0325 1.5731,-0.11554 2.52148,-0.20508 l -0.0957,-0.41016 v -0.20117 l -0.11133,-0.44726 -0.37891,-0.22266 0.17774,-0.53515 v -0.46876 l 0.0449,-0.35742 -0.0898,-0.51367 v -0.3125 l -0.11133,-0.46875 0.17969,0.35742 0.0664,0.58008 0.28906,0.91602 -0.0664,0.49023 0.46875,0.35742 0.0449,0.53516 0.69141,0.58984 c 0.96714,-0.10177 1.96418,-0.21156 2.79492,-0.32422 2.02482,-0.2745 5.35354,-0.67554 7.39648,-0.89062 2.04297,-0.21517 6.57747,-0.78118 10.07422,-1.25781 3.49673,-0.47644 8.9164,-1.21581 12.04492,-1.64258 14.40252,-1.96464 22.69614,-3.05381 25.80274,-3.38867 1.85589,-0.20005 4.86149,-0.62782 6.67969,-0.95117 1.81817,-0.32342 4.67672,-0.72345 6.35156,-0.88868 2.84246,-0.28023 7.58495,-0.88376 13.29297,-1.65234 l -0.17383,-0.19531 -0.0215,-0.17969 -0.11132,-0.0664 -0.35743,0.11133 -0.26757,-0.0215 -0.0234,-0.13477 -0.20117,-0.0449 h -0.24414 -0.26954 l 0.22461,-0.0898 h 0.26758 l 0.15625,0.0234 0.33399,0.0898 0.11132,-0.0234 0.0684,-0.0449 0.11133,-0.0664 0.3125,0.13477 0.0664,0.0664 v 0.15625 l 0.62695,0.19922 c 3.67487,-0.49687 7.38187,-0.9987 12.23438,-1.69531 14.68043,-2.10744 16.74515,-2.23224 17.10742,-1.04688 0.155,0.50732 0.87743,0.79062 1.92578,0.97266 l -1.93164,-2.46484 0.64648,-1.98633 -1.27929,-0.84961 -0.24805,-1.95508 0.31445,-1.26172 -3.25586,-1.13867 -1.12109,-1.39062 1.57617,-0.94922 0.24609,-3.22461 0.69336,-0.56055 -0.30273,-3.56055 z m -0.6582,13.74805 c 1.96841,0.0397 2.60892,0.36107 2.99805,1.1875 0.54574,1.15842 0.37674,1.37566 -1.25196,1.60547 -1.03572,0.14619 -4.88889,0.69381 -8.5625,1.21875 -3.67359,0.52499 -9.38763,1.32813 -12.69921,1.7832 -3.31156,0.45503 -6.91901,0.96572 -8.01758,1.13477 -1.09856,0.16894 -5.01458,0.70649 -8.69922,1.19531 -9.29859,1.23376 -13.7749,1.83919 -20.75195,2.80469 -3.31063,0.45813 -6.77689,0.91982 -7.70313,1.02539 -0.9262,0.10563 -4.69085,0.61815 -8.36523,1.14062 -3.67437,0.52243 -8.20143,1.10551 -10.06055,1.29492 -1.85915,0.1894 -5.47471,0.6745 -8.03516,1.07813 -6.56405,1.03518 -12.16913,1.74126 -15.94336,2.00781 -3.09231,0.21838 -3.27042,0.12627 -3.9082,-1.96094 -0.78549,-2.57077 4.2e-4,-3.41534 3.5625,-3.83789 1.37128,-0.16274 5.05174,-0.64217 8.18164,-1.06445 10.24338,-1.38181 37.09646,-4.78674 42.95117,-5.44727 3.15031,-0.35539 7.38061,-0.88134 9.40235,-1.16601 7.95843,-1.12017 35.80727,-3.59834 44.45117,-3.95508 0.99099,-0.041 1.79503,-0.0582 2.45117,-0.0449 z m -125.38867,14.05859 c 0.9712,0.0415 4.00244,0.0574 6.73633,0.0371 3.8562,-0.0287 5.14779,0.25144 5.75976,1.24414 1.54954,2.51427 1.11463,2.62639 -13.46289,3.53906 -6.33847,0.39685 -13.33077,0.95322 -16.67383,1.32618 -1.6684,0.18614 -6.23011,0.65357 -10.13867,1.03711 -12.51919,1.22821 -13.7938,1.3815 -17.8164,2.15039 -2.17345,0.41559 -4.5323,0.65115 -5.24219,0.52343 -1.25336,-0.2251 -1.94086,-1.51585 -1.78125,-3.3457 0.10409,-1.19337 3.22835,-2.08365 9.98242,-2.84766 3.0649,-0.34669 7.99887,-0.90628 10.96289,-1.24414 11.4334,-1.30253 28.07375,-2.57353 31.67383,-2.41992 z"
       transform="scale(0.26458333)"
       id="path949"
       inkscape:connector-curvature="0" />
    <path
       style="fill:#b3b3b3;stroke-width:0.66666669"
       d="m 465.42188,271.68359 c -0.19512,-0.01 -0.43543,0.0151 -0.6875,0.0469 l -0.80469,1.51953 -0.22266,0.58398 -0.29101,2.77735 -0.56055,0.33203 -0.1582,0.46484 0.13476,0.57618 -1.17578,0.66406 -0.20508,0.58398 0.125,-0.66406 1.07422,-0.63086 -0.1582,-0.53711 0.12695,-0.50391 0.56641,-0.3789 0.1582,-2.02149 0.12695,-0.91406 0.85938,-1.78711 c -0.98378,0.17877 -2.37025,0.58269 -4.54102,1.22852 -2.28521,0.67988 -9.14045,1.75425 -15.23437,2.38672 -9.66224,1.00281 -13.24561,1.3702 -18.14063,1.87304 l 0.3125,1.38086 0.31641,2.9668 0.94531,0.37891 0.18945,1.45117 0.25391,0.50586 2.58789,0.50586 0.12695,-0.50586 4.22852,0.56836 0.31641,-0.37891 1.00976,-0.37891 -0.69336,0.50586 v 0.56836 l -4.54687,-0.44336 0.4414,0.75782 -3.02929,-0.56836 -1.26367,-0.56836 -0.25196,-1.32422 -0.82031,-0.31641 -0.18945,-2.08398 -0.44141,-2.20899 -0.82617,-0.67578 c -1.57788,0.16193 -3.74734,0.38887 -5.71094,0.58985 -3.69468,0.37816 -8.52864,0.88826 -10.74023,1.13476 -2.21152,0.2465 -7.03936,0.77506 -10.72852,1.17383 -3.68916,0.39878 -10.25233,1.18806 -14.58594,1.75391 -7.34427,0.95898 -7.94194,1.1256 -8.79297,2.44335 -0.26133,0.40464 -0.76729,0.73263 -1.7832,1.04688 l 1.01172,0.88672 0.17773,3.57031 -0.71289,0.53516 -0.35742,3.21484 -1.60742,0.89258 1.07227,1.42969 3.21289,1.25 -0.35743,1.25 0.17969,1.96289 1.25,0.89453 -0.71484,1.96289 1.84375,2.5293 c 2.1753,0.45606 6.48031,0.3384 14.84375,-0.40235 6.48903,-0.57479 12.56569,-1.08361 13.50195,-1.13086 7.17589,-0.36453 47.76076,-4.22409 49.59961,-4.71679 0.81468,-0.21831 3.74328,0.084 6.50781,0.67187 2.76454,0.58779 5.34741,0.9836 5.73828,0.87891 0.39085,-0.10473 1.10879,-1.20388 1.59571,-2.44141 0.89204,-2.26727 1.66541,-3.02842 4.66601,-3.49219 l 0.10352,-0.60547 -1.16016,-0.17773 0.71289,-0.80469 0.625,-0.98242 -1.42773,-0.53516 0.35742,-2.76757 -2.23242,-2.58985 0.26758,-2.58984 -0.44532,-1.96289 -0.89453,-2.41211 -1.25,-1.16016 -0.89258,-1.875 -0.44531,-1.96484 0.41797,-0.99219 c -0.14513,-0.17983 -0.30162,-0.26721 -0.4414,-0.48047 -0.73346,-1.11808 -1.10018,-1.67644 -2.0625,-1.72461 z m 3.71679,9.48829 c 0.12081,0.0717 0.35415,0.37112 0.72071,0.86132 0.6886,0.92121 0.87632,1.6753 0.55468,2.23242 -0.33335,0.57752 -0.66053,0.14181 -1.04101,-1.39062 -0.26041,-1.0489 -0.38288,-1.58574 -0.31836,-1.69727 0.0161,-0.0279 0.0437,-0.0297 0.084,-0.006 z m -11.48242,2.87109 c 0.18813,-0.006 0.366,0.0104 0.52344,0.0469 0.31483,0.0731 0.54991,0.22726 0.6289,0.44336 1.09395,2.9958 1.14649,11.11718 0.082,12.64649 -0.64499,0.92685 -1.74589,1.11249 -11.10937,1.86719 -1.85786,0.14972 -6.25255,0.55657 -9.76563,0.90429 -23.67063,2.3421 -43.97596,4.06459 -55.67382,4.72461 l -4.08008,0.23047 -0.7793,-2.55078 c -0.75167,-2.45957 -1.87527,-12.96543 -1.46289,-13.67969 0.11082,-0.19189 2.43494,-0.43098 5.16406,-0.53125 2.72916,-0.10027 10.34635,-0.37588 16.92579,-0.61328 6.57938,-0.23739 14.10281,-0.55242 16.7207,-0.69922 2.61785,-0.1468 8.27972,-0.45782 12.58203,-0.69336 20.17036,-1.10428 28.32248,-1.65736 29.6582,-2.00976 0.19943,-0.0526 0.39781,-0.0802 0.58594,-0.0859 z m 12.31445,1.8125 0.6543,2.24023 c 0.36057,1.23206 0.43519,3.07467 0.16602,4.09571 h 0.002 c -0.32164,1.22193 -0.59051,1.5108 -0.78516,0.84375 -0.16441,-0.55745 -0.15794,-1.25441 0.0117,-1.54883 0.17008,-0.29439 0.22755,-1.68269 0.12891,-3.08399 z m -8.02148,3.59375 c 0.25545,0.007 0.62286,0.12298 1.16992,0.32226 0.8922,0.32485 2.321,0.40288 3.17578,0.17383 1.48056,-0.39671 1.57316,-0.26872 1.94922,2.71094 0.56606,4.48361 -0.3156,6.75876 -2.63672,6.79883 -1.00857,0.0174 -2.46291,-0.29113 -3.23242,-0.6836 -0.76947,-0.3925 -1.40663,-0.89614 -1.41797,-1.11914 -0.0601,-1.32006 0.1663,-6.16016 0.33789,-7.21875 0.0915,-0.5631 0.18252,-0.8621 0.4336,-0.95312 0.0627,-0.0228 0.13555,-0.0336 0.2207,-0.0312 z"
       transform="scale(0.26458333)"
       id="path942"
       inkscape:connector-curvature="0" />
    <path
       style="fill:#b3b3b3;stroke-width:0.66666669"
       d="m 474.51367,273.3457 -0.68164,0.83203 -0.13086,2.01172 0.32422,2.05078 0.86914,1.4668 0.17383,2.56641 -0.12891,2.00976 -0.99023,2.40625 1.40625,3.11719 -1.12695,2.55274 1.21679,0.91796 -0.87695,0.76563 -0.91211,0.56836 1.0625,0.5 -0.27148,0.55078 c 0.89461,0.12068 1.91978,0.30131 3.25781,0.57617 7.79758,1.6021 8.38028,1.53168 9.5957,-1.17969 1.04591,-2.33275 1.07781,-2.34651 4.22461,-1.84179 7.9765,1.27937 21.32496,4.45511 23.71094,5.64062 2.24311,1.11452 6.7966,2.25135 16.56445,4.13672 1.09493,0.21131 4.40231,0.0326 7.34766,-0.39648 4.53649,-0.66068 5.39031,-0.9889 5.59179,-2.15039 0.18822,-1.08612 -0.68973,-1.91545 -4.23046,-3.99805 -5.17289,-3.04249 -12.39317,-4.92057 -24.05079,-6.25195 -4.20574,-0.48034 -9.28791,-1.20516 -11.29492,-1.60938 -0.32769,-0.066 -0.3827,-0.081 -0.69726,-0.14453 l -0.46289,2.53125 0.0625,1.13672 0.5039,1.19922 -0.82031,-0.88282 -0.125,-1.83203 0.31445,-2.20898 -0.0371,-0.0606 c -8.91815,-1.80555 -12.7462,-2.65146 -12.98828,-2.90625 -0.15534,-0.16365 -0.41251,-1.59262 -0.57031,-3.17578 -0.37493,-3.75984 -0.52787,-3.96092 -3.43164,-4.50586 -2.15244,-0.40394 -5.42488,-1.11685 -10.53711,-2.29492 -0.78667,-0.18127 -1.39766,-0.9737 -1.86133,-2.09766 z m 2.36719,4.31055 4.27148,0.54883 c 2.79209,0.3586 4.68312,0.74978 5.8711,1.25781 1.18798,0.50807 1.67351,1.13262 1.65234,1.95899 -0.0794,3.09267 -1.84931,11.38275 -2.65234,12.42382 -0.78664,1.01897 -1.14515,1.03706 -3.62305,0.14844 -1.56242,-0.56042 -3.71248,-2.11477 -4.98633,-3.59961 -2.41825,-2.81873 -2.62231,-4.39906 -1.26172,-9.83594 z m 41.87891,14.41992 c 1.55081,0.0868 5.26315,0.7454 13.92773,2.41211 2.39169,0.46005 2.66994,0.72382 2.80664,2.65234 0.0828,1.17704 -0.16899,2.70353 -0.56055,3.39258 -0.67672,1.19048 -0.98753,1.20298 -6.21484,0.2168 -3.02597,-0.57091 -7.06828,-1.40591 -8.98242,-1.85352 -1.94884,-0.45572 -3.42665,-1.15742 -3.35938,-1.5957 0.54807,-3.57452 0.89681,-4.81437 1.44922,-5.13672 0.14017,-0.0817 0.41666,-0.11682 0.9336,-0.0879 z m 18.41406,4.63867 c 0.88686,0.0227 5.7183,2.98138 5.70508,3.49414 -0.008,0.35804 -1.36617,0.61847 -3.01563,0.57618 -2.8879,-0.074 -2.99862,-0.15282 -2.94922,-2.07813 0.0265,-1.10014 0.14525,-1.99532 0.25977,-1.99219 z"
       transform="scale(0.26458333)"
       id="path933"
       inkscape:connector-curvature="0" />
  </g>
</svg>
