<?xml version="1.0" encoding="UTF-8" standalone="no"?>
<!-- Created with Inkscape (http://www.inkscape.org/) -->

<svg
   xmlns:dc="http://purl.org/dc/elements/1.1/"
   xmlns:cc="http://creativecommons.org/ns#"
   xmlns:rdf="http://www.w3.org/1999/02/22-rdf-syntax-ns#"
   xmlns:svg="http://www.w3.org/2000/svg"
   xmlns="http://www.w3.org/2000/svg"
   xmlns:sodipodi="http://sodipodi.sourceforge.net/DTD/sodipodi-0.dtd"
   xmlns:inkscape="http://www.inkscape.org/namespaces/inkscape"
   width="210mm"
   height="297mm"
   viewBox="0 0 210 297"
   version="1.1"
   id="svg828"
   sodipodi:docname="transistor.svg"
   inkscape:version="0.92.4 5da689c313, 2019-01-14">
  <defs
     id="defs822">
    <inkscape:path-effect
       effect="bspline"
       id="path-effect4532"
       is_visible="true"
       weight="33.333333"
       steps="2"
       helper_size="0"
       apply_no_weight="true"
       apply_with_weight="true"
       only_selected="false" />
    <inkscape:path-effect
       effect="bspline"
       id="path-effect4528"
       is_visible="true"
       weight="33.333333"
       steps="2"
       helper_size="0"
       apply_no_weight="true"
       apply_with_weight="true"
       only_selected="false" />
    <inkscape:path-effect
       effect="bspline"
       id="path-effect1381"
       is_visible="true"
       weight="33.333333"
       steps="2"
       helper_size="0"
       apply_no_weight="true"
       apply_with_weight="true"
       only_selected="false" />
    <inkscape:path-effect
       effect="bspline"
       id="path-effect1377"
       is_visible="true"
       weight="33.333333"
       steps="2"
       helper_size="0"
       apply_no_weight="true"
       apply_with_weight="true"
       only_selected="false" />
  </defs>
  <sodipodi:namedview
     id="base"
     pagecolor="#ffffff"
     bordercolor="#666666"
     borderopacity="1.0"
     inkscape:pageopacity="0.0"
     inkscape:pageshadow="2"
     inkscape:zoom="1.2409585"
     inkscape:cx="143.04128"
     inkscape:cy="596.05643"
     inkscape:document-units="mm"
     inkscape:current-layer="layer1"
     showgrid="true"
     inkscape:window-width="1920"
     inkscape:window-height="1176"
     inkscape:window-x="0"
     inkscape:window-y="0"
     inkscape:window-maximized="1">
    <inkscape:grid
       type="xygrid"
       id="grid5096"
       units="mm"
       spacingx="1"
       spacingy="1"
       dotted="true" />
  </sodipodi:namedview>
  <metadata
     id="metadata825">
    <rdf:RDF>
      <cc:Work
         rdf:about="">
        <dc:format>image/svg+xml</dc:format>
        <dc:type
           rdf:resource="http://purl.org/dc/dcmitype/StillImage" />
        <dc:title></dc:title>
      </cc:Work>
    </rdf:RDF>
  </metadata>
  <g
     inkscape:label="Layer 1"
     inkscape:groupmode="layer"
     id="layer1">
    <g
       id="g5100"
       transform="translate(0,-1.5)"
       style="fill:#000000;fill-opacity:1" />
    <path
       id="path4530"
       transform="matrix(0.70710678,-0.70710679,0.84852814,0.84852815,-118.30361,122.25988)"
       style="fill:#000000;stroke:none;stroke-width:0.26458332px;stroke-linecap:butt;stroke-linejoin:miter;stroke-opacity:1"
       inkscape:path-effect="#path-effect4532"
       inkscape:original-d="m 110,155 h 30 l -15,20 z m 9.19239,-12.37436 1.41421,32.99831 -18.38478,15.32065 5.65686,4.71404 21.2132,-17.67767 -1.41421,-42.4264 z m 16.97056,-14.14214 39.59798,1.17851 18.38478,-15.32065 5.65685,4.71405 -21.2132,17.67767 -50.91169,-1.17851 z m -40.305087,-25.33799 30.405587,25.33799 21.21321,-17.67767 7.07107,5.89256 -49.49748,41.24789 -7.071066,-5.89255 21.213206,-17.67767 -30.405594,-25.338 z"
       d="m 110,155 c 0,0 30,0 30,0 0,0 -15,20 -15,20 0,0 -15,-20 -15,-20 z m 9.19239,-12.37436 c 0,0 1.41421,32.99831 1.41421,32.99831 0,0 -18.38478,15.32065 -18.38478,15.32065 0,0 5.65686,4.71404 5.65686,4.71404 0,0 21.2132,-17.67767 21.2132,-17.67767 0,0 -1.41421,-42.4264 -1.41421,-42.4264 0,0 -8.48528,7.07107 -8.48528,7.07107 z m 16.97056,-14.14214 c 0,0 39.59798,1.17851 39.59798,1.17851 0,0 18.38478,-15.32065 18.38478,-15.32065 0,0 5.65685,4.71405 5.65685,4.71405 0,0 -21.2132,17.67767 -21.2132,17.67767 0,0 -50.91169,-1.17851 -50.91169,-1.17851 0,0 8.48528,-7.07107 8.48528,-7.07107 z M 95.857863,103.14551 c 0,0 30.405587,25.33799 30.405587,25.33799 0,0 21.21321,-17.67767 21.21321,-17.67767 0,0 7.07107,5.89256 7.07107,5.89256 0,0 -49.49748,41.24789 -49.49748,41.24789 0,0 -7.071066,-5.89255 -7.071066,-5.89255 0,0 21.213206,-17.67767 21.213206,-17.67767 0,0 -30.405594,-25.338 -30.405594,-25.338 0,0 7.071067,-5.89255 7.071067,-5.89255 z"
       inkscape:connector-curvature="0" />
  </g>
</svg>
