<?xml version="1.0" encoding="UTF-8" standalone="no"?>
<!-- Created with Inkscape (http://www.inkscape.org/) -->

<svg
   xmlns:dc="http://purl.org/dc/elements/1.1/"
   xmlns:cc="http://creativecommons.org/ns#"
   xmlns:rdf="http://www.w3.org/1999/02/22-rdf-syntax-ns#"
   xmlns:svg="http://www.w3.org/2000/svg"
   xmlns="http://www.w3.org/2000/svg"
   xmlns:sodipodi="http://sodipodi.sourceforge.net/DTD/sodipodi-0.dtd"
   xmlns:inkscape="http://www.inkscape.org/namespaces/inkscape"
   sodipodi:docname="Transistor.symbol.npn.svg"
   inkscape:version="0.92.4 5da689c313, 2019-01-14"
   sodipodi:version="0.32"
   id="svg2"
   height="100.00000pt"
   width="100.00000pt"
   version="1.1">
  <defs
     id="defs3">
    <marker
       inkscape:stockid="Arrow2Mend"
       orient="auto"
       refY="0.0"
       refX="0.0"
       id="Arrow2Mend"
       style="overflow:visible;">
      <path
         sodipodi:nodetypes="cccc"
         id="path2928"
         style="font-size:12.0;fill-rule:evenodd;stroke-width:0.62500000;stroke-linejoin:round;"
         d="M 8.7185878,4.0337352 L -2.2072895,0.016013256 L 8.7185884,-4.0017078 C 6.9730900,-1.6296469 6.9831476,1.6157441 8.7185878,4.0337352 z "
         transform="scale(0.6) rotate(180) translate(-5,0)" />
    </marker>
    <marker
       inkscape:stockid="Arrow2Lend"
       orient="auto"
       refY="0.0"
       refX="0.0"
       id="Arrow2Lend"
       style="overflow:visible;">
      <path
         sodipodi:nodetypes="cccc"
         id="path2931"
         style="font-size:12.0;fill-rule:evenodd;stroke-width:0.62500000;stroke-linejoin:round;"
         d="M 8.7185878,4.0337352 L -2.2072895,0.016013256 L 8.7185884,-4.0017078 C 6.9730900,-1.6296469 6.9831476,1.6157441 8.7185878,4.0337352 z "
         transform="scale(1.1) rotate(180) translate(-5,0)" />
    </marker>
    <marker
       inkscape:stockid="Arrow2Lstart"
       orient="auto"
       refY="0.0"
       refX="0.0"
       id="Arrow2Lstart"
       style="overflow:visible">
      <path
         sodipodi:nodetypes="cccc"
         id="path2922"
         style="font-size:12.0;fill-rule:evenodd;stroke-width:0.62500000;stroke-linejoin:round"
         d="M 8.7185878,4.0337352 L -2.2072895,0.016013256 L 8.7185884,-4.0017078 C 6.9730900,-1.6296469 6.9831476,1.6157441 8.7185878,4.0337352 z "
         transform="scale(1.1) translate(-5,0)" />
    </marker>
  </defs>
  <sodipodi:namedview
     inkscape:window-y="0"
     inkscape:window-x="0"
     inkscape:window-height="1176"
     inkscape:window-width="1920"
     inkscape:grid-points="true"
     showgrid="true"
     inkscape:current-layer="layer1"
     inkscape:document-units="pt"
     inkscape:cy="57.650625"
     inkscape:cx="47.794978"
     inkscape:zoom="5.6"
     inkscape:pageshadow="2"
     inkscape:pageopacity="0.0"
     borderopacity="1.0"
     bordercolor="#666666"
     pagecolor="#ffffff"
     id="base"
     inkscape:window-maximized="1">
    <inkscape:grid
       id="GridFromPre046Settings"
       type="xygrid"
       originx="0"
       originy="0"
       spacingx="6.6666667"
       spacingy="6.6666667"
       color="#3f3fff"
       empcolor="#3f3fff"
       opacity="0.15"
       empopacity="0.38"
       empspacing="5" />
  </sodipodi:namedview>
  <metadata
     id="metadata4">
    <rdf:RDF>
      <cc:Work
         rdf:about="">
        <dc:format>image/svg+xml</dc:format>
        <dc:type
           rdf:resource="http://purl.org/dc/dcmitype/StillImage" />
      </cc:Work>
    </rdf:RDF>
  </metadata>
  <g
     id="layer1"
     inkscape:groupmode="layer"
     inkscape:label="Layer 1">
    <path
       style="fill:#008000;fill-opacity:1;stroke:#000000;stroke-width:0.03571429;stroke-miterlimit:4;stroke-dasharray:none;stroke-opacity:1"
       d="m 74.270117,119.62713 -0.421568,-0.34129 -0.04889,-10.16534 -0.04888,-10.16534 -1.978841,0.498775 C 66.263956,100.84225 60.686147,100.98068 55.071519,99.868408 42.076974,97.294169 31.08919,87.715758 26.715037,75.149138 25.575967,71.876676 24.652121,67.247155 24.652121,64.811576 v -1.093154 h -9.297454 c -5.995684,0 -9.4186622,-0.06487 -9.6387645,-0.182664 -0.7039927,-0.376764 -0.8033774,-1.078984 -0.2831887,-2.000918 0.012638,-0.0224 4.3220857,-0.08267 9.5765502,-0.133928 l 9.553571,-0.0932 0.123963,-1.738389 c 0.530498,-7.439491 3.457885,-14.910784 8.169757,-20.850896 1.236443,-1.558745 4.084459,-4.439402 5.692789,-5.758034 4.121668,-3.379261 9.486252,-6.113152 14.441857,-7.359838 3.238704,-0.814764 4.857252,-1.026514 8.53592,-1.11673 4.109755,-0.100789 6.589875,0.151307 10.020517,1.018553 1.167288,0.295084 2.142429,0.536733 2.166982,0.536997 0.02455,1.78e-4 0.04464,-4.464624 0.04464,-9.921973 0,-11.0844599 -0.01363,-10.9649349 1.25,-10.9649349 1.031256,0 0.974424,-0.5838952 1.071429,11.0079549 l 0.08929,10.669431 0.446428,0.223127 c 0.245536,0.12272 1.33865,0.659886 2.429141,1.193702 3.876368,1.897557 6.583381,3.799341 9.691402,6.808604 3.452182,3.342483 5.623039,6.311871 7.704221,10.538141 2.740145,5.564432 3.922759,10.633457 3.924409,16.82121 9e-4,3.529286 -0.30267,6.176564 -1.06626,9.297011 -1.628606,6.655307 -5.10309,12.810228 -10.006711,17.726519 -3.248955,3.25735 -6.491252,5.534906 -10.845845,7.618679 l -2.366071,1.132218 v 10.611696 10.6117 l -0.396877,0.27798 c -0.524782,0.36757 -0.90235,0.35066 -1.413698,-0.0633 z M 65.295831,97.997047 c 2.429502,-0.195882 5.011916,-0.657634 7.176538,-1.283212 l 1.302391,-0.376393 -0.05239,-1.086295 -0.05239,-1.086296 -4.613768,-3.696589 -4.613768,-3.69659 -6.323732,-2.105096 c -3.478054,-1.157804 -6.323732,-2.153495 -6.323732,-2.212645 0,-0.05915 0.30746,-0.199666 0.683244,-0.312253 0.752122,-0.225341 3.245327,-1.899977 3.245327,-2.17982 0,-0.207905 -10.454714,-8.564864 -10.714807,-8.564864 -0.114036,0 -0.17805,1.765527 -0.17805,4.910714 v 4.910714 H 43.66998 42.509266 v -8.75 -8.75 H 34.652123 26.79498 v 0.70514 c 0,0.387827 0.11988,1.613273 0.266402,2.723214 1.791239,13.569168 11.197418,24.888064 24.217467,29.142014 4.826911,1.577064 9.133924,2.101963 14.016984,1.708257 z M 78.113603,94.553133 C 82.458122,92.491556 87.060317,88.868553 90.200854,85.03764 99.068244,74.220962 100.74542,59.087165 94.465197,46.558905 91.00837,39.662971 85.443376,34.11976 78.478422,30.63471 c -2.483462,-1.242648 -2.39773,-1.242714 -2.39773,0.0018 0,0.577132 -0.100447,1.17522 -0.223214,1.32908 -0.122768,0.153861 -7.09375,5.767836 -15.491072,12.475499 -8.397321,6.707662 -15.323798,12.280144 -15.392169,12.383291 -0.06837,0.103148 -0.124315,2.657223 -0.124315,5.675725 0,4.904633 0.03221,5.525185 0.302886,5.836196 0.296663,0.340866 11.953655,9.667802 12.083014,9.667802 0.03616,0 0.224854,-0.261161 0.419325,-0.580357 0.477422,-0.783624 0.939429,-2.175836 1.078745,-3.250693 l 0.114657,-0.884622 3.388361,5.616765 c 1.863598,3.089219 3.631455,5.869521 3.928571,6.178448 0.443884,0.461528 7.115013,5.852476 9.388472,7.586837 0.594646,0.453639 0.614641,0.507864 0.576146,1.5625 -0.0257,0.704091 0.03045,1.09255 0.157911,1.09255 0.108784,0 0.9303,-0.347595 1.825593,-0.772432 z M 42.509264,52.646994 v -8.75 h 1.160714 1.160714 v 4.910714 c 0,2.700893 0.05012,4.910715 0.111379,4.910715 0.06126,0 6.550098,-5.150372 14.419642,-11.445272 L 73.669978,30.82788 73.723172,29.771983 C 73.785579,28.533191 73.89309,28.606851 70.991406,27.900317 65.678185,26.606596 59.342578,26.60651 54.027121,27.900139 39.046614,31.545812 27.924953,44.57191 26.860217,59.719014 l -0.117953,1.67798 h 7.8835 7.8835 z"
       id="path5272"
       inkscape:connector-curvature="0" />
  </g>
</svg>
