<?xml version="1.0" encoding="UTF-8" standalone="no"?>
<svg
   xmlns:dc="http://purl.org/dc/elements/1.1/"
   xmlns:cc="http://creativecommons.org/ns#"
   xmlns:rdf="http://www.w3.org/1999/02/22-rdf-syntax-ns#"
   xmlns:svg="http://www.w3.org/2000/svg"
   xmlns="http://www.w3.org/2000/svg"
   xmlns:sodipodi="http://sodipodi.sourceforge.net/DTD/sodipodi-0.dtd"
   xmlns:inkscape="http://www.inkscape.org/namespaces/inkscape"
   version="1.1"
   width="1450.53333"
   height="1636.8667"
   viewBox="0,0,1450.53333,1636.8667"
   id="svg16"
   sodipodi:docname="Windows_logo_-_2012_broken.svg"
   inkscape:version="0.92.4 5da689c313, 2019-01-14">
  <metadata
     id="metadata22">
    <rdf:RDF>
      <cc:Work
         rdf:about="">
        <dc:format>image/svg+xml</dc:format>
        <dc:type
           rdf:resource="http://purl.org/dc/dcmitype/StillImage" />
      </cc:Work>
    </rdf:RDF>
  </metadata>
  <defs
     id="defs20">
    <inkscape:path-effect
       effect="roughen"
       id="path-effect1516"
       is_visible="true"
       method="segments"
       max_segment_size="10"
       segments="2"
       displace_x="10;1"
       displace_y="10;1"
       global_randomize="2;1"
       handles="along"
       shift_nodes="true"
       fixed_displacement="false"
       spray_tool_friendly="false" />
    <inkscape:path-effect
       effect="bspline"
       id="path-effect1502"
       is_visible="true"
       weight="33.333333"
       steps="2"
       helper_size="0"
       apply_no_weight="true"
       apply_with_weight="true"
       only_selected="false" />
    <inkscape:path-effect
       effect="bspline"
       id="path-effect1498"
       is_visible="true"
       weight="33.333333"
       steps="2"
       helper_size="0"
       apply_no_weight="true"
       apply_with_weight="true"
       only_selected="false" />
  </defs>
  <sodipodi:namedview
     pagecolor="#ffffff"
     bordercolor="#666666"
     borderopacity="1"
     objecttolerance="10"
     gridtolerance="10"
     guidetolerance="10"
     inkscape:pageopacity="0"
     inkscape:pageshadow="2"
     inkscape:window-width="1920"
     inkscape:window-height="1176"
     id="namedview18"
     showgrid="false"
     inkscape:zoom="1.1534232"
     inkscape:cx="419.23167"
     inkscape:cy="1069.1572"
     inkscape:window-x="0"
     inkscape:window-y="0"
     inkscape:window-maximized="1"
     inkscape:current-layer="svg16" />
  <path
     style="font-family:none;mix-blend-mode:normal;fill:#d0d0ce;fill-rule:nonzero;stroke:none;stroke-width:1;stroke-linecap:butt;stroke-linejoin:miter;stroke-miterlimit:10;stroke-dasharray:none;stroke-dashoffset:0"
     d="m 433.71489,367.63031 -71.09874,5.4861 5.60132,13.5866 0.13047,4.84021 -2.41619,2.17649 1.96491,-2.35357 -0.38735,-4.31703 -7.35497,-13.7445 -13.48553,1.04149 -3.58486,52.71204 2.68391,0.14007 5.261,-2.25762 -4.43034,2.53193 -3.58625,0.64122 -2.19328,32.24789 0.43747,-0.27308 7.93112,-2.41008 12.51679,-5.05558 7.57605,-7.66301 6.78735,-6.56882 8.99164,-5.02935 10.9832,-6.19771 5.60788,-10.67965 9.88778,-6.38072 3.35585,-9.21093 7.95667,-4.72795 1.95096,-16.52812 8.72691,-8.80753 z"
     id="path2"
     inkscape:connector-curvature="0" />
  <path
     style="font-family:none;mix-blend-mode:normal;fill:#d0d0ce;fill-rule:nonzero;stroke:none;stroke-width:1;stroke-linecap:butt;stroke-linejoin:miter;stroke-miterlimit:10;stroke-dasharray:none;stroke-dashoffset:0"
     inkscape:connector-curvature="0"
     id="path4"
     d="m 137.38842,389.08709 201.63927,-34.90927 3.48173,95.28369 -4.82963,3.48881 -11.55363,1.43996 -12.37356,7.75089 -14.18472,2.5945 -10.72819,-4.05371 -13.76657,2.80302 -12.26022,13.36875 -15.95696,-6.68997 -11.76683,2.35313 -8.8139,7.69828 -9.74629,-3.44892 -9.63163,10.5486 -9.05541,1.21984 -9.4106,-1.88529 -11.05758,1.16357 -12.3188,-1.9381 -10.04181,0.69555 -14.12212,-3.28742 z" />
  <path
     style="font-family:none;mix-blend-mode:normal;fill:#d0d0ce;fill-rule:nonzero;stroke:none;stroke-width:1;stroke-linecap:butt;stroke-linejoin:miter;stroke-miterlimit:10;stroke-dasharray:none;stroke-dashoffset:0"
     inkscape:connector-curvature="0"
     id="path6"
     d="m 393.7447,541.58851 -201.70562,19.78605 -6.96581,-74.53892 14.28401,2.49163 9.98712,-1.25666 12.40798,1.24539 10.97511,-1.78082 9.50138,1.35548 8.97292,-1.72491 9.02594,-11.07129 9.92411,2.89785 8.36908,-8.17966 11.61663,-3.00821 16.30647,5.78611 11.49254,-14.03417 13.58804,-3.56936 10.93831,3.44673 14.01723,-3.38458 11.92021,-8.43147 11.45489,-2.08455 4.62673,-3.75372 z" />
  <path
     style="font-family:none;mix-blend-mode:normal;fill:#d0d0ce;fill-rule:nonzero;stroke:none;stroke-width:1;stroke-linecap:butt;stroke-linejoin:miter;stroke-miterlimit:10;stroke-dasharray:none;stroke-dashoffset:0"
     d="M 422.92773 540.66602 L 222.20117 567.62109 L 231.03906 630.31055 C 243.2205 629.28918 282.92383 628.39844 282.92383 628.39844 L 328.28906 622.88086 C 328.28906 622.88086 326.14315 617.67015 327.67578 618.2832 C 329.20841 618.89625 331.35352 623.1875 331.35352 623.1875 L 351.27734 621.6543 L 383.46289 621.04102 L 351.58398 623.1875 L 314.80078 627.47852 L 321.54492 628.0918 L 303.76562 630.54492 L 282.31055 633.30273 L 285.06836 640.9668 L 280.77734 633.91602 L 232.1582 638.25586 L 245.82031 735.16992 L 450.39648 734.48438 L 422.92773 540.66602 z "
     id="path8" />
  <path
     style="font-family:none;mix-blend-mode:normal;fill:#d0d0ce;fill-rule:nonzero;stroke:none;stroke-width:1;stroke-linecap:butt;stroke-linejoin:miter;stroke-miterlimit:10;stroke-dasharray:none;stroke-dashoffset:0"
     d="M 684.08594 440.56445 L 634.9668 454.59766 L 580.55859 464.4082 L 552.66602 463.48828 L 544.23633 463.64062 L 527.99023 466.40039 L 521.40039 469.1582 L 513.73633 470.38477 L 498.86914 473.60352 L 487.375 475.74805 L 462.24023 476.36133 L 448.75391 483.10547 L 418.58398 488.85156 L 422.87109 534.51172 L 690.34766 507.25781 L 684.08594 440.56445 z "
     id="path5236" />
  <path
     style="font-family:none;mix-blend-mode:normal;fill:#d0d0ce;fill-rule:nonzero;stroke:none;stroke-width:1;stroke-linecap:butt;stroke-linejoin:miter;stroke-miterlimit:10;stroke-dasharray:none;stroke-dashoffset:0"
     d="m 645.25398,269.38056 -178.34569,46.85054 0.38854,3.18091 -7.01068,10.22808 1.03757,16.61071 -6.98145,6.07451 -1.65495,9.6609 -8.58613,8.04768 -3.60765,11.50957 -9.69538,8.06414 -7.94737,6.55715 -5.50257,7.67654 -6.08381,8.89444 -11.41049,7.21461 -7.37115,3.78831 -0.38237,0.34693 7.45967,66.35273 30.05936,-6.29901 13.36022,-6.9906 25.11928,-1.07463 11.45283,-2.35519 14.80559,-3.49116 7.64024,-1.36706 6.5381,-2.87833 16.1927,-3.05757 8.42547,-0.30708 27.90477,0.40769 54.21891,-10.80779 48.85323,-14.93263 z"
     id="path10"
     inkscape:connector-curvature="0" />
  <path
     style="font-family:none;mix-blend-mode:normal;fill:#d0d0ce;fill-rule:nonzero;stroke:none;stroke-width:1;stroke-linecap:butt;stroke-linejoin:miter;stroke-miterlimit:10;stroke-dasharray:none;stroke-dashoffset:0"
     d="M 713.71875 502.23242 L 447.01562 539.49805 L 475.02148 734.88086 L 746.53906 734.81445 L 729.65625 615.18164 L 720.02734 610.3125 L 701.78906 601.88477 L 695.66016 598.51172 L 691.82812 593.30078 L 682.78516 591.46289 L 677.11523 589.62305 L 675.42773 589.62305 L 673.58984 587.9375 L 658.41602 584.71875 L 652.89844 582.57227 L 650.59961 583.64648 L 643.39648 584.25977 L 637.57227 585.94531 L 641.55664 584.10547 L 638.0332 583.18555 L 649.2207 583.0332 L 644.92969 576.44336 L 649.98633 581.34766 L 664.54688 584.25977 L 667.76562 579.04883 L 666.08008 584.25977 L 693.05273 589.92969 L 698.26367 597.13281 L 729.01172 610.60156 L 713.71875 502.23242 z "
     id="path12" />
</svg>
